<svg width="88" height="87" viewBox="0 0 88 87" fill="none" xmlns="http://www.w3.org/2000/svg">
<path d="M79.2173 33.7186C79.186 33.5312 79.1044 33.3556 78.9811 33.21C78.8578 33.0644 78.6972 32.9541 78.5161 32.8907C78.335 32.8273 78.14 32.8131 77.9515 32.8496C77.7629 32.886 77.5877 32.9718 77.4441 33.0979L74.179 35.9658L69.5568 33.4851C69.5268 33.4685 69.4931 33.4555 69.4612 33.4407L69.4294 33.4277C69.3749 33.4061 69.3184 33.3899 69.2607 33.3795H69.2157C69.168 33.3714 69.1197 33.3671 69.0714 33.3666H69.0432H66.0724C65.9274 33.3606 65.7828 33.3836 65.6471 33.4343C65.5114 33.485 65.3875 33.5623 65.2828 33.6616C65.1781 33.7608 65.0948 33.88 65.0379 34.0119C64.9809 34.1438 64.9516 34.2857 64.9516 34.4291C64.9516 34.5724 64.9809 34.7143 65.0379 34.8462C65.0948 34.9781 65.1781 35.0973 65.2828 35.1965C65.3875 35.2958 65.5114 35.3731 65.6471 35.4238C65.7828 35.4745 65.9274 35.4975 66.0724 35.4916H68.0705L70.584 60.5802L73.0206 84.8741H62.468C62.1907 84.8856 61.9285 85.0025 61.7364 85.2005C61.5443 85.3985 61.437 85.6623 61.437 85.9366C61.437 86.211 61.5443 86.4747 61.7364 86.6727C61.9285 86.8707 62.1907 86.9877 62.468 86.9991H75.9521C76.0971 87.0051 76.2417 86.9821 76.3774 86.9314C76.5131 86.8807 76.637 86.8034 76.7417 86.7041C76.8464 86.6049 76.9297 86.4857 76.9867 86.3538C77.0436 86.2219 77.0729 86.08 77.0729 85.9366C77.0729 85.7932 77.0436 85.6513 76.9867 85.5194C76.9297 85.3875 76.8464 85.2684 76.7417 85.1691C76.637 85.0699 76.5131 84.9926 76.3774 84.9419C76.2417 84.8912 76.0971 84.8681 75.9521 84.8741H75.178L71.3487 46.639L70.3141 36.3123L73.3243 37.9315L77.5941 72.3631C77.6274 72.6194 77.754 72.8548 77.9504 73.0253C78.1467 73.1958 78.3992 73.2898 78.6606 73.2895C78.7043 73.2922 78.7481 73.2922 78.7918 73.2895C78.932 73.2727 79.0676 73.2288 79.1906 73.1602C79.3137 73.0916 79.4218 72.9997 79.5089 72.8897C79.5959 72.7798 79.6602 72.6539 79.6979 72.5193C79.7357 72.3848 79.7462 72.2442 79.729 72.1056L75.4592 37.6795L77.4179 35.964L85.665 84.8575H81.3109L80.8498 81.1521C80.8327 81.0137 80.7882 80.88 80.7188 80.7585C80.6494 80.6371 80.5565 80.5304 80.4453 80.4444C80.3342 80.3585 80.207 80.2951 80.0711 80.2577C79.9352 80.2203 79.7931 80.2098 79.653 80.2267C79.513 80.2436 79.3777 80.2877 79.2548 80.3563C79.132 80.4249 79.024 80.5167 78.9371 80.6265C78.8501 80.7364 78.7859 80.8621 78.7481 80.9964C78.7103 81.1308 78.6997 81.2712 78.7168 81.4097L79.2922 86.0543C79.3259 86.3103 79.4527 86.5455 79.6489 86.716C79.8452 86.8865 80.0975 86.9805 80.3587 86.9806C80.4018 86.9806 80.445 86.9806 80.4899 86.9806C80.5181 86.9806 80.5462 86.9899 80.5762 86.9899H86.9246C87.0808 86.9898 87.235 86.9561 87.3767 86.8912C87.5184 86.8263 87.644 86.7317 87.745 86.6139C87.8459 86.4961 87.9197 86.3581 87.9613 86.2093C88.0028 86.0605 88.0111 85.9045 87.9855 85.7523L79.2173 33.7186Z" fill="#323232"/>
<path d="M25.0277 18.5266V33.3478H19.757C19.5208 27.9195 16.9305 23.2879 15.3391 20.935C15.1758 20.7126 14.9317 20.5613 14.658 20.5129C14.3843 20.4645 14.1022 20.5227 13.871 20.6753C13.6398 20.8279 13.4773 21.0631 13.4176 21.3315C13.358 21.6 13.4058 21.8808 13.551 22.1152C13.864 22.5783 14.2183 23.1397 14.5856 23.7826C13.684 24.1236 12.6932 24.1589 11.7691 23.8829C10.8449 23.6069 10.0397 23.0353 9.47989 22.2578L2.29548 12.272C2.17425 12.1034 2.12571 11.8942 2.16053 11.6903C2.19627 11.4867 2.31135 11.3051 2.48104 11.1845L8.29155 7.10864C8.3759 7.04913 8.47132 7.0067 8.57234 6.98381C8.67335 6.96091 8.77795 6.95801 8.8801 6.97525C8.98251 6.99148 9.08058 7.02789 9.16849 7.08231C9.25639 7.13673 9.33233 7.20806 9.3918 7.29206L16.5762 17.2705C17.1776 18.1053 17.4575 19.125 17.3653 20.1458C17.3502 20.4213 17.4441 20.6918 17.6271 20.9002C17.81 21.1086 18.0678 21.2386 18.3459 21.2626C18.6239 21.2867 18.9006 21.2029 19.1174 21.0291C19.3342 20.8553 19.4741 20.605 19.5077 20.3311C19.6446 18.8045 19.2259 17.2797 18.3269 16.031L11.1424 6.05078C10.6904 5.42364 10.005 4.99943 9.23684 4.87125C8.46865 4.74308 7.68039 4.92143 7.0451 5.36715L1.2346 9.45411C0.920173 9.67519 0.652903 9.95533 0.448059 10.2785C0.243215 10.6018 0.10481 10.9617 0.0407544 11.3378C-0.0233016 11.7139 -0.011754 12.0988 0.0747378 12.4705C0.16123 12.8422 0.32097 13.1934 0.544832 13.504L7.72924 23.4806C8.58765 24.6755 9.83389 25.5442 11.2609 25.9422C12.6878 26.3403 14.2097 26.2437 15.5734 25.6686C16.5762 27.801 17.4628 30.4558 17.6052 33.346H14.6231C14.3572 33.3459 14.1007 33.4432 13.9031 33.619C13.7054 33.7949 13.5807 34.0368 13.5529 34.2982L12.4751 44.5342C12.4603 44.6729 12.4734 44.8131 12.5136 44.9468C12.5537 45.0806 12.6202 45.2051 12.7092 45.3134C12.7982 45.4217 12.9079 45.5115 13.0321 45.5778C13.1563 45.644 13.2925 45.6854 13.4329 45.6995C13.4703 45.7023 13.5079 45.7023 13.5454 45.6995C13.811 45.6991 14.067 45.6016 14.2643 45.4258C14.4615 45.25 14.586 45.0083 14.6138 44.7472L15.5922 35.4691H25.0277V41.4884C25.0393 41.7625 25.1576 42.0216 25.3579 42.2115C25.5582 42.4014 25.8251 42.5074 26.1026 42.5074C26.3802 42.5074 26.647 42.4014 26.8474 42.2115C27.0477 42.0216 27.166 41.7625 27.1776 41.4884V18.5266C27.1776 14.1756 28.9262 10.0029 32.0389 6.92629C35.1515 3.8497 39.3731 2.12129 43.775 2.12129C48.1769 2.12129 52.3985 3.8497 55.5112 6.92629C58.6238 10.0029 60.3724 14.1756 60.3724 18.5266V33.3478H30.7426C30.4653 33.3593 30.2032 33.4762 30.011 33.6742C29.8189 33.8722 29.7116 34.136 29.7116 34.4103C29.7116 34.6847 29.8189 34.9484 30.011 35.1464C30.2032 35.3444 30.4653 35.4614 30.7426 35.4728H60.3724V41.4884C60.384 41.7625 60.5023 42.0216 60.7027 42.2115C60.903 42.4014 61.1698 42.5074 61.4474 42.5074C61.725 42.5074 61.9918 42.4014 62.1921 42.2115C62.3924 42.0216 62.5107 41.7625 62.5223 41.4884V18.5266C62.5223 13.613 60.5476 8.90071 57.0325 5.42631C53.5174 1.9519 48.7499 0 43.7788 0C38.8077 0 34.0402 1.9519 30.5251 5.42631C27.0099 8.90071 25.0352 13.613 25.0352 18.5266H25.0277Z" fill="#323232"/>
<path d="M36.7108 29.739V18.5267C36.7155 15.9328 37.3402 13.3766 38.534 11.0666C39.7277 8.75659 41.4568 6.75806 43.5803 5.23387C43.8112 5.06803 43.966 4.81833 44.0106 4.53968C44.0553 4.26103 43.9861 3.97627 43.8183 3.74804C43.6506 3.5198 43.3979 3.36679 43.116 3.32267C42.8341 3.27854 42.546 3.34692 42.3151 3.51275C39.9181 5.2339 37.9662 7.49011 36.6181 10.0978C35.27 12.7055 34.5639 15.5909 34.5571 18.5193V29.7315C34.5687 30.0057 34.687 30.2647 34.8874 30.4547C35.0877 30.6446 35.3545 30.7506 35.6321 30.7506C35.9096 30.7506 36.1765 30.6446 36.3768 30.4547C36.5771 30.2647 36.6954 30.0057 36.707 29.7315L36.7108 29.739Z" fill="#323232"/>
<path d="M70.9812 30.8007C71.1223 30.801 71.2621 30.7737 71.3925 30.7204C71.5229 30.6671 71.6414 30.5889 71.7412 30.4903C71.8409 30.3917 71.92 30.2746 71.9739 30.1457C72.0278 30.0168 72.0554 29.8786 72.0552 29.7391V18.5269C72.0564 14.1201 70.4684 9.85724 67.5763 6.50352C64.6841 3.1498 60.6773 0.924871 56.275 0.228165C55.9986 0.195101 55.7199 0.269242 55.4977 0.435003C55.2754 0.600765 55.1268 0.845237 55.0832 1.11703C55.0395 1.38883 55.1041 1.66678 55.2634 1.89247C55.4228 2.11815 55.6644 2.27399 55.9376 2.32723C59.8418 2.92845 63.3984 4.89379 65.9613 7.86631C68.5243 10.8388 69.9237 14.6213 69.9053 18.5269V29.7391C69.9053 29.8787 69.9331 30.0169 69.9872 30.1458C70.0413 30.2747 70.1206 30.3918 70.2205 30.4904C70.3205 30.589 70.4391 30.6672 70.5696 30.7204C70.7001 30.7737 70.84 30.801 70.9812 30.8007Z" fill="#323232"/>
<path d="M58.5467 82.7155V57.6638C58.5462 57.3821 58.4326 57.1121 58.2309 56.9131C58.0292 56.714 57.7558 56.6023 57.4708 56.6023H2.14915V52.7636C2.14964 52.1957 2.37809 51.6512 2.78432 51.2497C3.19056 50.8482 3.7414 50.6224 4.3159 50.6219H54.23C54.8045 50.6224 55.3554 50.8482 55.7616 51.2497C56.1679 51.6512 56.3963 52.1957 56.3968 52.7636V54.1734C56.3907 54.3167 56.4141 54.4597 56.4654 54.5938C56.5166 54.7279 56.5948 54.8504 56.6953 54.9539C56.7957 55.0574 56.9162 55.1397 57.0497 55.196C57.1831 55.2522 57.3267 55.2812 57.4717 55.2812C57.6168 55.2812 57.7604 55.2522 57.8938 55.196C58.0272 55.1397 58.1478 55.0574 58.2482 54.9539C58.3486 54.8504 58.4268 54.7279 58.4781 54.5938C58.5294 54.4597 58.5527 54.3167 58.5467 54.1734V52.7636C58.5442 51.6342 58.0892 50.5518 57.2813 49.7532C56.4733 48.9546 55.3783 48.5049 54.2357 48.5024H4.3159C3.17331 48.5049 2.07822 48.9546 1.27029 49.7532C0.462349 50.5518 0.00735865 51.6342 0.00488281 52.7636V82.7155C0.00735865 83.8448 0.462349 84.9272 1.27029 85.7258C2.07822 86.5244 3.17331 86.9741 4.3159 86.9766H54.23C55.3736 86.9756 56.4701 86.5265 57.2793 85.7278C58.0884 84.929 58.5442 83.8458 58.5467 82.7155ZM56.3968 58.7273V64.6669H2.14915V58.7273H56.3968ZM2.14915 82.7155V66.7826H56.3968V82.7155C56.3958 83.2832 56.1672 83.8273 55.7611 84.2288C55.3549 84.6302 54.8044 84.8562 54.23 84.8571H4.3159C3.74155 84.8562 3.191 84.6302 2.78487 84.2288C2.37874 83.8273 2.15014 83.2832 2.14915 82.7155Z" fill="#323232"/>
<path d="M26.1017 70.6752H13.716C13.5711 70.6693 13.4264 70.6923 13.2907 70.743C13.155 70.7937 13.0311 70.871 12.9264 70.9703C12.8217 71.0695 12.7384 71.1887 12.6815 71.3206C12.6246 71.4524 12.5952 71.5944 12.5952 71.7377C12.5952 71.8811 12.6246 72.023 12.6815 72.1549C12.7384 72.2868 12.8217 72.406 12.9264 72.5052C13.0311 72.6045 13.155 72.6818 13.2907 72.7325C13.4264 72.7832 13.5711 72.8062 13.716 72.8002H26.1017C26.2467 72.8062 26.3914 72.7832 26.527 72.7325C26.6627 72.6818 26.7867 72.6045 26.8914 72.5052C26.9961 72.406 27.0794 72.2868 27.1363 72.1549C27.1932 72.023 27.2225 71.8811 27.2225 71.7377C27.2225 71.5944 27.1932 71.4524 27.1363 71.3206C27.0794 71.1887 26.9961 71.0695 26.8914 70.9703C26.7867 70.871 26.6627 70.7937 26.527 70.743C26.3914 70.6923 26.2467 70.6693 26.1017 70.6752Z" fill="#323232"/>
<path d="M31.9571 71.331C31.9307 71.2663 31.8981 71.2042 31.8597 71.1457C31.82 71.0883 31.7755 71.0344 31.7266 70.9845C31.5246 70.7854 31.2509 70.6736 30.9656 70.6736C30.6803 70.6736 30.4066 70.7854 30.2046 70.9845C30.1562 71.0349 30.1117 71.0887 30.0715 71.1457C30.0338 71.2046 30.0012 71.2666 29.9741 71.331C29.9467 71.3954 29.926 71.4625 29.9122 71.531C29.8847 71.6674 29.8847 71.8078 29.9122 71.9442C29.926 72.0128 29.9467 72.0798 29.9741 72.1443C30.0012 72.2086 30.0338 72.2706 30.0715 72.3295C30.1117 72.3865 30.1562 72.4404 30.2046 72.4907C30.4066 72.6898 30.6803 72.8017 30.9656 72.8017C31.2509 72.8017 31.5246 72.6898 31.7266 72.4907C31.7755 72.4408 31.82 72.3869 31.8597 72.3295C31.8981 72.271 31.9307 72.209 31.9571 72.1443C31.9845 72.0798 32.0052 72.0128 32.019 71.9442C32.049 71.8081 32.049 71.6672 32.019 71.531C32.0052 71.4625 31.9845 71.3954 31.9571 71.331Z" fill="#323232"/>
<path d="M36.6279 71.3311C36.6008 71.2664 36.5676 71.2043 36.5285 71.1459C36.4902 71.0881 36.4462 71.0341 36.3973 70.9847C36.3458 70.9362 36.2906 70.8917 36.2324 70.8513C36.1728 70.814 36.1101 70.7818 36.045 70.755C35.8816 70.6878 35.704 70.6616 35.528 70.6786C35.3519 70.6957 35.1829 70.7554 35.0358 70.8526C34.8887 70.9497 34.7682 71.0813 34.685 71.2355C34.6017 71.3898 34.5583 71.562 34.5586 71.7369C34.5591 72.0186 34.6727 72.2886 34.8744 72.4876C35.0761 72.6866 35.3495 72.7984 35.6345 72.7984C35.7049 72.798 35.7752 72.7912 35.8444 72.7781C35.9818 72.7496 36.1128 72.6962 36.2305 72.6206C36.2888 72.5802 36.3439 72.5356 36.3955 72.4872C36.4443 72.4378 36.4883 72.3838 36.5267 72.326C36.5657 72.2675 36.599 72.2055 36.626 72.1407C36.6534 72.0763 36.6741 72.0092 36.6879 71.9407C36.7153 71.8043 36.7153 71.6639 36.6879 71.5275C36.6744 71.4603 36.6544 71.3945 36.6279 71.3311Z" fill="#323232"/>
<path d="M41.3122 71.3313C41.2829 71.2676 41.2497 71.2057 41.2128 71.146C41.172 71.089 41.1269 71.0351 41.0779 70.9848C40.9527 70.8618 40.7989 70.771 40.6299 70.7206C40.4609 70.6702 40.282 70.6617 40.1088 70.6958C40.0395 70.7088 39.9717 70.7287 39.9064 70.7551C39.8413 70.7826 39.7786 70.8154 39.719 70.8533C39.6609 70.8924 39.6064 70.9365 39.5559 70.9848C39.456 71.0834 39.3767 71.2005 39.3226 71.3294C39.2686 71.4583 39.2407 71.5965 39.2407 71.7361C39.2407 71.8756 39.2686 72.0138 39.3226 72.1427C39.3767 72.2716 39.456 72.3887 39.5559 72.4873C39.6068 72.5357 39.6613 72.5803 39.719 72.6207C39.779 72.6573 39.8417 72.6895 39.9064 72.717C39.9719 72.7432 40.0397 72.7637 40.1088 72.7782C40.178 72.7915 40.2483 72.7983 40.3188 72.7986C40.6033 72.797 40.8758 72.6852 41.0779 72.4873C41.1269 72.437 41.172 72.3831 41.2128 72.3261C41.2498 72.2668 41.2824 72.2049 41.3103 72.1409C41.3368 72.0761 41.3575 72.0091 41.3722 71.9408C41.3855 71.873 41.3924 71.8042 41.3928 71.7351C41.3934 71.6654 41.3865 71.5959 41.3722 71.5276C41.3571 71.4608 41.337 71.3952 41.3122 71.3313Z" fill="#323232"/>
</svg>
