<svg width="42" height="42" viewBox="0 0 42 42" fill="none" xmlns="http://www.w3.org/2000/svg">
<circle cx="21" cy="21" r="20.5" fill="#EEEC0B" stroke="#EEEC0B"/>
<path d="M30.4902 11H11.5098C11.1095 11.0005 10.7258 11.1722 10.4427 11.4773C10.1597 11.7825 10.0004 12.1963 10 12.6279V29.3721C10.0004 29.8037 10.1597 30.2175 10.4427 30.5227C10.7258 30.8279 11.1095 30.9995 11.5098 31H30.4902C30.8905 30.9995 31.2742 30.8279 31.5573 30.5227C31.8403 30.2175 31.9996 29.8037 32 29.3721V12.6279C31.9996 12.1963 31.8403 11.7825 31.5573 11.4773C31.2742 11.1722 30.8905 11.0005 30.4902 11ZM30.7059 29.3721C30.7058 29.4337 30.6831 29.4929 30.6426 29.5364C30.6022 29.58 30.5474 29.6046 30.4902 29.6047H11.5098C11.4526 29.6046 11.3978 29.58 11.3574 29.5364C11.3169 29.4929 11.2942 29.4337 11.2941 29.3721V12.6279C11.2942 12.5663 11.3169 12.5071 11.3574 12.4636C11.3978 12.42 11.4526 12.3954 11.5098 12.3953H30.4902C30.5474 12.3954 30.6022 12.42 30.6426 12.4636C30.6831 12.5071 30.7058 12.5663 30.7059 12.6279V29.3721ZM27.2549 17.2791C27.2549 17.4641 27.1867 17.6416 27.0654 17.7724C26.944 17.9032 26.7795 17.9767 26.6078 17.9767H15.3922C15.2205 17.9767 15.056 17.9032 14.9346 17.7724C14.8133 17.6416 14.7451 17.4641 14.7451 17.2791C14.7451 17.094 14.8133 16.9166 14.9346 16.7857C15.056 16.6549 15.2205 16.5814 15.3922 16.5814H26.6078C26.7795 16.5814 26.944 16.6549 27.0654 16.7857C27.1867 16.9166 27.2549 17.094 27.2549 17.2791ZM27.2549 21C27.2549 21.185 27.1867 21.3625 27.0654 21.4933C26.944 21.6242 26.7795 21.6977 26.6078 21.6977H15.3922C15.2205 21.6977 15.056 21.6242 14.9346 21.4933C14.8133 21.3625 14.7451 21.185 14.7451 21C14.7451 20.815 14.8133 20.6375 14.9346 20.5067C15.056 20.3758 15.2205 20.3023 15.3922 20.3023H26.6078C26.7795 20.3023 26.944 20.3758 27.0654 20.5067C27.1867 20.6375 27.2549 20.815 27.2549 21ZM27.2549 24.7209C27.2549 24.906 27.1867 25.0834 27.0654 25.2143C26.944 25.3451 26.7795 25.4186 26.6078 25.4186H15.3922C15.2205 25.4186 15.056 25.3451 14.9346 25.2143C14.8133 25.0834 14.7451 24.906 14.7451 24.7209C14.7451 24.5359 14.8133 24.3584 14.9346 24.2276C15.056 24.0968 15.2205 24.0233 15.3922 24.0233H26.6078C26.7795 24.0233 26.944 24.0968 27.0654 24.2276C27.1867 24.3584 27.2549 24.5359 27.2549 24.7209Z" fill="#323232" stroke="#323232" strokeWidth="0.5"/>
</svg>
