<svg width="15" height="20" viewBox="0 0 15 20" fill="none" xmlns="http://www.w3.org/2000/svg">
<path fill-rule="evenodd" clip-rule="evenodd" d="M14 5.78846C14 6.28846 13.4956 6.82692 12.5556 7.30769C11.7989 7.71153 11.5009 7.80769 11.455 7.80769L10.9277 7.96154L11.134 7.51923C11.157 7.48077 11.2257 7.28846 10.9506 7.15384C10.5608 6.96153 8.84127 6.78845 7.12169 6.78845C6.81599 6.78845 6.53322 6.78845 6.27337 6.78845C5.12698 6.76922 4.43915 6.76923 4.04938 7C3.65961 7.21154 3.77425 7.4423 3.77425 7.4423L4.02645 8L3.40741 7.71154C2.83422 7.46154 1 6.57692 1 5.86538C1 5.59615 1.09171 5.39102 1.27513 5.24999C1.52734 5.07692 1.84832 5.07692 1.94003 5.09615C2.03175 5.09615 2.62787 5.09615 3.52205 5.26923C3.45326 4.57692 3.3157 2.98077 3.5679 2.38462C3.88889 1.57693 4.59965 1.30769 5.35626 1.13462C5.81481 1.01923 7.25926 1 7.69488 1C8.68077 1 9.98765 1.01923 10.4004 1.13462C11.2257 1.32693 11.8219 1.78847 11.9136 2.32693C12.0053 2.75 11.9594 4.44231 11.9365 5.11539C12.0435 5.10257 12.1276 5.09615 12.1887 5.09615C12.6931 5.03846 13.381 5.03846 13.7478 5.30769C13.9083 5.42308 14 5.59616 14 5.78846ZM11.4092 5.1923C11.4092 5.07692 11.4168 4.94871 11.4321 4.80769C10.7443 4.99999 9.16226 5.34615 6.93827 5.34615C5.42504 5.34615 4.50794 5.09615 4.00353 4.90384C4.01881 5.08333 4.0341 5.23718 4.04938 5.36538C5.10405 5.59615 6.08995 5.78845 7.39683 5.73076C8.31393 5.67307 9.80423 5.44231 10.8818 5.26923C11.0653 5.24359 11.241 5.21794 11.4092 5.1923ZM3.9806 4.38461C4.2328 4.51922 5.10406 4.92308 6.93827 4.92308C9.32275 4.92308 10.9506 4.48077 11.4321 4.34616C11.455 3.5577 11.455 2.65384 11.4092 2.40384C11.3404 2.03846 10.8818 1.6923 10.2628 1.53846C9.98765 1.48077 8.88712 1.42307 7.69488 1.44231C6.64021 1.44231 5.74603 1.48077 5.49383 1.53846C4.78307 1.71154 4.27866 1.94231 4.04938 2.51923C3.91182 2.84616 3.93474 3.65384 3.9806 4.38461ZM13.4727 5.78846C13.4727 5.71154 13.4497 5.67307 13.4039 5.63461C13.2434 5.49999 12.8078 5.46154 12.2575 5.51923C12.0053 5.53846 11.5238 5.61538 10.9735 5.71154C9.87301 5.86538 8.38272 6.09615 7.41975 6.15384C6.02116 6.23076 4.98942 6.01923 3.91182 5.78846L3.75132 5.75C2.65079 5.51923 1.91711 5.51923 1.91711 5.51923H1.87125C1.87125 5.51923 1.71076 5.49999 1.61905 5.57692C1.54262 5.6282 1.50441 5.72435 1.50441 5.86538C1.50441 6.13461 2.37566 6.71153 3.26984 7.15384C3.33862 6.98077 3.47619 6.78846 3.75132 6.63461C4.18695 6.38461 4.78307 6.34615 5.65432 6.34615C5.85303 6.34615 6.05938 6.34615 6.27337 6.34615C6.53322 6.35897 6.81599 6.36539 7.12169 6.36539C8.74956 6.36539 10.6755 6.49999 11.2257 6.78845C11.478 6.92307 11.6155 7.09615 11.6614 7.25C11.7989 7.1923 12.0053 7.07692 12.2804 6.94231C13.06 6.53846 13.4727 6.13462 13.4727 5.78846Z" fill="#686868" stroke="#686868" strokeWidth="0.15" strokeLinejoin="round"/>
<path fill-rule="evenodd" clip-rule="evenodd" d="M14 8.814V9.40799C14 9.42999 14 10.112 13.5966 10.816C13.1484 11.608 12.4761 12.026 11.2884 12.312C11.4229 12.554 11.5573 12.906 11.5573 13.434C11.5573 14.292 10.6161 15.612 10.5041 15.766L10.1455 16.272L9.96626 15.062C9.71975 15.458 9.33879 15.92 8.80096 16.228C7.59083 16.954 8.08385 18.274 8.10626 18.318L8.35276 19L7.72529 18.626C7.68047 18.604 6.40312 17.812 5.82047 16.954C5.34987 16.25 5.14818 15.568 5.05854 15.084L4.36384 15.964V15.216C4.36384 15.216 4.36384 14.886 4.18456 14.534C4.13974 14.446 4.05011 14.336 3.96047 14.204C3.69155 13.896 3.3554 13.478 3.3554 12.84C3.3554 12.51 3.40022 12.268 3.48986 12.092C2.86239 11.938 2.32456 11.652 1.83155 11.234C0.912752 10.442 1.00239 9.254 1.00239 9.21L1.11444 8L1.51781 9.144C1.54022 9.276 1.7195 9.62799 1.9436 9.73799L2.05564 9.804C2.32456 9.936 2.4142 9.98 2.92962 9.98C3.15372 9.98 3.40023 9.936 3.62432 9.87C3.59444 9.84067 3.55709 9.81133 3.51227 9.78199C3.01926 9.42999 3.13131 8.836 3.15372 8.814L3.26577 8.264L3.60191 8.726C3.60191 8.726 3.8036 8.99 4.13974 8.99C4.25179 8.99 4.38625 8.92399 4.56553 8.85799C4.87926 8.72599 5.32746 8.55 6.08939 8.616C6.96336 8.682 7.34433 9.14399 7.50119 9.45199C7.65806 9.27599 7.99421 8.88 8.48722 8.726C8.913 8.572 9.51806 8.77 9.98867 8.924C10.1904 8.99 10.4145 9.07799 10.5041 9.07799C10.7506 9.07799 11.3108 8.858 11.6022 8.726L12.0952 8.52799L11.9607 9.01199C11.9383 9.12199 11.8038 9.606 11.4901 9.804C11.3332 9.914 11.154 9.98 10.9971 10.046C11.3332 10.134 11.7366 10.178 12.2072 10.068C12.7451 9.95799 13.3725 9.42999 13.5742 9.23199L14 8.814ZM2.16769 10.86C2.99685 11.586 4.0501 11.872 5.28264 11.718C6.55999 11.542 7.20987 10.728 7.20987 10.42C7.20987 10.046 7.14264 9.89199 7.14264 9.89199L7.12023 9.84799C7.09782 9.80399 6.94095 9.18799 6.04457 9.12199C5.39468 9.07799 5.05854 9.20999 4.74481 9.34199C4.54312 9.40799 4.34143 9.496 4.11733 9.496C4.04263 9.496 3.97541 9.48867 3.91565 9.474C4.13974 9.606 4.29661 9.62799 4.31902 9.62799L5.30505 9.67199L4.43107 10.09C4.38625 10.112 3.62432 10.486 2.92962 10.486C2.32456 10.486 2.14528 10.42 1.80914 10.244L1.69709 10.178C1.69709 10.178 1.68962 10.178 1.67468 10.178C1.76432 10.42 1.92119 10.662 2.16769 10.86ZM11.0419 13.434C11.0419 12.818 10.773 12.488 10.7282 12.444C10.4817 12.466 10.2352 12.488 9.98867 12.488C9.18192 12.488 8.46481 12.29 7.94939 11.894C7.65806 11.674 7.50119 11.41 7.38915 11.146C7.00818 11.63 6.31348 12.092 5.34987 12.202C5.11083 12.2313 4.87926 12.246 4.65517 12.246C4.43107 12.246 4.21444 12.2313 4.00529 12.202C3.96047 12.268 3.84842 12.422 3.84842 12.84C3.84842 13.324 4.09492 13.61 4.34143 13.918C4.45348 14.05 4.56553 14.182 4.63276 14.336C4.69252 14.4387 4.73733 14.534 4.76721 14.622L5.46191 13.698V14.446C5.46191 14.446 5.48432 15.59 6.24625 16.69C6.53758 17.152 7.07541 17.57 7.47878 17.878C7.43397 17.218 7.63565 16.36 8.53204 15.81C9.45083 15.282 9.85421 14.182 9.85421 14.16L10.1904 13.17L10.4369 14.93C10.7282 14.468 11.0419 13.83 11.0419 13.434ZM13.3725 10.046C13.0812 10.266 12.7002 10.486 12.3193 10.574C11.0195 10.86 10.0783 10.178 10.0335 10.156L9.42842 9.694L10.1904 9.716C10.2128 9.716 10.6385 9.716 11.0643 9.474C10.8626 9.54 10.661 9.584 10.5041 9.584C10.3248 9.584 10.1007 9.49599 9.80939 9.40799C9.42843 9.27599 8.913 9.122 8.64409 9.21C8.24071 9.342 7.94939 9.716 7.85975 9.804C7.81493 10.002 7.54601 10.948 8.26312 11.498C8.86818 11.982 9.85421 12.114 10.9075 11.894C12.1176 11.652 12.7451 11.278 13.1484 10.574C13.2605 10.398 13.3277 10.2 13.3725 10.046Z" fill="#686868" stroke="#686868" strokeWidth="0.15"/>
</svg>
