<svg width="49" height="49" viewBox="0 0 49 49" fill="none" xmlns="http://www.w3.org/2000/svg">
<path d="M42.0762 9.72C41.0547 8.69801 39.8419 7.8873 38.5069 7.33417C37.172 6.78105 35.7412 6.49635 34.2962 6.49635C32.8513 6.49635 31.4204 6.78105 30.0855 7.33417C28.7506 7.8873 27.5377 8.69801 26.5162 9.72L24.3962 11.84L22.2762 9.72C20.2128 7.65662 17.4143 6.49742 14.4962 6.49742C11.5782 6.49742 8.77962 7.65662 6.71623 9.72C4.65285 11.7834 3.49365 14.5819 3.49365 17.5C3.49365 20.4181 4.65285 23.2166 6.71623 25.28L8.83623 27.4L24.3962 42.96L39.9562 27.4L42.0762 25.28C43.0982 24.2585 43.9089 23.0456 44.4621 21.7107C45.0152 20.3758 45.2999 18.945 45.2999 17.5C45.2999 16.055 45.0152 14.6242 44.4621 13.2893C43.9089 11.9544 43.0982 10.7415 42.0762 9.72V9.72Z" stroke="#323232" strokeWidth="2" strokeLinecap="round" strokeLinejoin="round"/>
</svg>
