<svg width="85" height="30" viewBox="0 0 85 30" fill="none" xmlns="http://www.w3.org/2000/svg">
<path d="M0 25V5C0 2.23858 2.23857 0 5 0H69.6148C71.6594 0 73.4979 1.24475 74.2572 3.14305L82.2572 23.143C83.5709 26.4274 81.1522 30 77.6148 30H5C2.23858 30 0 27.7614 0 25Z" fill="#FF4C24"/>
<path d="M13.3182 8.36364L15.6648 12.3295H15.7557L18.1136 8.36364H20.892L17.3409 14.1818L20.9716 20H18.142L15.7557 16.0284H15.6648L13.2784 20H10.4602L14.1023 14.1818L10.5284 8.36364H13.3182ZM24.7159 16.8068L27.858 11.2727H30.2443V20H27.9375V14.4489L24.8068 20H22.4034V11.2727H24.7159V16.8068ZM31.3082 13.1761V11.2727H39.2173V13.1761H36.4048V20H34.098V13.1761H31.3082Z" fill="white"/>
<path d="M55.0489 7.92705C55.3483 7.00574 56.6517 7.00574 56.9511 7.92705L58.0206 11.2188C58.1545 11.6309 58.5385 11.9098 58.9717 11.9098H62.4329C63.4016 11.9098 63.8044 13.1494 63.0207 13.7188L60.2205 15.7533C59.87 16.0079 59.7234 16.4593 59.8572 16.8713L60.9268 20.1631C61.2261 21.0844 60.1717 21.8506 59.388 21.2812L56.5878 19.2467C56.2373 18.9921 55.7627 18.9921 55.4122 19.2467L52.612 21.2812C51.8283 21.8506 50.7739 21.0844 51.0732 20.1631L52.1428 16.8713C52.2766 16.4593 52.13 16.0079 51.7795 15.7533L48.9793 13.7188C48.1956 13.1494 48.5984 11.9098 49.5671 11.9098H53.0283C53.4615 11.9098 53.8455 11.6309 53.9794 11.2188L55.0489 7.92705Z" fill="white"/>
</svg>
