<svg width="24" height="24" viewBox="0 0 24 24" fill="none" xmlns="http://www.w3.org/2000/svg">
<circle cx="12" cy="12" r="12" fill="white"/>
<path d="M10.3846 17C10.282 16.9997 10.1806 16.9783 10.0867 16.9371C9.99274 16.896 9.90827 16.836 9.83852 16.7609L6.20278 12.8975C6.06687 12.7528 5.99407 12.5601 6.00038 12.3618C6.0035 12.2636 6.02596 12.167 6.06647 12.0775C6.10697 11.988 6.16473 11.9073 6.23644 11.8401C6.30816 11.7729 6.39243 11.7204 6.48444 11.6857C6.57645 11.6511 6.6744 11.6348 6.77269 11.6379C6.97121 11.6442 7.15909 11.7291 7.295 11.8737L10.3771 15.1542L16.6686 8.27937C16.7325 8.19995 16.8119 8.13441 16.902 8.08677C16.9921 8.03913 17.0911 8.0104 17.1927 8.00234C17.2944 7.99428 17.3966 8.00707 17.4931 8.03991C17.5896 8.07275 17.6784 8.12496 17.754 8.19332C17.8296 8.26168 17.8904 8.34476 17.9327 8.43745C17.975 8.53014 17.9978 8.63048 17.9999 8.73232C18.0019 8.83416 17.9831 8.93533 17.9445 9.02964C17.906 9.12394 17.8486 9.20938 17.7758 9.28071L10.9382 16.7534C10.8691 16.8299 10.7849 16.8913 10.691 16.9337C10.597 16.9762 10.4952 16.9987 10.3921 17H10.3846Z" fill="#54AD2A"/>
</svg>
