<svg width="22" height="23" viewBox="0 0 22 23" fill="none" xmlns="http://www.w3.org/2000/svg">
<path d="M15.5273 23C14.7102 22.9934 13.8967 22.881 13.1037 22.6653C10.365 21.9416 7.54494 20.1058 5.16412 17.496C2.7833 14.8862 1.10502 11.7969 0.444264 8.80035C-0.251491 5.64818 0.244731 2.95138 1.83995 1.20425L2.29543 0.70539C2.70869 0.253687 3.26868 0 3.85252 0C4.43637 0 4.99636 0.253687 5.40962 0.70539L8.02706 3.57152C8.43974 4.02398 8.67154 4.63736 8.67154 5.2769C8.67154 5.91643 8.43974 6.52981 8.02706 6.98227L6.48093 8.67507C7.22213 10.0995 8.23025 11.5252 9.4217 12.8301C10.6132 14.135 11.9159 15.2397 13.216 16.0515L14.7616 14.3581C14.966 14.1341 15.2088 13.9564 15.4759 13.8352C15.7431 13.714 16.0295 13.6516 16.3187 13.6516C16.6079 13.6516 16.8942 13.714 17.1614 13.8352C17.4286 13.9564 17.6713 14.1341 17.8758 14.3581L20.4927 17.2243C20.9054 17.6765 21.1373 18.2899 21.1373 18.9293C21.1373 19.5688 20.9054 20.1822 20.4927 20.6344L20.0367 21.1333C18.9121 22.3673 17.3555 23 15.5273 23ZM3.85252 1.71511C3.76913 1.71466 3.68648 1.73244 3.60944 1.76741C3.53239 1.80238 3.46249 1.85384 3.40384 1.91878L2.94783 2.41763C1.75325 3.72598 1.40432 5.85012 1.96531 8.39532C2.55921 11.0915 4.0881 13.893 6.26991 16.282C8.45172 18.6711 11.0091 20.3438 13.4714 20.9966C15.7958 21.611 17.7342 21.2288 18.9288 19.9205L19.3843 19.4216C19.5033 19.2912 19.5701 19.1143 19.5701 18.9299C19.5701 18.7455 19.5033 18.5687 19.3843 18.4382L16.7679 15.5721C16.6488 15.4417 16.4873 15.3685 16.3189 15.3685C16.1506 15.3685 15.9891 15.4417 15.87 15.5721L13.9107 17.718C13.7931 17.8468 13.6412 17.9313 13.4768 17.9593C13.3125 17.9873 13.1443 17.9572 12.9966 17.8736C11.3904 16.964 9.77115 15.6396 8.31382 14.0435C6.8565 12.4474 5.64989 10.6751 4.81728 8.91591C4.74082 8.75418 4.71333 8.57 4.73878 8.39002C4.76422 8.21004 4.84129 8.04359 4.95884 7.91477L6.91865 5.76889C7.03766 5.63844 7.10451 5.46159 7.10451 5.27718C7.10451 5.09278 7.03766 4.91592 6.91865 4.78548L4.30174 1.91878C4.2429 1.85395 4.17289 1.80257 4.09578 1.76761C4.01866 1.73265 3.93598 1.71481 3.85252 1.71511Z" fill="white"></path>
<path d="M16.4094 12.0476C16.2164 12.0476 16.0312 11.9516 15.8947 11.7808C15.7582 11.6099 15.6815 11.3782 15.6815 11.1366C15.6801 9.53829 15.1722 8.00597 14.2693 6.87577C13.3664 5.74556 12.1422 5.10975 10.8652 5.10782C10.6722 5.10782 10.487 5.01184 10.3505 4.84098C10.214 4.67012 10.1373 4.43839 10.1373 4.19677C10.1373 3.95514 10.214 3.72341 10.3505 3.55256C10.487 3.3817 10.6722 3.28571 10.8652 3.28571C14.3237 3.28571 17.1373 6.80845 17.1373 11.1366C17.1373 11.3782 17.0606 11.6099 16.9241 11.7808C16.7876 11.9516 16.6025 12.0476 16.4094 12.0476Z" fill="white"></path>
<path d="M19.415 12.0476C19.2234 12.0476 19.0396 11.9643 18.9042 11.8159C18.7687 11.6675 18.6926 11.4663 18.6926 11.2565C18.6926 6.52607 15.1771 2.67749 10.8597 2.67749C10.6681 2.67749 10.4844 2.59414 10.3489 2.44578C10.2134 2.29741 10.1373 2.09619 10.1373 1.88637C10.1373 1.67655 10.2134 1.47532 10.3489 1.32695C10.4844 1.17859 10.6681 1.09524 10.8597 1.09524C15.9755 1.09524 20.1373 5.65372 20.1373 11.2565C20.1373 11.4663 20.0612 11.6675 19.9258 11.8159C19.7903 11.9643 19.6065 12.0476 19.415 12.0476Z" fill="white"></path>
</svg>