<svg width="27" height="25" viewBox="0 0 27 25" fill="none" xmlns="http://www.w3.org/2000/svg">
<path d="M26.2417 15.6891L24.8477 16.0922L21.4182 3.87137C21.3786 3.71821 21.2756 3.58923 21.1331 3.50862C20.9984 3.428 20.8321 3.41188 20.6816 3.45219L14.8206 5.1531L11.4703 6.12851L6.17958 7.66014L4.77769 2.65413C4.73017 2.48484 4.61136 2.3478 4.46088 2.27525L0.849226 0.558215C0.548255 0.413114 0.199763 0.550154 0.0571976 0.848419C-0.0853676 1.15474 0.0492772 1.50944 0.342328 1.65454L3.70845 3.25872L5.19746 8.57106C5.19746 8.57106 5.19746 8.57106 5.19746 8.57912L7.9854 18.5508C7.44682 18.833 7.00329 19.2683 6.70232 19.8164C6.29838 20.55 6.20334 21.4045 6.43303 22.2106C6.8132 23.5568 8.03293 24.5 9.41106 24.5C9.69619 24.5 9.98132 24.4597 10.2585 24.3791C11.0506 24.1453 11.7159 23.6133 12.1119 22.8797C12.4366 22.2832 12.5633 21.606 12.4762 20.9369L24.5863 17.4303H24.5942L26.5664 16.858C26.8832 16.7693 27.0654 16.4307 26.9783 16.1083C26.8832 15.7858 26.5506 15.6004 26.2417 15.6891ZM15.383 9.36912L14.4484 9.03861C14.2107 8.94993 13.9494 9.03054 13.791 9.23207L13.1732 10.014L12.3653 7.1281L14.5751 6.49126L15.383 9.36912ZM11.0743 22.2993C10.8288 22.7507 10.4169 23.0812 9.93379 23.2183C9.75955 23.2666 9.5853 23.2908 9.41106 23.2908C8.56359 23.2908 7.81116 22.7104 7.58147 21.8801C7.43891 21.3803 7.50227 20.8563 7.7478 20.4049C7.99332 19.9535 8.40518 19.623 8.88832 19.4859C9.06256 19.4376 9.23681 19.4134 9.41106 19.4134C10.2585 19.4134 11.011 19.9938 11.2406 20.8241C11.3832 21.3239 11.3198 21.8479 11.0743 22.2993ZM12.096 19.7923C11.5575 18.8249 10.5357 18.2042 9.41106 18.2042C9.31601 18.2042 9.22889 18.2123 9.13385 18.2203L6.50431 8.82901L11.2248 7.45861L12.3495 11.465C12.4128 11.6827 12.5871 11.8439 12.8009 11.8923C12.8405 11.9003 12.8801 11.9003 12.9197 11.9003C13.094 11.9003 13.2682 11.8197 13.3791 11.6746L14.4563 10.3123L16.072 10.8927C16.1354 10.9169 16.2067 10.9249 16.2779 10.9249C16.6027 10.9249 16.872 10.6508 16.872 10.3203C16.872 10.2478 16.8561 10.1752 16.8324 10.1107L15.7235 6.14463L20.444 4.77423L23.7072 16.4146L12.096 19.7923Z" fill="#FF4C24"/>
</svg>
