<svg width="34" height="21" viewBox="0 0 34 21" fill="none" xmlns="http://www.w3.org/2000/svg">
<path d="M17.544 7.16667C17.3967 7.17111 17.255 7.23111 17.1507 7.33556L14.161 10.2578L12.3193 8.45778C11.8037 7.93111 10.9707 8.74444 11.509 9.24889L13.7564 11.4467C13.9797 11.6656 14.3423 11.6656 14.5667 11.4467L17.9611 8.12778C18.3351 7.77222 18.0597 7.16667 17.5451 7.16667H17.544ZM0.566667 11.6111H3.96667C4.2806 11.6111 4.53333 11.8589 4.53333 12.1667C4.53333 12.4744 4.2806 12.7222 3.96667 12.7222H0.566667C0.252733 12.7222 0 12.4744 0 12.1667C0 11.8589 0.252733 11.6111 0.566667 11.6111ZM0.566667 7.16667H3.96667C4.2806 7.16667 4.53333 7.41444 4.53333 7.72222C4.53333 8.03 4.2806 8.27778 3.96667 8.27778H0.566667C0.252733 8.27778 0 8.03 0 7.72222C0 7.41444 0.252733 7.16667 0.566667 7.16667ZM0.566667 2.72222H3.96667C4.2806 2.72222 4.53333 2.97 4.53333 3.27778C4.53333 3.58556 4.2806 3.83333 3.96667 3.83333H0.566667C0.252733 3.83333 0 3.58556 0 3.27778C0 2.97 0.252733 2.72222 0.566667 2.72222ZM27.7667 14.9444C26.2083 14.9444 24.9333 16.1944 24.9333 17.7222C24.9333 19.25 26.2083 20.5 27.7667 20.5C29.325 20.5 30.6 19.25 30.6 17.7222C30.6 16.1944 29.325 14.9444 27.7667 14.9444ZM27.7667 16.0556C28.7119 16.0556 29.4667 16.7956 29.4667 17.7222C29.4667 18.6489 28.7119 19.3889 27.7667 19.3889C26.8215 19.3889 26.0667 18.6489 26.0667 17.7222C26.0667 16.7956 26.8215 16.0556 27.7667 16.0556ZM13.0333 14.9444C11.475 14.9444 10.2 16.1944 10.2 17.7222C10.2 19.25 11.475 20.5 13.0333 20.5C14.5917 20.5 15.8667 19.25 15.8667 17.7222C15.8667 16.1944 14.5917 14.9444 13.0333 14.9444ZM13.0333 16.0556C13.9785 16.0556 14.7333 16.7956 14.7333 17.7222C14.7333 18.6489 13.9785 19.3889 13.0333 19.3889C12.0881 19.3889 11.3333 18.6489 11.3333 17.7222C11.3333 16.7956 12.0881 16.0556 13.0333 16.0556ZM7.36667 0.5C6.43507 0.5 5.66667 1.25333 5.66667 2.16667V14.3889C5.66667 15.3022 6.43507 16.0556 7.36667 16.0556H9.63333C10.3995 16.0667 10.3995 14.9333 9.63333 14.9444H7.36667C7.04253 14.9444 6.8 14.7067 6.8 14.3889V2.16667C6.8 1.84889 7.04253 1.61111 7.36667 1.61111H22.1C22.4241 1.61111 22.6667 1.84889 22.6667 2.16667V14.9444H16.4333C15.6853 14.9444 15.6989 16.0667 16.4333 16.0556H24.3667C25.1147 16.0556 25.1079 14.9444 24.3667 14.9444H23.8V4.94444H28.5906L32.8667 11.4956V14.3889C32.8667 14.7067 32.6241 14.9444 32.3 14.9444H31.1667C30.4255 14.9444 30.4255 16.0556 31.1667 16.0556H32.3C33.2316 16.0556 34 15.3022 34 14.3889V11.3333C34 11.2278 33.9694 11.1222 33.9116 11.0333L29.3783 4.08889C29.274 3.93 29.0949 3.83333 28.9 3.83333H23.8V2.16667C23.8 1.25333 23.0316 0.5 22.1 0.5H7.36667Z" fill="#54AD2A"/>
</svg>
