<svg width="70" height="30" viewBox="0 0 70 30" fill="none" xmlns="http://www.w3.org/2000/svg">
<path d="M69.5 25V5C69.5 2.51472 67.4853 0.5 65 0.5H6.91135C3.84653 0.5 1.67838 3.49698 2.63728 6.40794L9.22551 26.4079C9.83336 28.2532 11.5568 29.5 13.4996 29.5H65C67.4853 29.5 69.5 27.4853 69.5 25Z" fill="#EEEC0B" stroke="#EEEC0B"/>
<path d="M22.4034 14.2216V16.142H17.0966V14.2216H22.4034ZM24.267 18.9545V17.017L29.125 9.36364H30.7955V12.0455H29.8068L26.7443 16.892V16.983H33.6477V18.9545H24.267ZM29.8523 21V18.3636L29.8977 17.5057V9.36364H32.2045V21H29.8523ZM39.8494 21.2557C38.8722 21.2519 38.0313 21.0114 37.3267 20.5341C36.6259 20.0568 36.0862 19.3655 35.7074 18.4602C35.3324 17.5549 35.1468 16.4659 35.1506 15.1932C35.1506 13.9242 35.3381 12.8428 35.7131 11.9489C36.0919 11.0549 36.6316 10.375 37.3324 9.90909C38.0369 9.43939 38.8759 9.20455 39.8494 9.20455C40.8229 9.20455 41.66 9.43939 42.3608 9.90909C43.0653 10.3788 43.607 11.0606 43.9858 11.9545C44.3646 12.8447 44.5521 13.9242 44.5483 15.1932C44.5483 16.4697 44.3589 17.5606 43.9801 18.4659C43.6051 19.3712 43.0672 20.0625 42.3665 20.5398C41.6657 21.017 40.8267 21.2557 39.8494 21.2557ZM39.8494 19.2159C40.5161 19.2159 41.0483 18.8807 41.446 18.2102C41.8438 17.5398 42.0407 16.5341 42.0369 15.1932C42.0369 14.3106 41.946 13.5758 41.7642 12.9886C41.5862 12.4015 41.3324 11.9602 41.0028 11.6648C40.6771 11.3693 40.2926 11.2216 39.8494 11.2216C39.1866 11.2216 38.6563 11.553 38.2585 12.2159C37.8608 12.8788 37.66 13.8712 37.6562 15.1932C37.6562 16.0871 37.7453 16.8333 37.9233 17.4318C38.1051 18.0265 38.3608 18.4735 38.6903 18.7727C39.0199 19.0682 39.4062 19.2159 39.8494 19.2159ZM52.6719 18.8182V18.2045C52.6719 17.7386 52.7704 17.3106 52.9673 16.9205C53.1681 16.5265 53.4579 16.2121 53.8366 15.9773C54.2192 15.7386 54.6851 15.6193 55.2344 15.6193C55.7912 15.6193 56.259 15.7367 56.6378 15.9716C57.0204 16.2064 57.3082 16.5208 57.5014 16.9148C57.6984 17.3049 57.7969 17.7348 57.7969 18.2045V18.8182C57.7969 19.2841 57.6984 19.714 57.5014 20.108C57.3045 20.4981 57.0147 20.8106 56.6321 21.0455C56.2495 21.2841 55.7836 21.4034 55.2344 21.4034C54.6776 21.4034 54.2098 21.2841 53.831 21.0455C53.4522 20.8106 53.1643 20.4981 52.9673 20.108C52.7704 19.714 52.6719 19.2841 52.6719 18.8182ZM54.3253 18.2045V18.8182C54.3253 19.0871 54.3897 19.3409 54.5185 19.5795C54.651 19.8182 54.8897 19.9375 55.2344 19.9375C55.5791 19.9375 55.8139 19.8201 55.9389 19.5852C56.0677 19.3504 56.1321 19.0947 56.1321 18.8182V18.2045C56.1321 17.928 56.0715 17.6705 55.9503 17.4318C55.8291 17.1932 55.5904 17.0739 55.2344 17.0739C54.8935 17.0739 54.6567 17.1932 54.5241 17.4318C54.3916 17.6705 54.3253 17.928 54.3253 18.2045ZM46.7003 12.1591V11.5455C46.7003 11.0758 46.8007 10.6458 47.0014 10.2557C47.2022 9.86174 47.492 9.54735 47.8707 9.3125C48.2533 9.07765 48.7154 8.96023 49.2571 8.96023C49.8177 8.96023 50.2874 9.07765 50.6662 9.3125C51.045 9.54735 51.3329 9.86174 51.5298 10.2557C51.7268 10.6458 51.8253 11.0758 51.8253 11.5455V12.1591C51.8253 12.6288 51.7249 13.0587 51.5241 13.4489C51.3272 13.839 51.0374 14.1515 50.6548 14.3864C50.276 14.6174 49.8101 14.733 49.2571 14.733C48.7041 14.733 48.2363 14.6155 47.8537 14.3807C47.4749 14.142 47.187 13.8295 46.9901 13.4432C46.7969 13.053 46.7003 12.625 46.7003 12.1591ZM48.3651 11.5455V12.1591C48.3651 12.4356 48.4295 12.6913 48.5582 12.9261C48.6908 13.161 48.9238 13.2784 49.2571 13.2784C49.6056 13.2784 49.8423 13.161 49.9673 12.9261C50.0961 12.6913 50.1605 12.4356 50.1605 12.1591V11.5455C50.1605 11.2689 50.0999 11.0114 49.9787 10.7727C49.8575 10.5341 49.617 10.4148 49.2571 10.4148C48.92 10.4148 48.687 10.536 48.5582 10.7784C48.4295 11.0208 48.3651 11.2765 48.3651 11.5455ZM47.4503 21L55.4503 9.36364H56.9389L48.9389 21H47.4503Z" fill="#323232"/>
</svg>
