<svg width="42" height="42" viewBox="0 0 42 42" fill="none" xmlns="http://www.w3.org/2000/svg">
<circle cx="21" cy="21" r="21" fill="#EEEC0B"/>
<path d="M23.25 20.567C23.5833 20.7594 23.5833 21.2406 23.25 21.433L20.25 23.1651C19.9167 23.3575 19.5 23.117 19.5 22.7321L19.5 19.2679C19.5 18.883 19.9167 18.6425 20.25 18.8349L23.25 20.567Z" stroke="#323232" strokeLinejoin="round"/>
<path d="M21.0134 11L21.0134 12H21.0136L21.0147 12L21.0192 12L21.0375 12L21.1103 12.0001C21.1743 12.0003 21.2688 12.0006 21.3901 12.0012C21.6326 12.0023 21.9821 12.0046 22.4083 12.0093C23.2613 12.0185 24.4201 12.0371 25.6456 12.0741C26.8727 12.1112 28.1585 12.1666 29.2679 12.249C30.4025 12.3333 31.2672 12.4405 31.7085 12.5603C32.531 12.7938 33.1879 13.4494 33.4396 14.3088C33.8289 16.5192 34.0129 18.7575 33.9993 21.0078H33.9992L33.9993 21.0199C34.0128 23.2536 33.8248 25.4883 33.4395 27.6862C33.1882 28.5444 32.5325 29.2008 31.7077 29.4399C31.2585 29.5601 30.3909 29.667 29.2587 29.751C28.1482 29.8333 26.8631 29.8887 25.6374 29.9258C24.4133 29.9629 23.2565 29.9814 22.4052 29.9907C21.9798 29.9953 21.6312 29.9977 21.3892 29.9988C21.2682 29.9994 21.1739 29.9997 21.11 29.9998L21.0375 30L21.0192 30L21.0147 30H21.0136H21.0134L21.0134 31L21.0133 30H21.0131H21.012L21.0075 30L20.9892 30L20.9164 29.9998C20.8523 29.9997 20.7577 29.9994 20.6364 29.9988C20.3937 29.9977 20.044 29.9953 19.6175 29.9907C18.7639 29.9814 17.6043 29.9629 16.3781 29.9258C15.1502 29.8887 13.8636 29.8333 12.7537 29.751C11.6208 29.6669 10.7569 29.5599 10.3148 29.4404C9.49277 29.2011 8.83377 28.5418 8.5862 27.686C8.19278 25.4867 7.9961 23.2507 8.00035 21.0157L8.00032 21.0097C7.99102 18.7611 8.1884 16.5222 8.5861 14.3089C8.83392 13.4519 9.4938 12.7942 10.3147 12.5595C10.7603 12.4368 11.6276 12.3278 12.7638 12.2429C13.8743 12.1599 15.1597 12.105 16.3859 12.0688C17.6105 12.0326 18.7677 12.0154 19.6194 12.0073C20.045 12.0032 20.3938 12.0014 20.6359 12.0006C20.7569 12.0002 20.8512 12 20.9151 12L20.9877 12L21.0059 12L21.0104 12L21.0115 12L21.0117 12L21.0134 11ZM21.0134 11V12H21.0117L21.0134 11Z" stroke="#323232" strokeWidth="2"/>
</svg>
