<svg width="24" height="14" viewBox="0 0 24 14" fill="none" xmlns="http://www.w3.org/2000/svg">
<path d="M12 0.50061C9.86214 0.478529 7.75035 1.05614 5.83811 2.18599C3.92588 3.31584 2.26777 4.96569 1 7C2.26777 9.03431 3.92588 10.6842 5.83811 11.814C7.75035 12.9439 9.86214 13.5215 12 13.4994C14.1379 13.5215 16.2497 12.9439 18.1619 11.814C20.0741 10.6842 21.7322 9.03431 23 7C21.7322 4.96569 20.0741 3.31584 18.1619 2.18599C16.2497 1.05614 14.1379 0.478529 12 0.50061Z" stroke="#323232" strokeLinecap="round" strokeLinejoin="round"/>
<path d="M11.9998 10.1431C13.7355 10.1431 15.1426 8.73603 15.1426 7.00028C15.1426 5.26453 13.7355 3.85742 11.9998 3.85742C10.264 3.85742 8.85693 5.26453 8.85693 7.00028C8.85693 8.73603 10.264 10.1431 11.9998 10.1431Z" stroke="#323232" strokeLinecap="round" strokeLinejoin="round"/>
</svg>
