<svg width="49" height="49" viewBox="0 0 49 49" fill="none" xmlns="http://www.w3.org/2000/svg">
<circle cx="24.396" cy="24.5" r="23" stroke="#323232" strokeWidth="2"/>
<path d="M36.396 44V41C36.396 39.4087 35.7639 37.8826 34.6386 36.7574C33.5134 35.6321 31.9873 35 30.396 35H18.396C16.8047 35 15.2786 35.6321 14.1534 36.7574C13.0281 37.8826 12.396 39.4087 12.396 41V44" stroke="#323232" strokeWidth="2" strokeLinecap="round" strokeLinejoin="round"/>
<path d="M24.396 29C27.7097 29 30.396 26.3137 30.396 23C30.396 19.6863 27.7097 17 24.396 17C21.0823 17 18.396 19.6863 18.396 23C18.396 26.3137 21.0823 29 24.396 29Z" stroke="#323232" strokeWidth="2" strokeLinecap="round" strokeLinejoin="round"/>
</svg>
