<svg width="123" height="65" viewBox="0 0 123 65" fill="none" xmlns="http://www.w3.org/2000/svg">
<rect x="5.24297" y="20.2713" width="35.7" height="44.0286" rx="4.3" fill="#F5F5F5" stroke="#323232" strokeWidth="1.4"/>
<rect x="21.9002" y="45.2571" width="2.38572" height="8.44286" rx="1.19286" fill="white" stroke="#323232" strokeWidth="1.4"/>
<rect x="0.378571" y="0.378571" width="0.757143" height="6.05714" rx="0.378571" transform="matrix(-4.37114e-08 1 1 4.37114e-08 15.1426 46.0713)" fill="white" stroke="#323232" strokeWidth="0.757143"/>
<rect x="1.45732" y="18" width="42.5143" height="4.65714" rx="2.32857" fill="#F5F5F5" stroke="#323232" strokeWidth="1.4"/>
<path d="M0.7 27.9C0.7 27.4503 1.06457 27.0857 1.51429 27.0857H4.6V28.7143H1.51429C1.06457 28.7143 0.7 28.3497 0.7 27.9Z" fill="white" stroke="#323232" strokeWidth="1.4"/>
<path d="M45.4855 27.9C45.4855 27.4503 45.121 27.0857 44.6713 27.0857H41.5855V28.7143H44.6713C45.121 28.7143 45.4855 28.3497 45.4855 27.9Z" fill="white" stroke="#323232" strokeWidth="1.4"/>
<line x1="4.54297" y1="56.7287" x2="40.8858" y2="56.7287" stroke="#323232" strokeWidth="1.4"/>
<line x1="4.54297" y1="60.5144" x2="40.8858" y2="60.5144" stroke="#323232" strokeWidth="1.4"/>
<line x1="4.54297" y1="31.7426" x2="40.8858" y2="31.7426" stroke="#323232" strokeWidth="1.4"/>
<path d="M19.6282 16.2715C19.6282 15.5535 20.2103 14.9715 20.9282 14.9715H25.2568C25.9748 14.9715 26.5568 15.5535 26.5568 16.2715V17.3572H19.6282V16.2715Z" stroke="#323232" strokeWidth="1.4"/>
<path d="M9.702 15.3097C9.62392 14.7594 9.90752 14.1994 10.437 13.9508L11.4317 13.4837C11.9612 13.2351 12.5732 13.3745 12.9468 13.7862L9.702 15.3097Z" fill="#323232" stroke="#323232" strokeWidth="1.15885"/>
<line x1="13.0287" y1="17.6602" x2="10.7572" y2="13.8745" stroke="#323232" strokeWidth="1.4"/>
<path d="M36.7843 15.3097C36.8624 14.7594 36.5788 14.1994 36.0493 13.9508L35.0546 13.4837C34.5252 13.2351 33.9132 13.3745 33.5395 13.7862L36.7843 15.3097Z" fill="#323232" stroke="#323232" strokeWidth="1.15885"/>
<line y1="-0.7" x2="4.41486" y2="-0.7" transform="matrix(0.514496 -0.857493 -0.857493 -0.514496 32.8574 17.3)" stroke="#323232" strokeWidth="1.4"/>
<rect x="82.0145" y="20.2713" width="35.7" height="44.0286" rx="4.3" fill="#F5F5F5" stroke="#323232" strokeWidth="1.4"/>
<rect x="98.6717" y="45.2571" width="2.38572" height="8.44286" rx="1.19286" fill="white" stroke="#323232" strokeWidth="1.4"/>
<rect x="0.378571" y="0.378571" width="0.757143" height="6.05714" rx="0.378571" transform="matrix(-4.37114e-08 1 1 4.37114e-08 91.9141 46.0713)" fill="white" stroke="#323232" strokeWidth="0.757143"/>
<rect x="78.2288" y="18" width="42.5143" height="4.65714" rx="2.32857" fill="#F5F5F5" stroke="#323232" strokeWidth="1.4"/>
<path d="M77.4715 27.9C77.4715 27.4503 77.8361 27.0857 78.2858 27.0857H81.3715V28.7143H78.2858C77.8361 28.7143 77.4715 28.3497 77.4715 27.9Z" fill="white" stroke="#323232" strokeWidth="1.4"/>
<path d="M122.257 27.9C122.257 27.4503 121.892 27.0857 121.443 27.0857H118.357V28.7143H121.443C121.892 28.7143 122.257 28.3497 122.257 27.9Z" fill="white" stroke="#323232" strokeWidth="1.4"/>
<line x1="81.3145" y1="56.7287" x2="117.657" y2="56.7287" stroke="#323232" strokeWidth="1.4"/>
<line x1="81.3145" y1="60.5144" x2="117.657" y2="60.5144" stroke="#323232" strokeWidth="1.4"/>
<line x1="81.3145" y1="31.7426" x2="117.657" y2="31.7426" stroke="#323232" strokeWidth="1.4"/>
<path d="M96.3997 16.2715C96.3997 15.5535 96.9817 14.9715 97.6997 14.9715H102.028C102.746 14.9715 103.328 15.5535 103.328 16.2715V17.3572H96.3997V16.2715Z" stroke="#323232" strokeWidth="1.4"/>
<path d="M86.4735 15.3097C86.3954 14.7594 86.679 14.1994 87.2085 13.9508L88.2032 13.4837C88.7327 13.2351 89.3446 13.3745 89.7183 13.7862L86.4735 15.3097Z" fill="#323232" stroke="#323232" strokeWidth="1.15885"/>
<line x1="89.8001" y1="17.6602" x2="87.5287" y2="13.8745" stroke="#323232" strokeWidth="1.4"/>
<path d="M113.556 15.3097C113.634 14.7594 113.35 14.1994 112.821 13.9508L111.826 13.4837C111.297 13.2351 110.685 13.3745 110.311 13.7862L113.556 15.3097Z" fill="#323232" stroke="#323232" strokeWidth="1.15885"/>
<line y1="-0.7" x2="4.41486" y2="-0.7" transform="matrix(0.514496 -0.857493 -0.857493 -0.514496 109.629 17.3)" stroke="#323232" strokeWidth="1.4"/>
<rect x="39.0428" y="9.98564" width="44.1" height="54.3143" rx="4.3" fill="#F5F5F5" stroke="#323232" strokeWidth="1.4"/>
<rect x="59.4715" y="40.6285" width="3.24286" height="10.6714" rx="1.62143" fill="white" stroke="#323232" strokeWidth="1.4"/>
<rect x="0.464286" y="0.464286" width="0.928571" height="7.42857" rx="0.464286" transform="matrix(-4.37114e-08 1 1 4.37114e-08 51.3428 41.7856)" fill="white" stroke="#323232" strokeWidth="0.928571"/>
<rect x="34.4002" y="7.2" width="52.4571" height="6.02857" rx="3.01429" fill="#F5F5F5" stroke="#323232" strokeWidth="1.4"/>
<path d="M33.4715 19.5C33.4715 18.8609 33.9896 18.3428 34.6286 18.3428H38.5715V20.6571H34.6286C33.9896 20.6571 33.4715 20.139 33.4715 19.5Z" fill="white" stroke="#323232" strokeWidth="1.4"/>
<path d="M88.7141 19.5C88.7141 18.8609 88.196 18.3428 87.5569 18.3428H83.6141V20.6571H87.5569C88.196 20.6571 88.7141 20.139 88.7141 19.5Z" fill="white" stroke="#323232" strokeWidth="1.4"/>
<line x1="38.3428" y1="55.0144" x2="82.9142" y2="55.0144" stroke="#323232" strokeWidth="1.4"/>
<line x1="38.3428" y1="59.6572" x2="82.9142" y2="59.6572" stroke="#323232" strokeWidth="1.4"/>
<line x1="38.3428" y1="24.3713" x2="82.9142" y2="24.3713" stroke="#323232" strokeWidth="1.4"/>
<path d="M56.6854 4.78564C56.6854 4.06767 57.2674 3.48564 57.9854 3.48564H64.1996C64.9176 3.48564 65.4996 4.06767 65.4996 4.78564V6.7285H56.6854V4.78564Z" stroke="#323232" strokeWidth="1.4"/>
<path d="M44.47 4.1708C44.1649 3.52091 44.4443 2.74669 45.0942 2.44153L47.1339 1.48378C47.7838 1.17862 48.5581 1.45809 48.8632 2.10798L48.9238 2.23693L44.5306 4.29975L44.47 4.1708Z" fill="#323232" stroke="#323232" strokeWidth="1.4"/>
<line x1="48.8861" y1="6.86015" x2="46.1004" y2="2.21729" stroke="#323232" strokeWidth="1.4"/>
<path d="M78.0847 4.1708C78.3898 3.52091 78.1104 2.74669 77.4605 2.44153L75.4207 1.48378C74.7708 1.17862 73.9966 1.45809 73.6915 2.10798L73.6309 2.23693L78.0241 4.29975L78.0847 4.1708Z" fill="#323232" stroke="#323232" strokeWidth="1.4"/>
<line y1="-0.7" x2="5.41445" y2="-0.7" transform="matrix(0.514496 -0.857493 -0.857493 -0.514496 73.0684 6.5)" stroke="#323232" strokeWidth="1.4"/>
</svg>
