<svg width="76" height="87" viewBox="0 0 76 87" fill="none" xmlns="http://www.w3.org/2000/svg">
<path d="M45.1975 86.6445L39.1811 72.4712L41.6636 71.4176L45.934 81.4759L46.026 81.6926L46.1835 81.5176L52.5088 74.4892L61.9604 74.8218L62.1957 74.83L62.1038 74.6133L58.612 66.3846L61.0944 65.331L66.3325 77.6749L53.7417 77.231L53.6717 77.2285L53.6249 77.2806L45.1975 86.6445Z" fill="#323232" stroke="#F5F5F5" strokeWidth="0.3"/>
<path d="M35.9438 72.0083L30.033 86.6371L21.4441 77.4224L21.3964 77.3712L21.3265 77.3749L8.74584 78.0386L14.3882 64.0685L16.8891 65.0773L12.9207 74.9045L12.8326 75.1228L13.0677 75.1105L22.5113 74.6137L28.9585 81.5287L29.1191 81.7009L29.2073 81.4826L33.4429 70.9995L35.9438 72.0083Z" fill="#323232" stroke="#F5F5F5" strokeWidth="0.3"/>
<mask id="path-3-inside-1_194_887" fill="white">
<path d="M37.5255 75.0525C35.9222 75.0525 34.75 73.832 33.7153 72.7548C33.2565 72.2777 32.4882 71.4771 32.1552 71.4245C32.1537 71.4245 32.1523 71.4245 32.1508 71.4245C31.6781 71.4245 30.8476 71.8694 30.1802 72.2265C29.1287 72.7885 28.0413 73.3709 26.8845 73.3709C26.5514 73.3709 26.2295 73.3212 25.9273 73.2231C24.4133 72.7299 23.6793 71.2138 23.0325 69.8746C22.742 69.2731 22.2554 68.2662 21.9444 68.1068C21.9283 68.0995 21.8112 68.0467 21.4958 68.0467C21.037 68.0467 20.456 68.1506 19.8407 68.2604C19.1272 68.3863 18.3896 68.5179 17.6703 68.5179C16.7739 68.5179 16.0539 68.3117 15.4692 67.8858C14.1908 66.9549 13.961 65.2924 13.759 63.826C13.6668 63.1586 13.5132 62.0435 13.2615 61.7917C13.009 61.54 11.8938 61.3864 11.2272 61.2942C9.76083 61.0923 8.09824 60.8639 7.16748 59.5862C6.23957 58.313 6.53299 56.6636 6.79138 55.209C6.91795 54.5005 7.10824 53.4308 6.9436 53.1073C6.78625 52.8001 5.77787 52.3113 5.1764 52.0214C3.83724 51.3731 2.31886 50.6384 1.82937 49.1237C1.34423 47.6368 2.13157 46.1646 2.82601 44.8679C3.16774 44.2298 3.68432 43.2639 3.62657 42.8952C3.57456 42.5643 2.77406 41.7945 2.29621 41.3351C1.21981 40.3003 0 39.1281 0 37.5255C0 35.9244 1.21982 34.7522 2.29551 33.7189C2.77407 33.2579 3.57458 32.4896 3.62731 32.153C3.68434 31.79 3.16775 30.8256 2.82603 30.1875C2.13087 28.8894 1.34274 27.4171 1.8301 25.9273C2.31746 24.417 3.8344 23.6824 5.1727 23.0354C5.77496 22.7427 6.78254 22.2539 6.94211 21.9437C7.10526 21.6217 6.91503 20.5504 6.78911 19.8421C6.53087 18.3888 6.23745 16.741 7.16386 15.4692C8.09533 14.1901 9.75641 13.9617 11.2213 13.7598C11.9319 13.6617 13.0054 13.5139 13.2578 13.2593C13.5111 13.0075 13.6647 11.8923 13.7569 11.2265C13.9588 9.75855 14.1879 8.09612 15.467 7.16671C16.0524 6.74088 16.7731 6.53308 17.6703 6.53308C18.3896 6.53308 19.1272 6.66478 19.8399 6.79061C20.4545 6.90037 21.0348 7.00435 21.4937 7.00435C21.8082 7.00435 21.9247 6.95304 21.9452 6.94283C22.2524 6.78483 22.7398 5.77788 23.0311 5.17642C23.6779 3.83726 24.4118 2.32116 25.9258 1.82937C26.228 1.73133 26.5507 1.6816 26.8845 1.6816C28.042 1.6816 29.1294 2.26257 30.1802 2.82603C30.8498 3.18454 31.6833 3.62944 32.112 3.62944C32.4874 3.57386 33.2557 2.77479 33.7146 2.29772C34.7493 1.22054 35.9223 0 37.5255 0C39.1288 0 40.301 1.22054 41.3358 2.29623C41.7953 2.77479 42.5643 3.57386 42.8987 3.62659C42.8994 3.62659 42.9009 3.62659 42.9024 3.62659C43.3721 3.62659 44.2012 3.18454 44.8686 2.82753C45.9201 2.264 47.0075 1.68302 48.1651 1.68302C48.5003 1.68302 48.8237 1.73277 49.1273 1.83231C50.64 2.32117 51.3739 3.84026 52.0214 5.17784C52.312 5.77939 52.7986 6.78483 53.108 6.94283C53.1263 6.95304 53.2434 7.00435 53.5595 7.00435C54.0183 7.00435 54.5987 6.90188 55.2134 6.79211C55.926 6.66478 56.6629 6.5345 57.3815 6.5345C58.2793 6.5345 59.0008 6.74238 59.5862 7.1682C60.8631 8.09897 61.093 9.76006 61.2949 11.2265C61.3929 11.9363 61.5414 13.0075 61.7931 13.2608C62.0464 13.5139 63.1623 13.6676 63.8289 13.7598C65.2946 13.9617 66.9564 14.1901 67.8849 15.4692C68.8122 16.7395 68.5202 18.3888 68.2618 19.8435C68.136 20.5518 67.9464 21.6217 68.111 21.9466C68.2699 22.2554 69.2768 22.7427 69.8784 23.034C71.2159 23.6824 72.7322 24.4155 73.2231 25.9288C73.7067 27.4171 72.9201 28.888 72.2257 30.186C71.8839 30.8242 71.3673 31.7886 71.4252 32.1559C71.4779 32.4896 72.2784 33.2579 72.7571 33.7189C73.8327 34.7522 75.0525 35.9244 75.0525 37.5255C75.0525 39.1295 73.832 40.3017 72.7555 41.3379C72.2777 41.796 71.4779 42.5643 71.4252 42.898C71.3673 43.2639 71.8839 44.2298 72.2265 44.8693C72.9201 46.166 73.7067 47.6368 73.2231 49.1266C72.7322 50.64 71.2152 51.3731 69.8768 52.0214C69.2753 52.3113 68.2685 52.7986 68.1096 53.1102C67.9442 53.4338 68.1345 54.5049 68.2604 55.2148C68.5179 56.6666 68.8099 58.3145 67.8843 59.5877C66.9535 60.8667 65.2909 61.0951 63.8231 61.2971C63.1571 61.3878 62.0426 61.543 61.7917 61.7931C61.5386 62.0464 61.3841 63.163 61.2919 63.8289C61.09 65.2954 60.861 66.9549 59.5856 67.8858C58.9979 68.3131 58.2786 68.5195 57.3829 68.5195C56.6629 68.5195 55.9246 68.3877 55.2104 68.2604C54.5957 68.1506 54.0147 68.0467 53.556 68.0467C53.242 68.0467 53.1263 68.0979 53.1059 68.1082C52.7978 68.2662 52.3097 69.2731 52.0186 69.8761C51.3708 71.2138 50.637 72.7299 49.123 73.2231C48.8207 73.3212 48.4987 73.3709 48.1651 73.3709C47.009 73.3709 45.9223 72.7885 44.8715 72.2265C44.202 71.868 43.3692 71.4216 42.9419 71.4216C42.5614 71.4771 41.7916 72.2791 41.332 72.7576C40.2981 73.8334 39.1273 75.0525 37.5255 75.0525ZM32.1106 68.4243C32.2839 68.4243 32.4544 68.4389 32.6221 68.4653C33.9509 68.6731 34.93 69.6932 35.8769 70.6782C36.3057 71.1259 37.1991 72.0553 37.5255 72.0553C37.8504 72.0553 38.7424 71.1273 39.1705 70.681C40.1188 69.6946 41.0987 68.6731 42.4311 68.4653C43.7307 68.2634 45.0647 68.9307 46.286 69.5834C46.9431 69.9361 47.7604 70.3737 48.1651 70.3737C48.4995 70.2654 49.0541 69.1209 49.3205 68.5707C49.9191 67.3355 50.5375 66.0564 51.7419 65.4387C52.7846 64.909 54.3213 65.0583 55.7365 65.31C56.349 65.4183 56.9278 65.5222 57.3829 65.5222C57.7225 65.5222 57.822 65.4622 57.8234 65.4622C58.0686 65.2616 58.234 64.0631 58.3233 63.4191C58.5033 62.1151 58.7075 60.637 59.6741 59.6726C60.6356 58.7096 62.1123 58.5077 63.414 58.3276C64.0587 58.2384 65.2581 58.0745 65.4614 57.8228C65.6305 57.5506 65.4213 56.3709 65.3092 55.7373C65.0787 54.4391 64.8176 52.9669 65.4402 51.7477C66.0564 50.5404 67.3347 49.9199 68.5714 49.3228C69.1209 49.0564 70.2647 48.5032 70.3723 48.2003C70.4425 47.8885 69.8834 46.8436 69.5834 46.2831C68.9593 45.1167 68.2508 43.7937 68.4646 42.4327C68.6753 41.1008 69.6939 40.1217 70.6789 39.1748C71.1252 38.7461 72.0553 37.8518 72.0553 37.5255C72.0553 37.2007 71.1266 36.3079 70.6803 35.8791C69.6946 34.9307 68.6753 33.9531 68.4646 32.6243C68.2508 31.2603 68.9585 29.9373 69.5834 28.7709C69.8834 28.2103 70.4425 27.1654 70.3715 26.8522C70.264 26.5507 69.1216 25.9976 68.5721 25.7312C67.3361 25.1341 66.0586 24.515 65.4424 23.3106C64.8197 22.0885 65.0803 20.6177 65.3107 19.3196C65.4234 18.6859 65.6327 17.5064 65.4607 17.2312C65.2558 16.9824 64.061 16.8171 63.4191 16.7277C62.1158 16.5492 60.6378 16.3443 59.6734 15.3784C58.7096 14.4154 58.5063 12.9388 58.3262 11.6362C58.2369 10.9924 58.0715 9.79372 57.8213 9.59177C57.8205 9.59177 57.7202 9.53174 57.3815 9.53174C56.927 9.53174 56.349 9.63421 55.7373 9.74397C54.3227 9.99565 52.7818 10.142 51.7449 9.6122C50.5382 8.99465 49.9205 7.71853 49.3228 6.48326C49.0571 5.93303 48.5032 4.78853 48.2003 4.68177C48.1995 4.68177 48.1981 4.68177 48.1973 4.68177C47.7546 4.68177 46.9387 5.11931 46.2824 5.47054C45.0618 6.12182 43.733 6.79355 42.4319 6.58867C41.1008 6.37793 40.1217 5.35935 39.1748 4.37291C38.7454 3.92658 37.8518 2.99724 37.5255 2.99724C37.1991 2.99724 36.305 3.92801 35.8761 4.37291C34.9293 5.35935 33.9509 6.37793 32.6236 6.58867C31.2961 6.79355 29.9855 6.12182 28.7665 5.46768C28.1087 5.11638 27.2906 4.67877 26.8845 4.67877C26.5478 4.78853 25.9947 5.93303 25.729 6.48184C25.1311 7.71702 24.5136 8.99465 23.3083 9.6122C22.2671 10.142 20.7297 9.9928 19.316 9.74255C18.7035 9.63279 18.1254 9.53031 17.6703 9.53031C17.33 9.53031 17.2298 9.59034 17.2291 9.59177C16.9802 9.79372 16.8149 10.9909 16.7256 11.6348C16.5463 12.9388 16.3429 14.4154 15.3777 15.3784C14.4147 16.3443 12.9358 16.5492 11.6312 16.7277C10.9873 16.8185 9.7893 16.9824 9.58593 17.2341C9.41764 17.5049 9.62765 18.6845 9.74027 19.3182C9.9708 20.6163 10.2328 22.0871 9.61151 23.3062C8.99253 24.5136 7.71482 25.1341 6.47964 25.7312C5.93161 25.9976 4.79004 26.5507 4.68106 26.8537C4.61004 27.1698 5.16835 28.2133 5.46841 28.7724C6.09254 29.9388 6.80085 31.2603 6.5879 32.6199C6.37724 33.9531 5.35793 34.9307 4.37222 35.8791C3.92589 36.3079 2.99725 37.2007 2.99725 37.5255C2.99725 37.8518 3.92659 38.7446 4.37293 39.1748C5.35865 40.1202 6.37724 41.1008 6.5879 42.4297C6.80085 43.7937 6.09325 45.1153 5.46913 46.2816C5.16835 46.8436 4.60932 47.8871 4.68027 48.2018C4.79004 48.5032 5.93232 49.0564 6.48114 49.3228C7.71703 49.9199 8.99538 50.5375 9.613 51.7433C10.235 52.9669 9.97374 54.4362 9.74257 55.7358C9.6298 56.368 9.41985 57.5476 9.59035 57.8228C9.79229 58.0715 10.9916 58.2369 11.6362 58.3262C12.9388 58.5047 14.4155 58.7081 15.3799 59.6726C16.3443 60.6356 16.5478 62.1137 16.7278 63.4163C16.8171 64.0601 16.9824 65.2602 17.2334 65.4636C17.2348 65.4636 17.3366 65.5208 17.6703 65.5208C18.1247 65.5208 18.7035 65.4183 19.316 65.3085C20.7334 65.0583 22.2715 64.909 23.3091 65.4387C24.5165 66.0579 25.1341 67.3355 25.7313 68.5707C25.9968 69.1209 26.55 70.2654 26.8538 70.3737C26.8545 70.3737 26.8545 70.3737 26.8552 70.3737C27.2913 70.3737 28.1094 69.9347 28.7665 69.5834C29.8312 69.0141 30.9317 68.4243 32.1106 68.4243Z"/>
</mask>
<path d="M37.5255 75.0525C35.9222 75.0525 34.75 73.832 33.7153 72.7548C33.2565 72.2777 32.4882 71.4771 32.1552 71.4245C32.1537 71.4245 32.1523 71.4245 32.1508 71.4245C31.6781 71.4245 30.8476 71.8694 30.1802 72.2265C29.1287 72.7885 28.0413 73.3709 26.8845 73.3709C26.5514 73.3709 26.2295 73.3212 25.9273 73.2231C24.4133 72.7299 23.6793 71.2138 23.0325 69.8746C22.742 69.2731 22.2554 68.2662 21.9444 68.1068C21.9283 68.0995 21.8112 68.0467 21.4958 68.0467C21.037 68.0467 20.456 68.1506 19.8407 68.2604C19.1272 68.3863 18.3896 68.5179 17.6703 68.5179C16.7739 68.5179 16.0539 68.3117 15.4692 67.8858C14.1908 66.9549 13.961 65.2924 13.759 63.826C13.6668 63.1586 13.5132 62.0435 13.2615 61.7917C13.009 61.54 11.8938 61.3864 11.2272 61.2942C9.76083 61.0923 8.09824 60.8639 7.16748 59.5862C6.23957 58.313 6.53299 56.6636 6.79138 55.209C6.91795 54.5005 7.10824 53.4308 6.9436 53.1073C6.78625 52.8001 5.77787 52.3113 5.1764 52.0214C3.83724 51.3731 2.31886 50.6384 1.82937 49.1237C1.34423 47.6368 2.13157 46.1646 2.82601 44.8679C3.16774 44.2298 3.68432 43.2639 3.62657 42.8952C3.57456 42.5643 2.77406 41.7945 2.29621 41.3351C1.21981 40.3003 0 39.1281 0 37.5255C0 35.9244 1.21982 34.7522 2.29551 33.7189C2.77407 33.2579 3.57458 32.4896 3.62731 32.153C3.68434 31.79 3.16775 30.8256 2.82603 30.1875C2.13087 28.8894 1.34274 27.4171 1.8301 25.9273C2.31746 24.417 3.8344 23.6824 5.1727 23.0354C5.77496 22.7427 6.78254 22.2539 6.94211 21.9437C7.10526 21.6217 6.91503 20.5504 6.78911 19.8421C6.53087 18.3888 6.23745 16.741 7.16386 15.4692C8.09533 14.1901 9.75641 13.9617 11.2213 13.7598C11.9319 13.6617 13.0054 13.5139 13.2578 13.2593C13.5111 13.0075 13.6647 11.8923 13.7569 11.2265C13.9588 9.75855 14.1879 8.09612 15.467 7.16671C16.0524 6.74088 16.7731 6.53308 17.6703 6.53308C18.3896 6.53308 19.1272 6.66478 19.8399 6.79061C20.4545 6.90037 21.0348 7.00435 21.4937 7.00435C21.8082 7.00435 21.9247 6.95304 21.9452 6.94283C22.2524 6.78483 22.7398 5.77788 23.0311 5.17642C23.6779 3.83726 24.4118 2.32116 25.9258 1.82937C26.228 1.73133 26.5507 1.6816 26.8845 1.6816C28.042 1.6816 29.1294 2.26257 30.1802 2.82603C30.8498 3.18454 31.6833 3.62944 32.112 3.62944C32.4874 3.57386 33.2557 2.77479 33.7146 2.29772C34.7493 1.22054 35.9223 0 37.5255 0C39.1288 0 40.301 1.22054 41.3358 2.29623C41.7953 2.77479 42.5643 3.57386 42.8987 3.62659C42.8994 3.62659 42.9009 3.62659 42.9024 3.62659C43.3721 3.62659 44.2012 3.18454 44.8686 2.82753C45.9201 2.264 47.0075 1.68302 48.1651 1.68302C48.5003 1.68302 48.8237 1.73277 49.1273 1.83231C50.64 2.32117 51.3739 3.84026 52.0214 5.17784C52.312 5.77939 52.7986 6.78483 53.108 6.94283C53.1263 6.95304 53.2434 7.00435 53.5595 7.00435C54.0183 7.00435 54.5987 6.90188 55.2134 6.79211C55.926 6.66478 56.6629 6.5345 57.3815 6.5345C58.2793 6.5345 59.0008 6.74238 59.5862 7.1682C60.8631 8.09897 61.093 9.76006 61.2949 11.2265C61.3929 11.9363 61.5414 13.0075 61.7931 13.2608C62.0464 13.5139 63.1623 13.6676 63.8289 13.7598C65.2946 13.9617 66.9564 14.1901 67.8849 15.4692C68.8122 16.7395 68.5202 18.3888 68.2618 19.8435C68.136 20.5518 67.9464 21.6217 68.111 21.9466C68.2699 22.2554 69.2768 22.7427 69.8784 23.034C71.2159 23.6824 72.7322 24.4155 73.2231 25.9288C73.7067 27.4171 72.9201 28.888 72.2257 30.186C71.8839 30.8242 71.3673 31.7886 71.4252 32.1559C71.4779 32.4896 72.2784 33.2579 72.7571 33.7189C73.8327 34.7522 75.0525 35.9244 75.0525 37.5255C75.0525 39.1295 73.832 40.3017 72.7555 41.3379C72.2777 41.796 71.4779 42.5643 71.4252 42.898C71.3673 43.2639 71.8839 44.2298 72.2265 44.8693C72.9201 46.166 73.7067 47.6368 73.2231 49.1266C72.7322 50.64 71.2152 51.3731 69.8768 52.0214C69.2753 52.3113 68.2685 52.7986 68.1096 53.1102C67.9442 53.4338 68.1345 54.5049 68.2604 55.2148C68.5179 56.6666 68.8099 58.3145 67.8843 59.5877C66.9535 60.8667 65.2909 61.0951 63.8231 61.2971C63.1571 61.3878 62.0426 61.543 61.7917 61.7931C61.5386 62.0464 61.3841 63.163 61.2919 63.8289C61.09 65.2954 60.861 66.9549 59.5856 67.8858C58.9979 68.3131 58.2786 68.5195 57.3829 68.5195C56.6629 68.5195 55.9246 68.3877 55.2104 68.2604C54.5957 68.1506 54.0147 68.0467 53.556 68.0467C53.242 68.0467 53.1263 68.0979 53.1059 68.1082C52.7978 68.2662 52.3097 69.2731 52.0186 69.8761C51.3708 71.2138 50.637 72.7299 49.123 73.2231C48.8207 73.3212 48.4987 73.3709 48.1651 73.3709C47.009 73.3709 45.9223 72.7885 44.8715 72.2265C44.202 71.868 43.3692 71.4216 42.9419 71.4216C42.5614 71.4771 41.7916 72.2791 41.332 72.7576C40.2981 73.8334 39.1273 75.0525 37.5255 75.0525ZM32.1106 68.4243C32.2839 68.4243 32.4544 68.4389 32.6221 68.4653C33.9509 68.6731 34.93 69.6932 35.8769 70.6782C36.3057 71.1259 37.1991 72.0553 37.5255 72.0553C37.8504 72.0553 38.7424 71.1273 39.1705 70.681C40.1188 69.6946 41.0987 68.6731 42.4311 68.4653C43.7307 68.2634 45.0647 68.9307 46.286 69.5834C46.9431 69.9361 47.7604 70.3737 48.1651 70.3737C48.4995 70.2654 49.0541 69.1209 49.3205 68.5707C49.9191 67.3355 50.5375 66.0564 51.7419 65.4387C52.7846 64.909 54.3213 65.0583 55.7365 65.31C56.349 65.4183 56.9278 65.5222 57.3829 65.5222C57.7225 65.5222 57.822 65.4622 57.8234 65.4622C58.0686 65.2616 58.234 64.0631 58.3233 63.4191C58.5033 62.1151 58.7075 60.637 59.6741 59.6726C60.6356 58.7096 62.1123 58.5077 63.414 58.3276C64.0587 58.2384 65.2581 58.0745 65.4614 57.8228C65.6305 57.5506 65.4213 56.3709 65.3092 55.7373C65.0787 54.4391 64.8176 52.9669 65.4402 51.7477C66.0564 50.5404 67.3347 49.9199 68.5714 49.3228C69.1209 49.0564 70.2647 48.5032 70.3723 48.2003C70.4425 47.8885 69.8834 46.8436 69.5834 46.2831C68.9593 45.1167 68.2508 43.7937 68.4646 42.4327C68.6753 41.1008 69.6939 40.1217 70.6789 39.1748C71.1252 38.7461 72.0553 37.8518 72.0553 37.5255C72.0553 37.2007 71.1266 36.3079 70.6803 35.8791C69.6946 34.9307 68.6753 33.9531 68.4646 32.6243C68.2508 31.2603 68.9585 29.9373 69.5834 28.7709C69.8834 28.2103 70.4425 27.1654 70.3715 26.8522C70.264 26.5507 69.1216 25.9976 68.5721 25.7312C67.3361 25.1341 66.0586 24.515 65.4424 23.3106C64.8197 22.0885 65.0803 20.6177 65.3107 19.3196C65.4234 18.6859 65.6327 17.5064 65.4607 17.2312C65.2558 16.9824 64.061 16.8171 63.4191 16.7277C62.1158 16.5492 60.6378 16.3443 59.6734 15.3784C58.7096 14.4154 58.5063 12.9388 58.3262 11.6362C58.2369 10.9924 58.0715 9.79372 57.8213 9.59177C57.8205 9.59177 57.7202 9.53174 57.3815 9.53174C56.927 9.53174 56.349 9.63421 55.7373 9.74397C54.3227 9.99565 52.7818 10.142 51.7449 9.6122C50.5382 8.99465 49.9205 7.71853 49.3228 6.48326C49.0571 5.93303 48.5032 4.78853 48.2003 4.68177C48.1995 4.68177 48.1981 4.68177 48.1973 4.68177C47.7546 4.68177 46.9387 5.11931 46.2824 5.47054C45.0618 6.12182 43.733 6.79355 42.4319 6.58867C41.1008 6.37793 40.1217 5.35935 39.1748 4.37291C38.7454 3.92658 37.8518 2.99724 37.5255 2.99724C37.1991 2.99724 36.305 3.92801 35.8761 4.37291C34.9293 5.35935 33.9509 6.37793 32.6236 6.58867C31.2961 6.79355 29.9855 6.12182 28.7665 5.46768C28.1087 5.11638 27.2906 4.67877 26.8845 4.67877C26.5478 4.78853 25.9947 5.93303 25.729 6.48184C25.1311 7.71702 24.5136 8.99465 23.3083 9.6122C22.2671 10.142 20.7297 9.9928 19.316 9.74255C18.7035 9.63279 18.1254 9.53031 17.6703 9.53031C17.33 9.53031 17.2298 9.59034 17.2291 9.59177C16.9802 9.79372 16.8149 10.9909 16.7256 11.6348C16.5463 12.9388 16.3429 14.4154 15.3777 15.3784C14.4147 16.3443 12.9358 16.5492 11.6312 16.7277C10.9873 16.8185 9.7893 16.9824 9.58593 17.2341C9.41764 17.5049 9.62765 18.6845 9.74027 19.3182C9.9708 20.6163 10.2328 22.0871 9.61151 23.3062C8.99253 24.5136 7.71482 25.1341 6.47964 25.7312C5.93161 25.9976 4.79004 26.5507 4.68106 26.8537C4.61004 27.1698 5.16835 28.2133 5.46841 28.7724C6.09254 29.9388 6.80085 31.2603 6.5879 32.6199C6.37724 33.9531 5.35793 34.9307 4.37222 35.8791C3.92589 36.3079 2.99725 37.2007 2.99725 37.5255C2.99725 37.8518 3.92659 38.7446 4.37293 39.1748C5.35865 40.1202 6.37724 41.1008 6.5879 42.4297C6.80085 43.7937 6.09325 45.1153 5.46913 46.2816C5.16835 46.8436 4.60932 47.8871 4.68027 48.2018C4.79004 48.5032 5.93232 49.0564 6.48114 49.3228C7.71703 49.9199 8.99538 50.5375 9.613 51.7433C10.235 52.9669 9.97374 54.4362 9.74257 55.7358C9.6298 56.368 9.41985 57.5476 9.59035 57.8228C9.79229 58.0715 10.9916 58.2369 11.6362 58.3262C12.9388 58.5047 14.4155 58.7081 15.3799 59.6726C16.3443 60.6356 16.5478 62.1137 16.7278 63.4163C16.8171 64.0601 16.9824 65.2602 17.2334 65.4636C17.2348 65.4636 17.3366 65.5208 17.6703 65.5208C18.1247 65.5208 18.7035 65.4183 19.316 65.3085C20.7334 65.0583 22.2715 64.909 23.3091 65.4387C24.5165 66.0579 25.1341 67.3355 25.7313 68.5707C25.9968 69.1209 26.55 70.2654 26.8538 70.3737C26.8545 70.3737 26.8545 70.3737 26.8552 70.3737C27.2913 70.3737 28.1094 69.9347 28.7665 69.5834C29.8312 69.0141 30.9317 68.4243 32.1106 68.4243Z" fill="#323232" stroke="#F5F5F5" strokeWidth="0.6" mask="url(#path-3-inside-1_194_887)"/>
<path d="M37.5258 52.4776C29.9898 52.4776 23.8399 45.8672 23.8399 37.7188C23.8399 29.5705 29.9898 22.9603 37.5258 22.9603C45.0626 22.9603 51.2132 29.5706 51.2132 37.7188C51.2132 45.8672 45.0626 52.4776 37.5258 52.4776ZM37.5258 25.6575C31.4538 25.6575 26.5372 31.0815 26.5372 37.7188C26.5372 44.3563 31.4538 49.7803 37.5258 49.7803C43.5986 49.7803 48.5159 44.3563 48.5159 37.7188C48.5159 31.0815 43.5986 25.6575 37.5258 25.6575Z" fill="#323232" stroke="#F5F5F5" strokeWidth="0.3"/>
<path d="M47.2733 52.2371L47.2733 52.2371L39.4333 44.3987C39.4333 44.3987 39.4333 44.3987 39.4333 44.3987C38.9065 43.8719 38.9065 43.0185 39.4333 42.4916C39.9601 41.9648 40.8136 41.9648 41.3404 42.4916L41.3404 42.4917L49.1804 50.3301C49.1804 50.3301 49.1804 50.3301 49.1804 50.3301C49.7072 50.8569 49.7072 51.7103 49.1804 52.2371C48.9169 52.5006 48.572 52.6323 48.2268 52.6323C47.8816 52.6323 47.5368 52.5006 47.2733 52.2371Z" fill="#323232" stroke="#F5F5F5" strokeWidth="0.3"/>
</svg>
