<svg width="113" height="87" viewBox="0 0 113 87" fill="none" xmlns="http://www.w3.org/2000/svg">
<path d="M26.2323 80.1315H14.99C14.6842 80.1315 14.3909 80.0109 14.1746 79.7963C13.9584 79.5816 13.8369 79.2904 13.8369 78.9868V21.75C13.8369 21.4464 13.9584 21.1552 14.1746 20.9405C14.3909 20.7258 14.6842 20.6052 14.99 20.6052H26.5206V22.8947H16.143V77.8421H26.2323V80.1315Z" fill="#323232"/>
<path d="M33.4386 86.9999C31.8422 86.9999 30.2817 86.53 28.9544 85.6495C27.627 84.769 26.5925 83.5175 25.9816 82.0533C25.3707 80.5891 25.2108 78.9779 25.5223 77.4235C25.8337 75.8691 26.6024 74.4413 27.7313 73.3206C28.8601 72.2 30.2983 71.4368 31.864 71.1276C33.4297 70.8184 35.0526 70.9771 36.5274 71.5836C38.0023 72.1901 39.2629 73.2172 40.1498 74.5349C41.0367 75.8527 41.5101 77.4019 41.5101 78.9868C41.5101 81.112 40.6597 83.1502 39.146 84.6529C37.6323 86.1557 35.5793 86.9999 33.4386 86.9999ZM33.4386 73.2631C32.2984 73.2631 31.1837 73.5988 30.2356 74.2277C29.2875 74.8566 28.5485 75.7506 28.1122 76.7964C27.6758 77.8423 27.5616 78.9931 27.7841 80.1034C28.0065 81.2137 28.5556 82.2336 29.3619 83.0341C30.1682 83.8345 31.1955 84.3796 32.3139 84.6005C33.4322 84.8213 34.5914 84.708 35.6449 84.2748C36.6984 83.8416 37.5988 83.108 38.2323 82.1667C38.8658 81.2254 39.2039 80.1188 39.2039 78.9868C39.2039 77.4688 38.5965 76.0129 37.5153 74.9395C36.4341 73.8661 34.9677 73.2631 33.4386 73.2631Z" fill="#323232"/>
<path d="M47.2754 43.5C42.9423 43.5 38.7066 42.2244 35.1038 39.8345C31.5011 37.4445 28.693 34.0477 27.0349 30.0734C25.3767 26.0991 24.9428 21.7259 25.7882 17.5068C26.6335 13.2877 28.72 9.41223 31.784 6.37044C34.8479 3.32865 38.7515 1.25716 43.0013 0.41793C47.2511 -0.421299 51.6561 0.00942388 55.6593 1.65563C59.6625 3.30184 63.084 6.08959 65.4913 9.66636C67.8986 13.2431 69.1835 17.4483 69.1835 21.75C69.1835 27.5185 66.8754 33.0507 62.7668 37.1296C58.6582 41.2085 53.0858 43.5 47.2754 43.5ZM47.2754 2.28948C43.3984 2.28948 39.6086 3.43082 36.3851 5.56917C33.1615 7.70752 30.6491 10.7468 29.1654 14.3028C27.6818 17.8587 27.2936 21.7716 28.05 25.5466C28.8063 29.3215 30.6732 32.7891 33.4146 35.5107C36.156 38.2323 39.6488 40.0857 43.4512 40.8366C47.2536 41.5875 51.1949 41.2021 54.7767 39.7292C58.3586 38.2563 61.42 35.762 63.5739 32.5617C65.7278 29.3614 66.8774 25.5989 66.8774 21.75C66.8774 16.5888 64.8122 11.6389 61.1361 7.98934C57.46 4.33978 52.4742 2.28948 47.2754 2.28948Z" fill="#323232"/>
<path d="M23.0613 51.5132H4.6123V53.8027H23.0613V51.5132Z" fill="#323232"/>
<path d="M87.6325 77.842H79.561V80.1315H87.6325V77.842Z" fill="#323232"/>
<path d="M111.847 80.1315H101.469V77.842H110.694V61.0029L98.5404 42.3551H79.561V40.0657H99.1631C99.356 40.066 99.5458 40.1144 99.715 40.2064C99.8842 40.2984 100.027 40.431 100.132 40.5923L112.815 60.0528C112.935 60.237 112.999 60.4516 113 60.6709V78.9867C113 79.2903 112.878 79.5815 112.662 79.7962C112.446 80.0109 112.153 80.1315 111.847 80.1315Z" fill="#323232"/>
<path d="M79.5613 80.1315H40.6455V77.8421H78.4083V22.8947H68.0307V20.6052H79.5613C79.8671 20.6052 80.1604 20.7258 80.3767 20.9405C80.5929 21.1552 80.7144 21.4464 80.7144 21.75V78.9868C80.7144 79.2904 80.5929 79.5816 80.3767 79.7963C80.1604 80.0109 79.8671 80.1315 79.5613 80.1315Z" fill="#323232"/>
<path d="M94.5509 86.9999C92.9545 86.9999 91.394 86.53 90.0667 85.6495C88.7393 84.769 87.7048 83.5175 87.0939 82.0533C86.483 80.5891 86.3231 78.9779 86.6346 77.4235C86.946 75.8691 87.7148 74.4413 88.8436 73.3206C89.9724 72.2 91.4106 71.4368 92.9763 71.1276C94.542 70.8184 96.1649 70.9771 97.6397 71.5836C99.1146 72.1901 100.375 73.2172 101.262 74.5349C102.149 75.8527 102.622 77.4019 102.622 78.9868C102.622 81.112 101.772 83.1502 100.258 84.6529C98.7446 86.1557 96.6916 86.9999 94.5509 86.9999ZM94.5509 73.2631C93.4107 73.2631 92.296 73.5988 91.3479 74.2277C90.3998 74.8566 89.6608 75.7506 89.2245 76.7964C88.7881 77.8423 88.6739 78.9931 88.8964 80.1034C89.1189 81.2137 89.6679 82.2336 90.4742 83.0341C91.2805 83.8345 92.3078 84.3796 93.4262 84.6005C94.5445 84.8213 95.7037 84.708 96.7572 84.2748C97.8107 83.8416 98.7111 83.108 99.3446 82.1667C99.9781 81.2254 100.316 80.1188 100.316 78.9868C100.316 77.4688 99.7088 76.0129 98.6276 74.9395C97.5464 73.8661 96.08 73.2631 94.5509 73.2631Z" fill="#323232"/>
<path d="M103.775 61.8159H87.6326C87.3267 61.8159 87.0335 61.6953 86.8172 61.4807C86.601 61.266 86.4795 60.9748 86.4795 60.6712V49.2238C86.4795 48.9202 86.601 48.6291 86.8172 48.4144C87.0335 48.1997 87.3267 48.0791 87.6326 48.0791H96.857C97.0572 48.0791 97.2538 48.1309 97.4277 48.2292C97.6015 48.3276 97.7466 48.4691 97.8487 48.64L104.767 60.0874C104.871 60.2612 104.926 60.4592 104.928 60.6612C104.93 60.8633 104.878 61.0622 104.777 61.2377C104.676 61.4133 104.531 61.5593 104.355 61.6608C104.179 61.7624 103.979 61.8159 103.775 61.8159ZM88.7856 59.5265H101.734L96.1998 50.3686H88.7856V59.5265Z" fill="#323232"/>
<path d="M54.194 23.4901H47.2756C46.9698 23.4901 46.6765 23.3695 46.4603 23.1548C46.244 22.9401 46.1226 22.649 46.1226 22.3454V12.0427H48.4287V21.2006H54.194V23.4901Z" fill="#323232"/>
<path d="M23.0612 40.0657H0V42.3551H23.0612V40.0657Z" fill="#323232"/>
<path d="M23.0613 28.6184H4.6123V30.9079H23.0613V28.6184Z" fill="#323232"/>
</svg>
