<svg width="90" height="73" viewBox="0 0 90 73" fill="none" xmlns="http://www.w3.org/2000/svg">
<path d="M1.616 72H38.1438H88.384C88.7231 72 89 71.7234 89 71.379V32.4323C89 32.0906 88.7257 31.8114 88.384 31.8114H84.9882V1.62098C84.9882 1.27918 84.7113 1 84.3722 1H69.2647C68.9257 1 68.6487 1.27657 68.6487 1.62098V31.8114H57.9075V1.62098C57.9075 1.27918 57.6332 1 57.2915 1H42.1866C41.8475 1 41.5706 1.27657 41.5706 1.62098V31.8114H38.7598V13.67C38.7598 13.3282 38.4828 13.049 38.1438 13.049H1.616C1.27694 13.049 1 13.3256 1 13.6674V71.379C1 71.7234 1.27694 72 1.616 72ZM83.7588 16.4044H69.8833V14.2884H83.7588V16.4044ZM83.7588 13.049H69.8833V6.84709H83.7588V13.049ZM69.8833 17.6463H83.7588V24.1066H69.8833V17.6463ZM83.7588 2.24195V5.60514H69.8833V2.24195H83.7588ZM69.8833 25.3485H83.7588V31.8088H69.8833V25.3485ZM56.6781 16.4044H42.8026V14.2884H56.6781V16.4044ZM56.6781 13.049H42.8026V6.84709H56.6781V13.049ZM42.8026 17.6463H56.6781V24.1066H42.8026V17.6463ZM56.6781 2.24195V5.60514H42.8026V2.24195H56.6781ZM42.8026 25.3485H56.6781V31.8088H42.8026V25.3485ZM42.1866 33.0533H57.2915H69.2647H84.3722H87.768V70.7581H38.7598V33.0533H42.1866ZM2.232 14.2884H37.5278V32.4297V70.7581H2.232V14.2884Z" fill="#323232" stroke="#323232" strokeWidth="0.5"/>
<path d="M33.2287 18.7085H6.53104C6.19198 18.7085 5.91504 18.9877 5.91504 19.3295V66.4297C5.91504 66.7715 6.19198 67.0507 6.53104 67.0507H33.2287C33.5677 67.0507 33.8447 66.7715 33.8447 66.4297V19.3269C33.8447 18.9851 33.5703 18.7085 33.2287 18.7085ZM19.2652 42.2586H7.14704V31.9916H19.2652V42.2586ZM20.4972 31.989H32.6153V42.256H20.4972V31.989ZM7.14704 43.498H19.2652V53.765H7.14704V43.498ZM20.4972 43.498H32.6153V53.765H20.4972V43.498ZM32.6127 30.7471H20.4946V19.9478H32.6127V30.7471ZM19.2652 19.9478V30.7471H7.14704V19.9478H19.2652ZM7.14704 55.0095H19.2652V65.8088H7.14704V55.0095ZM20.4972 65.8088V55.0095H32.6153V65.8088H20.4972Z" fill="#323232" stroke="#323232" strokeWidth="0.5"/>
<path d="M43.0667 67.0508H57.2942C57.6333 67.0508 57.9102 66.7716 57.9102 66.4298V35.9733C57.9102 35.6315 57.6359 35.3523 57.2942 35.3523H43.0667C42.7276 35.3523 42.4507 35.6315 42.4507 35.9733V66.4298C42.4507 66.7716 42.725 67.0508 43.0667 67.0508ZM50.7952 51.8212H56.6782V58.0231H50.7952V51.8212ZM49.5632 58.0231H43.6801V51.8212H49.5632V58.0231ZM56.6782 50.5793H50.7952V44.3799H56.6782V50.5793ZM49.5632 50.5793H43.6801V44.3799H49.5632V50.5793ZM43.6827 59.2651H49.5657V65.8088H43.6827V59.2651ZM50.7952 65.8088V59.2651H56.6782V65.8088H50.7952ZM56.6782 43.138H50.7952V36.5942H56.6782V43.138ZM49.5632 36.5942V43.138H43.6801V36.5942H49.5632Z" fill="#323232" stroke="#323232" strokeWidth="0.5"/>
<path d="M69.2674 67.0508H84.3749C84.714 67.0508 84.9909 66.7716 84.9909 66.4298V35.9733C84.9909 35.6315 84.714 35.3523 84.3749 35.3523H69.2674C68.9283 35.3523 68.6514 35.6315 68.6514 35.9733V66.4298C68.6514 66.7716 68.9283 67.0508 69.2674 67.0508ZM77.4358 51.8212H83.7563V58.0231H77.4358V51.8212ZM76.2038 58.0231H69.8834V51.8212H76.2038V58.0231ZM83.7589 50.5793H77.4384V44.3799H83.7589V50.5793ZM76.2038 50.5793H69.8834V44.3799H76.2038V50.5793ZM69.8834 59.2651H76.2038V65.8088H69.8834V59.2651ZM77.4358 65.8088V59.2651H83.7563V65.8088H77.4358ZM83.7589 43.138H77.4384V36.5942H83.7589V43.138ZM76.2038 36.5942V43.138H69.8834V36.5942H76.2038Z" fill="#323232" stroke="#323232" strokeWidth="0.5"/>
</svg>
