<svg width="76" height="84" viewBox="0 0 76 84" fill="none" xmlns="http://www.w3.org/2000/svg">
<path d="M74.187 6.0203H60.1278L42.7947 0.36532C41.7539 0.0247455 40.6502 -0.0795048 39.564 0.0601544C38.4778 0.199814 37.4364 0.579869 36.5156 1.17267L26.0716 7.88218C25.9589 7.95446 25.8616 8.04822 25.7852 8.15812C25.7087 8.26801 25.6547 8.39189 25.6261 8.52267C25.5975 8.65345 25.595 8.78858 25.6187 8.92034C25.6423 9.0521 25.6917 9.17792 25.764 9.29059C25.8362 9.40327 25.93 9.50061 26.0399 9.57705C26.1498 9.65349 26.2737 9.70754 26.4045 9.73611C26.5352 9.76467 26.6704 9.7672 26.8021 9.74355C26.9339 9.71989 27.0597 9.67052 27.1724 9.59824L37.6163 2.89762C38.2833 2.46928 39.0375 2.19528 39.8238 2.0956C40.6102 1.99592 41.4089 2.07308 42.1616 2.32145L59.6548 8.012C59.7563 8.04538 59.8626 8.0622 59.9695 8.06179H73.1698V25.1886H65.5854C65.3985 25.1888 65.2153 25.2403 65.0557 25.3375C64.896 25.4347 64.7662 25.5739 64.6802 25.7398C63.5378 27.6723 61.793 29.1766 59.7134 30.022V25.4393C61.3477 24.7422 63.0922 23.5294 64.2054 21.415C64.2681 21.2964 64.3068 21.1666 64.3194 21.033C64.3319 20.8994 64.318 20.7646 64.2785 20.6364C64.2389 20.5082 64.1745 20.389 64.0889 20.2857C64.0033 20.1823 63.8982 20.0969 63.7795 20.0342C63.6609 19.9715 63.5311 19.9328 63.3975 19.9202C63.2639 19.9077 63.1291 19.9216 63.0009 19.9611C62.8727 20.0007 62.7535 20.0651 62.6502 20.1507C62.5468 20.2363 62.4614 20.3414 62.3987 20.4601C60.4603 24.166 55.6411 24.3314 55.6145 24.3314C49.1592 24.3314 47.2956 19.8252 47.2209 19.6385C47.1469 19.4461 47.0165 19.2806 46.8466 19.1638C46.6768 19.047 46.4756 18.9844 46.2695 18.9841H36.6898C36.3266 18.9934 35.9651 18.9298 35.6268 18.7972C35.2884 18.6646 34.9801 18.4657 34.7199 18.212C34.4596 17.9584 34.2528 17.6552 34.1116 17.3203C33.9704 16.9855 33.8977 16.6258 33.8977 16.2624C33.8977 15.899 33.9704 15.5393 34.1116 15.2045C34.2528 14.8696 34.4596 14.5665 34.7199 14.3128C34.9801 14.0592 35.2884 13.8602 35.6268 13.7276C35.9651 13.595 36.3266 13.5314 36.6898 13.5407H48.1243C48.2618 13.5465 48.399 13.5243 48.5278 13.4757C48.6565 13.427 48.7741 13.3528 48.8734 13.2576C48.9728 13.1623 49.0518 13.0479 49.1058 12.9213C49.1598 12.7947 49.1876 12.6585 49.1876 12.5209C49.1876 12.3832 49.1598 12.247 49.1058 12.1204C49.0518 11.9938 48.9728 11.8795 48.8734 11.7842C48.7741 11.6889 48.6565 11.6147 48.5278 11.5661C48.399 11.5174 48.2618 11.4953 48.1243 11.501H36.6898C36.0568 11.4888 35.4277 11.6029 34.8393 11.8367C34.2509 12.0705 33.7151 12.4192 33.2631 12.8626C32.8111 13.3059 32.452 13.835 32.2069 14.4187C31.9618 15.0025 31.8355 15.6293 31.8355 16.2624C31.8355 16.8955 31.9618 17.5223 32.2069 18.1061C32.452 18.6899 32.8111 19.2189 33.2631 19.6622C33.7151 20.1056 34.2509 20.4543 34.8393 20.6881C35.4277 20.9219 36.0568 21.036 36.6898 21.0238H45.6311C46.4829 22.5869 49.2108 26.3711 55.6358 26.3711C56.3225 26.3407 57.0047 26.246 57.6737 26.0884V41.2039C57.6733 41.6028 57.5146 41.9852 57.2326 42.2672C56.9505 42.5492 56.5682 42.7079 56.1693 42.7084H3.54415C3.14574 42.7079 2.7637 42.5498 2.48149 42.2686C2.19927 41.9874 2.03981 41.6059 2.03793 41.2075V15.0452C2.0384 14.6463 2.19705 14.2639 2.47909 13.9819C2.76112 13.6998 3.14351 13.5412 3.54237 13.5407H29.5464C29.6839 13.5465 29.8212 13.5243 29.9499 13.4757C30.0787 13.427 30.1962 13.3528 30.2956 13.2576C30.3949 13.1623 30.4739 13.0479 30.5279 12.9213C30.5819 12.7947 30.6097 12.6585 30.6097 12.5209C30.6097 12.3832 30.5819 12.247 30.5279 12.1204C30.4739 11.9938 30.3949 11.8795 30.2956 11.7842C30.1962 11.6889 30.0787 11.6147 29.9499 11.5661C29.8212 11.5174 29.6839 11.4953 29.5464 11.501H3.54415C2.60519 11.5043 1.70563 11.8788 1.04168 12.5427C0.377734 13.2066 0.00328064 14.1062 0 15.0452V41.2075C0.00328064 42.1464 0.377734 43.046 1.04168 43.7099C1.70563 44.3739 2.60519 44.7483 3.54415 44.7516H56.1693C57.1083 44.7483 58.0078 44.3739 58.6718 43.7099C59.3357 43.046 59.7102 42.1464 59.7134 41.2075V32.1826C63.3696 31.0178 65.4164 28.3806 66.1633 27.2265H74.187C74.4574 27.2265 74.7168 27.1192 74.9081 26.9282C75.0995 26.7371 75.2073 26.4779 75.2077 26.2075V7.04105C75.2077 6.77033 75.1002 6.5107 74.9088 6.31927C74.7173 6.12785 74.4577 6.0203 74.187 6.0203Z" fill="#323232"/>
<path d="M6.91589 33.5004V22.7506C7.98878 22.5444 8.9752 22.0213 9.74773 21.2487C10.5203 20.4762 11.0434 19.4898 11.2496 18.4169H28.6645C28.9276 18.4059 29.1763 18.2937 29.3586 18.1036C29.5408 17.9135 29.6426 17.6604 29.6426 17.3971C29.6426 17.1337 29.5408 16.8806 29.3586 16.6905C29.1763 16.5004 28.9276 16.3882 28.6645 16.3772H10.3267C10.056 16.3772 9.79632 16.4847 9.6049 16.6762C9.41347 16.8676 9.30593 17.1272 9.30593 17.3979C9.30663 17.8462 9.21899 18.2903 9.04803 18.7047C8.87707 19.1191 8.62614 19.4958 8.30956 19.8132C7.99298 20.1306 7.61697 20.3825 7.203 20.5545C6.78903 20.7266 6.34522 20.8154 5.89693 20.8158C5.62898 20.8177 5.37251 20.9248 5.18286 21.1141C4.99322 21.3034 4.88563 21.5597 4.8833 21.8277V34.4251C4.8833 34.5591 4.90972 34.6917 4.96103 34.8155C5.01235 34.9392 5.08757 35.0516 5.18238 35.1463C5.27718 35.2409 5.38972 35.3159 5.51356 35.3671C5.63739 35.4182 5.77008 35.4443 5.90404 35.4441C6.80804 35.4455 7.67458 35.8054 8.31364 36.4448C8.95269 37.0842 9.3121 37.9509 9.31304 38.8549C9.31304 38.9888 9.33945 39.1215 9.39077 39.2452C9.44209 39.369 9.51731 39.4814 9.61212 39.576C9.70692 39.6707 9.81946 39.7457 9.9433 39.7968C10.0671 39.8479 10.1998 39.8741 10.3338 39.8738H49.387C49.5209 39.8741 49.6536 39.8479 49.7775 39.7968C49.9013 39.7457 50.0138 39.6707 50.1086 39.576C50.2034 39.4814 50.2787 39.369 50.33 39.2452C50.3813 39.1215 50.4077 38.9888 50.4077 38.8549C50.4087 37.9509 50.7681 37.0842 51.4071 36.4448C52.0462 35.8054 52.9127 35.4455 53.8167 35.4441C53.9507 35.4443 54.0834 35.4182 54.2072 35.3671C54.331 35.3159 54.4436 35.2409 54.5384 35.1463C54.6332 35.0516 54.7084 34.9392 54.7597 34.8155C54.811 34.6917 54.8375 34.5591 54.8375 34.4251V29.8158C54.8432 29.6783 54.8211 29.541 54.7724 29.4123C54.7237 29.2835 54.6495 29.166 54.5543 29.0666C54.459 28.9673 54.3446 28.8883 54.218 28.8343C54.0914 28.7803 53.9552 28.7525 53.8176 28.7525C53.68 28.7525 53.5438 28.7803 53.4172 28.8343C53.2906 28.8883 53.1762 28.9673 53.0809 29.0666C52.9856 29.166 52.9115 29.2835 52.8628 29.4123C52.8141 29.541 52.792 29.6783 52.7977 29.8158V33.5004C51.7251 33.7071 50.7389 34.2304 49.9664 35.0028C49.194 35.7753 48.6707 36.7614 48.464 37.8341H11.2496C11.043 36.7614 10.5197 35.7753 9.74721 35.0028C8.97475 34.2304 7.98858 33.7071 6.91589 33.5004Z" fill="#323232"/>
<path d="M17.9057 27.4064C17.7172 27.5955 17.61 27.8507 17.6069 28.1177C17.6068 28.1853 17.614 28.2526 17.6283 28.3187C17.6408 28.3835 17.6605 28.4467 17.687 28.5072C17.7114 28.5699 17.743 28.6296 17.7812 28.685C17.8172 28.7402 17.8589 28.7915 17.9057 28.8379C17.9531 28.8854 18.0049 28.9283 18.0604 28.966C18.1166 29.0024 18.1761 29.0334 18.2382 29.0584C18.3004 29.0842 18.3646 29.1044 18.4303 29.1189C18.496 29.131 18.5627 29.137 18.6295 29.1367C18.8995 29.1357 19.1583 29.0284 19.3497 28.8379C19.397 28.7911 19.4399 28.7399 19.4777 28.685C19.5133 28.628 19.5448 28.5686 19.572 28.5072C19.5955 28.4458 19.6145 28.3828 19.6289 28.3187C19.6426 28.2526 19.6491 28.1852 19.6484 28.1177C19.6469 27.9167 19.5859 27.7206 19.4732 27.5541C19.3605 27.3876 19.201 27.2582 19.0149 27.1821C18.8288 27.1061 18.6243 27.0868 18.4272 27.1267C18.2302 27.1666 18.0493 27.2639 17.9075 27.4064H17.9057Z" fill="#323232"/>
<path d="M40.2375 28.6937C40.2758 28.7482 40.3186 28.7994 40.3656 28.8466C40.4717 28.9537 40.6003 29.0357 40.7421 29.0868C40.8838 29.138 41.0352 29.1569 41.1852 29.1423C41.3352 29.1276 41.4801 29.0798 41.6093 29.0022C41.7385 28.9246 41.8488 28.8192 41.9322 28.6937C41.9705 28.6383 42.0021 28.5786 42.0265 28.5159C42.053 28.4554 42.0727 28.3922 42.0852 28.3274C42.0993 28.2625 42.1065 28.1964 42.1065 28.13C42.1123 27.9925 42.0901 27.8552 42.0415 27.7265C41.9928 27.5977 41.9186 27.4802 41.8233 27.3808C41.7281 27.2815 41.6137 27.2025 41.4871 27.1485C41.3605 27.0945 41.2243 27.0667 41.0867 27.0667C40.949 27.0667 40.8128 27.0945 40.6862 27.1485C40.5596 27.2025 40.4452 27.2815 40.35 27.3808C40.2547 27.4802 40.1805 27.5977 40.1318 27.7265C40.0832 27.8552 40.0611 27.9925 40.0668 28.13C40.0672 28.1963 40.0737 28.2623 40.0864 28.3274C40.1005 28.3918 40.1202 28.4548 40.1451 28.5159C40.171 28.5776 40.2019 28.6371 40.2375 28.6937Z" fill="#323232"/>
<path d="M65.9694 52.9391C65.0174 52.191 63.8193 51.8274 62.6121 51.9203C61.4049 52.0131 60.2765 52.5557 59.4502 53.4406L53.0003 60.4133C52.903 60.5104 52.8263 60.6262 52.7748 60.7537C52.7233 60.8811 52.6981 61.0177 52.7007 61.1551C52.7033 61.2926 52.7337 61.4281 52.7899 61.5535C52.8462 61.679 52.9272 61.7918 53.0281 61.8851C53.129 61.9785 53.2477 62.0505 53.3772 62.0969C53.5066 62.1432 53.644 62.1629 53.7813 62.1548C53.9185 62.1468 54.0527 62.111 54.1758 62.0498C54.2989 61.9886 54.4083 61.9032 54.4976 61.7986L60.9475 54.8259C61.4232 54.316 62.0731 54.0034 62.7683 53.9501C63.4636 53.8967 64.1536 54.1065 64.7015 54.5378C64.9888 54.766 65.228 55.0491 65.405 55.3705C65.582 55.692 65.6934 56.0454 65.7326 56.4102C65.7718 56.7751 65.7381 57.1441 65.6334 57.4958C65.5288 57.8475 65.3552 58.1749 65.1229 58.459L53.8948 72.191C53.0793 73.191 51.9177 73.848 50.6405 74.0315L28.9061 77.1773C27.8021 77.3403 26.7503 77.7552 25.8323 78.3898C24.9143 79.0244 24.1546 79.8618 23.6121 80.8371L23.0182 81.904H3.02479L13.3816 66.5982C14.8636 64.3915 16.9211 62.6323 19.3312 61.511C21.7414 60.3898 24.4124 59.9493 27.0549 60.2373C28.8074 60.4191 30.5335 60.8003 32.1995 61.3736C33.3314 61.7783 34.5239 61.9876 35.7259 61.9924H46.1201C46.9168 61.9934 47.6807 62.3103 48.2441 62.8737C48.8075 63.4371 49.1244 64.201 49.1254 64.9978C49.1244 65.8577 48.7824 66.6822 48.1743 67.2903C47.5662 67.8984 46.7417 68.2404 45.8818 68.2414H36.359C34.8002 68.2411 33.2905 68.7859 32.0911 69.7814L29.854 71.6379C29.6538 71.8132 29.5301 72.0597 29.509 72.3249C29.4879 72.5901 29.5712 72.8531 29.7411 73.0577C29.9111 73.2624 30.1542 73.3927 30.4187 73.4208C30.6833 73.4489 30.9483 73.3726 31.1575 73.2082L33.3928 71.3516C34.2238 70.6629 35.269 70.2856 36.3483 70.2846H45.8782C47.2788 70.2828 48.6216 69.7255 49.612 68.7351C50.6024 67.7447 51.1596 66.402 51.1615 65.0013C51.1596 63.6639 50.6275 62.3818 49.6818 61.436C48.7361 60.4903 47.4539 59.9582 46.1165 59.9563H35.7259C34.7558 59.951 33.7937 59.7809 32.8806 59.453C31.0676 58.826 29.1887 58.4083 27.2808 58.2082C24.2689 57.8785 21.2242 58.3791 18.4764 59.6558C15.7286 60.9325 13.3825 62.9367 11.6922 65.4512L0.257759 82.3451C0.151819 82.4986 0.0899724 82.6782 0.0789368 82.8644C0.0679011 83.0506 0.108098 83.2363 0.195162 83.4012C0.282226 83.5662 0.412828 83.7042 0.572781 83.8001C0.732734 83.8961 0.915923 83.9464 1.10245 83.9455H23.6193C23.8016 83.9443 23.9804 83.8942 24.1368 83.8003C24.2932 83.7065 24.4215 83.5724 24.5084 83.412L25.3975 81.8116C25.7876 81.1112 26.3335 80.5098 26.9931 80.0541C27.6527 79.5983 28.4082 79.3004 29.2013 79.1833L50.941 76.0499C52.7234 75.7937 54.3444 74.8772 55.4828 73.482L66.711 59.75C67.1154 59.257 67.4177 58.6884 67.6 58.0773C67.7824 57.4662 67.8411 56.825 67.7729 56.1909C67.7047 55.5569 67.5109 54.9428 67.2028 54.3845C66.8946 53.8262 66.4784 53.3348 65.9783 52.9391H65.9694Z" fill="#323232"/>
</svg>
