<svg width="29" height="25" viewBox="0 0 29 25" fill="none" xmlns="http://www.w3.org/2000/svg">
<path d="M28.0465 4.295H6.16327C6.12066 4.295 6.08229 4.30982 6.04198 4.31799L5.1519 1.58288C5.14187 1.55333 5.12052 1.53144 5.10635 1.5041C5.08205 1.22279 4.83432 1 4.52437 1C4.52382 1 4.52263 1 4.52198 1L1.62637 1.01141C1.29931 1.01312 1.03612 1.25942 1.03731 1.5615C1.03851 1.86307 1.3029 2.10665 1.62877 2.10665C1.62932 2.10665 1.63051 2.10665 1.63116 2.10665L4.08384 2.09677L9.74567 19.4866C9.18321 19.9623 8.82421 20.6399 8.82421 21.4001C8.82421 22.8359 10.0816 24 11.6335 24C13.1849 24 14.4428 22.8358 14.4428 21.4001C14.4428 21.0257 14.3541 20.6721 14.2003 20.3509H22.374C22.2202 20.6722 22.1315 21.0257 22.1315 21.4001C22.1315 22.8359 23.3889 24 24.9408 24C26.4922 24 27.7501 22.8358 27.7501 21.4001C27.7501 19.9645 26.4921 18.8003 24.9408 18.8003C24.3517 18.8003 23.8058 18.9694 23.354 19.2562H13.2198C12.7679 18.9694 12.2226 18.8003 11.6335 18.8003C11.3408 18.8003 11.064 18.8533 10.7984 18.93L9.95375 16.3367L24.8545 16.3257C25.1153 16.3257 25.33 16.1664 25.4081 15.9491C25.4283 15.9146 25.4501 15.8812 25.4619 15.8418L28.616 5.07759C28.6362 5.0092 28.6385 4.94073 28.6302 4.87455C28.6308 4.86306 28.6373 4.85377 28.6373 4.84279C28.6379 4.54019 28.373 4.295 28.0465 4.295ZM24.9414 19.8945C25.8386 19.8945 26.5679 20.5693 26.5679 21.3997C26.5679 22.23 25.8387 22.9049 24.9414 22.9049C24.0442 22.9049 23.315 22.2301 23.315 21.3997C23.3151 20.5693 24.0443 19.8945 24.9414 19.8945ZM11.6341 19.8945C12.5314 19.8945 13.2606 20.5693 13.2606 21.3997C13.2606 22.23 12.5314 22.9049 11.6341 22.9049C10.7369 22.9049 10.0077 22.2301 10.0077 21.3997C10.0077 20.5693 10.7369 19.8945 11.6341 19.8945ZM24.4157 15.2315L9.59843 15.2425L6.39104 5.39024H27.2995L24.4157 15.2315Z" fill="white" stroke="#313131" stroke-width="0.1"></path>
</svg>