<svg width="59" height="49" viewBox="0 0 59 49" fill="none" xmlns="http://www.w3.org/2000/svg">
<path d="M57.1544 7.37652H11.168C11.0784 7.37652 10.9978 7.40744 10.9131 7.42451L9.04261 1.71644C9.02153 1.65477 8.97666 1.60909 8.94688 1.55203C8.89583 0.964963 8.37522 0.5 7.72389 0.5C7.72273 0.5 7.72022 0.5 7.71886 0.5L1.63389 0.523817C0.946582 0.527372 0.393491 1.04139 0.396005 1.67183C0.398519 2.3012 0.954125 2.80953 1.63891 2.80953C1.64007 2.80953 1.64259 2.80953 1.64394 2.80953L6.79814 2.78891L18.6962 39.0808C17.5142 40.0734 16.7598 41.4875 16.7598 43.0742C16.7598 46.0705 19.4021 48.5 22.6634 48.5C25.9235 48.5 28.5669 46.0703 28.5669 43.0742C28.5669 42.2928 28.3805 41.5549 28.0574 40.8844H45.234C44.9108 41.5551 44.7244 42.2928 44.7244 43.0742C44.7244 46.0705 47.3666 48.5 50.628 48.5C53.8881 48.5 56.5315 46.0703 56.5315 43.0742C56.5315 40.078 53.8879 37.6484 50.628 37.6484C49.3901 37.6484 48.2429 38.0014 47.2934 38.6H25.9968C25.0473 38.0014 23.9012 37.6484 22.6634 37.6484C22.0482 37.6484 21.4665 37.7591 20.9084 37.9191L19.1334 32.5069L50.4466 32.484C50.9946 32.484 51.4458 32.1516 51.61 31.698C51.6523 31.6261 51.6982 31.5564 51.7231 31.4741L58.3513 9.00975C58.3937 8.86703 58.3985 8.72413 58.3811 8.58603C58.3823 8.56203 58.396 8.54266 58.396 8.51973C58.3973 7.88823 57.8406 7.37652 57.1544 7.37652ZM50.6293 39.9319C52.5146 39.9319 54.0473 41.3403 54.0473 43.0733C54.0473 44.8061 52.5148 46.2146 50.6293 46.2146C48.7438 46.2146 47.2114 44.8062 47.2114 43.0733C47.2115 41.3403 48.744 39.9319 50.6293 39.9319ZM22.6647 39.9319C24.5503 39.9319 26.0827 41.3403 26.0827 43.0733C26.0827 44.8061 24.5503 46.2146 22.6647 46.2146C20.7792 46.2146 19.2468 44.8062 19.2468 43.0733C19.2468 41.3403 20.7792 39.9319 22.6647 39.9319ZM49.5245 30.2006L18.3868 30.2235L11.6466 9.66223H55.5847L49.5245 30.2006Z" fill="#353535" stroke="white" strokeWidth="0.4"/>
</svg>
