<svg width="42" height="42" viewBox="0 0 42 42" fill="none" xmlns="http://www.w3.org/2000/svg">
<circle cx="21" cy="21" r="20.5" fill="#EEEC0B" stroke="#EEEC0B"/>
<path fill-rule="evenodd" clip-rule="evenodd" d="M11.5507 18.4675C11.711 15.9563 13.839 14 16.4101 14H25.59C28.1611 14 30.289 15.9563 30.4493 18.4675L30.9903 26.9381C31.1655 29.6811 28.9394 32 26.131 32H15.8691C13.0606 32 10.8345 29.6811 11.0097 26.9381L11.5507 18.4675ZM16.4101 15.0588C14.4103 15.0588 12.7553 16.5804 12.6305 18.5335L12.0895 27.0042C11.9533 29.1376 13.6847 30.9412 15.8691 30.9412H26.131C28.3154 30.9412 30.0467 29.1376 29.9105 27.0042L29.3695 18.5335C29.2448 16.5804 27.5897 15.0588 25.59 15.0588H16.4101Z" fill="#323232" stroke="#323232" strokeWidth="0.8"/>
<path fill-rule="evenodd" clip-rule="evenodd" d="M16 13.8889C16 11.7411 17.7411 10 19.8889 10H22.1111C24.2589 10 26 11.7411 26 13.8889V15H24.8889V13.8889C24.8889 12.3548 23.6452 11.1111 22.1111 11.1111H19.8889C18.3548 11.1111 17.1111 12.3548 17.1111 13.8889V15H16V13.8889Z" fill="#323232" stroke="#323232" strokeWidth="0.8"/>
<path fill-rule="evenodd" clip-rule="evenodd" d="M16 19.1111C16 21.2589 17.7411 23 19.8889 23H22.1111C24.2589 23 26 21.2589 26 19.1111V18H24.8889V19.1111C24.8889 20.6452 23.6452 21.8889 22.1111 21.8889H19.8889C18.3548 21.8889 17.1111 20.6452 17.1111 19.1111V18H16V19.1111Z" fill="#323232" stroke="#323232" strokeWidth="0.8"/>
</svg>
