<svg width="19" height="20" viewBox="0 0 19 20" fill="none" xmlns="http://www.w3.org/2000/svg">
<path d="M17.9609 2.02891H15.9125V0.945312C15.9125 0.827208 15.8656 0.713941 15.7821 0.630429C15.6985 0.546917 15.5853 0.5 15.4672 0.5C15.3491 0.5 15.2358 0.546917 15.1523 0.630429C15.0688 0.713941 15.0219 0.827208 15.0219 0.945312V2.02891H11.9344V0.945312C11.9344 0.827208 11.8875 0.713941 11.8039 0.630429C11.7204 0.546917 11.6072 0.5 11.4891 0.5C11.371 0.5 11.2577 0.546917 11.1742 0.630429C11.0907 0.713941 11.0437 0.827208 11.0437 0.945312V2.02891H7.95624V0.945312C7.95624 0.827208 7.90933 0.713941 7.82582 0.630429C7.7423 0.546917 7.62904 0.5 7.51093 0.5C7.39283 0.5 7.27956 0.546917 7.19605 0.630429C7.11254 0.713941 7.06562 0.827208 7.06562 0.945312V2.02891H3.97812V0.945312C3.97812 0.827208 3.93121 0.713941 3.84769 0.630429C3.76418 0.546917 3.65091 0.5 3.53281 0.5C3.41471 0.5 3.30144 0.546917 3.21793 0.630429C3.13441 0.713941 3.0875 0.827208 3.0875 0.945312V2.02891H1.03906C0.763485 2.02891 0.499196 2.13838 0.304334 2.33324C0.109472 2.5281 0 2.79239 0 3.06797L0 18.4609C0 18.7365 0.109472 19.0008 0.304334 19.1957C0.499196 19.3905 0.763485 19.5 1.03906 19.5H14.1016C14.131 19.4999 14.1603 19.4969 14.1891 19.4911L14.2277 19.4792C14.2589 19.4723 14.2886 19.4597 14.3153 19.4421L14.3494 19.4243C14.374 19.4078 14.3969 19.3889 14.4177 19.3679L18.8708 14.9148C18.8919 14.8939 18.9108 14.8711 18.9273 14.8465C18.9273 14.8361 18.9376 14.8257 18.9436 14.8153C18.9613 14.7882 18.9739 14.758 18.9807 14.7262C18.9807 14.7129 18.9896 14.701 18.9926 14.6862C18.9977 14.6583 19.0002 14.6299 19 14.6016V3.06797C19 2.79239 18.8905 2.5281 18.6957 2.33324C18.5008 2.13838 18.2365 2.02891 17.9609 2.02891ZM14.5469 15.0469H17.48L14.5469 17.98V15.0469ZM1.03906 2.91953H3.0875V4.00312C3.0875 4.12123 3.13441 4.2345 3.21793 4.31801C3.30144 4.40152 3.41471 4.44844 3.53281 4.44844C3.65091 4.44844 3.76418 4.40152 3.84769 4.31801C3.93121 4.2345 3.97812 4.12123 3.97812 4.00312V2.91953H7.06562V4.00312C7.06562 4.12123 7.11254 4.2345 7.19605 4.31801C7.27956 4.40152 7.39283 4.44844 7.51093 4.44844C7.62904 4.44844 7.7423 4.40152 7.82582 4.31801C7.90933 4.2345 7.95624 4.12123 7.95624 4.00312V2.91953H11.0437V4.00312C11.0437 4.12123 11.0907 4.2345 11.1742 4.31801C11.2577 4.40152 11.371 4.44844 11.4891 4.44844C11.6072 4.44844 11.7204 4.40152 11.8039 4.31801C11.8875 4.2345 11.9344 4.12123 11.9344 4.00312V2.91953H15.0219V4.00312C15.0219 4.12123 15.0688 4.2345 15.1523 4.31801C15.2358 4.40152 15.3491 4.44844 15.4672 4.44844C15.5853 4.44844 15.6985 4.40152 15.7821 4.31801C15.8656 4.2345 15.9125 4.12123 15.9125 4.00312V2.91953H17.9609C18.0003 2.91953 18.038 2.93517 18.0659 2.96301C18.0937 2.99084 18.1094 3.0286 18.1094 3.06797V5.19063H0.890624V3.06797C0.890624 3.0286 0.906263 2.99084 0.934101 2.96301C0.961938 2.93517 0.999694 2.91953 1.03906 2.91953ZM0.890624 18.4609V6.08125H18.1094V14.1562H14.1016C13.9834 14.1562 13.8702 14.2032 13.7867 14.2867C13.7032 14.3702 13.6562 14.4835 13.6562 14.6016V18.6094H1.03906C0.999694 18.6094 0.961938 18.5937 0.934101 18.5659C0.906263 18.5381 0.890624 18.5003 0.890624 18.4609Z" fill="#323232"/>
</svg>
