<svg width="42" height="42" viewBox="0 0 42 42" fill="none" xmlns="http://www.w3.org/2000/svg">
<circle cx="21" cy="21" r="20.5" fill="#EEEC0B" stroke="#EEEC0B"/>
<path d="M12 14C12 13.4477 12.4477 13 13 13H29C29.5523 13 30 13.4477 30 14C30 14.5523 29.5523 15 29 15H13C12.4477 15 12 14.5523 12 14ZM12 21C12 20.4477 12.4477 20 13 20H23C23.5523 20 24 20.4477 24 21C24 21.5523 23.5523 22 23 22H13C12.4477 22 12 21.5523 12 21ZM12 28C12 27.4477 12.4477 27 13 27H29C29.5523 27 30 27.4477 30 28C30 28.5523 29.5523 29 29 29H13C12.4477 29 12 28.5523 12 28Z" fill="#323232" stroke="#323232" strokeWidth="0.4"/>
</svg>
