<svg width="60" height="60" viewBox="0 0 60 60" fill="none" xmlns="http://www.w3.org/2000/svg">
<path d="M60 30.0001V30.0887C59.9825 36.0146 58.2103 41.8025 54.9072 46.7224C51.604 51.6423 46.9177 55.4737 41.4396 57.7333C35.9614 59.993 29.9368 60.5796 24.1256 59.4192C18.3144 58.2588 12.9771 55.4034 8.78683 51.2132C4.59659 47.0229 1.74118 41.6856 0.580793 35.8744C-0.57959 30.0632 0.00703878 24.0386 2.26668 18.5604C4.52632 13.0823 8.35774 8.39602 13.2776 5.09284C18.1975 1.78966 23.9854 0.0175343 29.9113 0H29.9999C30.7227 0 31.4386 -7.61993e-08 32.1545 0.0818183C33.3263 0.163843 34.492 0.316392 35.6454 0.538637C37.5345 0.896536 39.3841 1.43773 41.1681 2.15455C44.912 3.66014 48.3148 5.90342 51.174 8.75092C54.0332 11.5984 56.2904 14.9919 57.8114 18.7296C58.5488 20.5426 59.1039 22.4247 59.4682 24.3478C59.69 25.5127 59.8425 26.6898 59.925 27.8728C60 28.5819 60 29.3182 60 30.0001Z" fill="#D95D0B"/>
<path d="M29.9113 29.1004C28.6599 29.1004 27.4365 28.7293 26.396 28.034C25.3555 27.3388 24.5445 26.3506 24.0656 25.1944C23.5867 24.0383 23.4614 22.7661 23.7056 21.5387C23.9497 20.3113 24.5523 19.1839 25.4372 18.299C26.3221 17.4141 27.4495 16.8115 28.6769 16.5674C29.9043 16.3232 31.1765 16.4485 32.3326 16.9274C33.4888 17.4063 34.477 18.2173 35.1722 19.2578C35.8675 20.2984 36.2386 21.5217 36.2386 22.7731C36.2368 24.4506 35.5696 26.059 34.3833 27.2452C33.1971 28.4314 31.5888 29.0986 29.9113 29.1004ZM29.9113 19.514C29.2667 19.514 28.6366 19.7051 28.1006 20.0632C27.5647 20.4214 27.1469 20.9304 26.9003 21.5259C26.6536 22.1214 26.589 22.7767 26.7148 23.4089C26.8405 24.0411 27.1509 24.6218 27.6067 25.0776C28.0625 25.5334 28.6433 25.8438 29.2755 25.9696C29.9077 26.0953 30.563 26.0308 31.1585 25.7841C31.754 25.5374 32.263 25.1197 32.6211 24.5837C32.9792 24.0478 33.1704 23.4177 33.1704 22.7731C33.1686 21.9093 32.8246 21.0814 32.2138 20.4705C31.603 19.8597 30.7751 19.5158 29.9113 19.514Z" fill="white"/>
<path d="M38.5431 30.6819C38.4253 30.4783 38.2684 30.2999 38.0815 30.157C37.8946 30.0142 37.6813 29.9097 37.4538 29.8495C37.2264 29.7893 36.9893 29.7746 36.7562 29.8063C36.5231 29.838 36.2985 29.9154 36.0954 30.0342C34.2629 31.2126 32.1374 31.855 29.959 31.8887C27.7882 31.8196 25.673 31.1851 23.8226 30.0478C23.4105 29.8498 22.9383 29.8167 22.5026 29.9553C22.0669 30.0939 21.7006 30.3936 21.4786 30.7933C21.2566 31.193 21.1956 31.6624 21.3081 32.1055C21.4206 32.5486 21.6982 32.932 22.084 33.1774C23.0997 33.7512 24.1627 34.237 25.2613 34.6296C25.752 34.7991 26.2324 34.9971 26.6999 35.2228L27.2863 35.516L23.0113 40.6842C22.7223 41.0078 22.5626 41.4265 22.5626 41.8603C22.5626 42.2942 22.7223 42.7129 23.0113 43.0365C23.1771 43.2222 23.3817 43.3694 23.6106 43.4676C23.8395 43.5658 24.0871 43.6126 24.336 43.6048C24.585 43.597 24.8292 43.5348 25.0514 43.4224C25.2737 43.3101 25.4687 43.1504 25.6226 42.9547L29.9113 37.7728L34.2067 42.9547C34.4902 43.2949 34.8949 43.5115 35.3352 43.5586C35.7755 43.6057 36.2169 43.4796 36.5658 43.2069C36.9227 42.8973 37.1429 42.4593 37.1786 41.9882C37.2144 41.5171 37.0628 41.051 36.7567 40.691L32.4476 35.4546L32.6317 35.366C33.0727 35.1668 33.5286 35.0027 33.9954 34.8751C35.3726 34.4518 36.6936 33.8634 37.9295 33.1228C38.3246 32.8804 38.6106 32.4943 38.7272 32.0455C38.7901 31.8176 38.8062 31.5792 38.7746 31.3449C38.743 31.1105 38.6642 30.885 38.5431 30.6819Z" fill="white"/>
</svg>
