<svg width="14" height="19" viewBox="0 0 14 19" fill="none" xmlns="http://www.w3.org/2000/svg">
<path d="M9.79875 0.5H0.47025C0.210536 0.5 0 0.710536 0 1.11907V18.1786C0 18.2895 0.210536 18.5 0.47025 18.5H13.3512C13.6109 18.5 13.8214 18.2895 13.8214 18.1786V4.6715C13.8214 4.44779 13.7915 4.37579 13.7388 4.32275L9.99868 0.582607C9.94564 0.529893 9.87364 0.5 9.79875 0.5Z" fill="#E9E9E0"/>
<path d="M9.96429 0.548523V4.35713H13.7729L9.96429 0.548523Z" fill="#D9D7CA"/>
<path d="M4.18304 11.2113C4.07118 11.2113 3.96383 11.175 3.87222 11.1065C3.53761 10.8555 3.49261 10.5762 3.51383 10.3859C3.57233 9.8626 4.21936 9.31489 5.43758 8.75689C5.921 7.69746 6.38097 6.39214 6.65515 5.30153C6.33436 4.60339 6.02258 3.6976 6.24983 3.16628C6.32954 2.98017 6.42886 2.83746 6.61433 2.77574C6.68761 2.75132 6.87275 2.72046 6.9409 2.72046C7.1029 2.72046 7.24529 2.92907 7.34622 3.05764C7.44104 3.17849 7.65608 3.43467 7.22633 5.24399C7.65961 6.13885 8.27354 7.05042 8.86175 7.67464C9.28315 7.59846 9.64572 7.55957 9.94111 7.55957C10.4445 7.55957 10.7495 7.67689 10.8739 7.9186C10.9768 8.11853 10.9346 8.35221 10.7485 8.61289C10.5695 8.86328 10.3226 8.99571 10.035 8.99571C9.64411 8.99571 9.18897 8.74885 8.68143 8.26124C7.76954 8.45185 6.70465 8.79192 5.84386 9.16832C5.57515 9.73853 5.31768 10.1979 5.0779 10.5347C4.74843 10.996 4.46429 11.2113 4.18304 11.2113ZM5.03868 9.56367C4.35179 9.94971 4.07183 10.267 4.05158 10.4457C4.04836 10.4752 4.03968 10.553 4.19011 10.6681C4.238 10.653 4.51765 10.5254 5.03868 9.56367ZM9.422 8.13589C9.68397 8.33742 9.74793 8.43932 9.91925 8.43932C9.99447 8.43932 10.2089 8.4361 10.3082 8.29757C10.3561 8.23039 10.3747 8.18732 10.3821 8.16417C10.3426 8.14328 10.2902 8.10085 10.0044 8.10085C9.84211 8.10117 9.638 8.10824 9.422 8.13589ZM7.02093 6.02024C6.79111 6.81546 6.48768 7.674 6.16143 8.45153C6.83322 8.19085 7.5635 7.96328 8.24943 7.80224C7.8155 7.29824 7.3819 6.66889 7.02093 6.02024ZM6.82583 3.30032C6.79433 3.31092 6.39833 3.86507 6.85668 4.33403C7.16172 3.65421 6.83965 3.29582 6.82583 3.30032Z" fill="#CC4B4C"/>
<path d="M13.3512 18.5H0.47025C0.210536 18.5 0 18.2895 0 18.0297V13.0357H13.8214V18.0297C13.8214 18.2895 13.6109 18.5 13.3512 18.5Z" fill="#CC4B4C"/>
<path d="M3.49878 17.5357H2.97131V14.297H3.90281C4.04038 14.297 4.17667 14.3189 4.31135 14.3629C4.44603 14.4069 4.56688 14.4728 4.67392 14.5606C4.78096 14.6483 4.86742 14.7547 4.93331 14.8791C4.99921 15.0035 5.03231 15.1433 5.03231 15.2989C5.03231 15.4631 5.00435 15.6116 4.94874 15.745C4.89313 15.8784 4.81535 15.9906 4.71571 16.0812C4.61606 16.1719 4.49585 16.2423 4.35538 16.2921C4.21492 16.3419 4.05935 16.3667 3.88963 16.3667H3.49846V17.5357H3.49878ZM3.49878 14.6969V15.98H3.98221C4.04649 15.98 4.11013 15.9691 4.17346 15.9469C4.23646 15.925 4.29431 15.889 4.34703 15.8392C4.39974 15.7894 4.44217 15.72 4.47431 15.6306C4.50646 15.5412 4.52253 15.4307 4.52253 15.2989C4.52253 15.2462 4.51514 15.1851 4.50067 15.1166C4.48589 15.0479 4.45599 14.982 4.41067 14.919C4.36503 14.856 4.30139 14.8032 4.21942 14.7608C4.13746 14.7184 4.02881 14.6972 3.89413 14.6972H3.49878V14.6969Z" fill="white"/>
<path d="M8.26686 15.8264C8.26686 16.0928 8.23825 16.3207 8.18104 16.5097C8.12382 16.6987 8.0515 16.8569 7.96343 16.9845C7.87536 17.1121 7.77668 17.2124 7.66675 17.2856C7.55682 17.3589 7.45075 17.4136 7.34822 17.4505C7.24568 17.4872 7.15182 17.5106 7.06697 17.5209C6.98211 17.5306 6.91911 17.5357 6.87797 17.5357H5.65204V14.297H6.62757C6.90015 14.297 7.13961 14.3404 7.34597 14.4265C7.55232 14.5127 7.72397 14.6281 7.86025 14.7714C7.99654 14.9148 8.09811 15.0784 8.16561 15.2613C8.23311 15.4445 8.26686 15.6329 8.26686 15.8264ZM6.70247 17.149C7.0599 17.149 7.31768 17.0349 7.47582 16.8064C7.63397 16.5779 7.71304 16.2468 7.71304 15.8132C7.71304 15.6785 7.69697 15.5451 7.66482 15.4133C7.63236 15.2815 7.57032 15.1623 7.47807 15.0552C7.38582 14.9482 7.26047 14.8617 7.10232 14.7959C6.94418 14.73 6.73911 14.6969 6.48711 14.6969H6.1795V17.149H6.70247Z" fill="white"/>
<path d="M9.56764 14.6969V15.7164H10.9212V16.0767H9.56764V17.5357H9.03149V14.297H11.0571V14.6969H9.56764Z" fill="white"/>
</svg>
