<svg width="218" height="106" viewBox="0 0 218 106" fill="none" xmlns="http://www.w3.org/2000/svg">
<rect x="13.897" y="32.6907" width="46.1855" height="14.2955" fill="#323232"/>
<path d="M19.8638 39.4654C19.863 39.4634 19.8622 39.4613 19.8613 39.4593L19.8622 39.4613L19.8638 39.4653L19.8638 39.4654ZM21.0944 42.7082L19.9 39.5594C19.9002 39.5486 19.9013 39.5329 19.9053 39.513L19.9055 39.512C19.9127 39.4754 19.9738 39.1672 20.6173 38.7509C20.6342 38.7399 20.651 38.7286 20.6674 38.717C21.2771 38.2866 22.2508 37.984 23.9254 37.839C25.5856 37.6951 27.7125 37.7195 30.4955 37.7751L30.5255 37.7754H34.6158C38.707 37.7754 42.7948 38.0212 46.0785 38.4012C47.7216 38.5913 49.1437 38.8128 50.254 39.0486C51.4235 39.297 52.0776 39.5282 52.3166 39.6688L52.3214 39.6716C52.4926 39.7715 52.5531 39.8477 52.5686 39.8695C52.5775 39.882 52.58 39.8883 52.5801 39.8886C52.5801 39.8886 52.5801 39.8886 52.5801 39.8886C52.5802 39.8892 52.5803 39.8902 52.5803 39.8915C52.5749 39.9042 52.5697 39.9169 52.5647 39.9298L51.5698 42.4724C51.3564 43.0177 51.4798 43.6373 51.8859 44.0592C52.2919 44.4811 52.9064 44.6281 53.4594 44.4358L55.8746 43.5957C55.9622 43.5778 56.0307 43.5581 56.0699 43.5467C56.1964 43.5099 56.3313 43.4618 56.4701 43.4069C56.7498 43.2963 57.1087 43.133 57.5568 42.9053C58.4537 42.4495 59.7646 41.7066 61.6088 40.5334C66.2252 37.7156 69.28 34.2337 69.28 30.5269C69.28 29.0211 68.6742 27.5996 67.5462 26.6295C66.3297 25.568 64.7058 25.1264 63.2214 24.9597C61.9077 24.8123 60.5545 24.8639 59.3754 24.9951C59.4228 23.0652 59.4723 20.5383 59.4827 18.1103C59.4897 16.4924 59.4793 14.9082 59.4389 13.5692C59.3999 12.28 59.3311 11.1231 59.2011 10.388C58.6328 6.51235 55.1449 3.53912 50.8598 2.33816C50.2047 2.12571 49.3192 1.98526 48.3784 1.88206C47.3897 1.77361 46.2322 1.69579 45.0066 1.63976C42.554 1.52764 39.7635 1.5 37.3794 1.5C36.3117 1.5 34.0204 1.52794 31.7103 1.63995C29.4894 1.74764 27.0121 1.94066 25.692 2.33134C23.8151 2.84416 21.8453 3.5368 20.1243 4.78413C18.3664 6.05825 16.9353 7.86126 16.0623 10.4721C15.6926 11.5212 15.4965 12.8939 15.3908 14.3263C15.2826 15.7926 15.2622 17.4345 15.2902 19.0693C15.3304 21.4084 15.4708 23.7771 15.6084 25.6675C12.5416 25.1024 10.4418 25.052 9.77786 25.0475C9.30609 24.9709 8.68131 24.9816 8.04494 25.1C7.26857 25.2444 6.32548 25.5757 5.47631 26.2705C5.45455 26.2883 5.4333 26.3067 5.41258 26.3257C4.13433 27.4975 3.59961 29.1302 3.59961 30.9691C3.59961 32.5073 4.41147 33.9278 5.36011 35.0963C6.33618 36.2985 7.62962 37.444 8.95363 38.4603C11.5955 40.4882 14.5679 42.1591 15.9964 42.903L18.9634 44.5514C19.5139 44.8572 20.1968 44.7866 20.6731 44.3746C21.1495 43.9626 21.3177 43.297 21.0944 42.7082Z" fill="#323232" stroke="#323232" strokeWidth="3" strokeLinejoin="round"/>
<path fill-rule="evenodd" clip-rule="evenodd" d="M67.7916 30.8328C67.7916 33.739 65.3724 36.8688 60.8638 39.6632C57.2349 42.0105 55.8054 42.5695 55.5855 42.5695L53.0563 43.4637L54.046 40.8928C54.1559 40.6693 54.4858 39.5514 53.1662 38.769C51.2968 37.6512 43.0494 36.6452 34.802 36.6452C33.3358 36.6452 31.9795 36.6452 30.7332 36.6452C25.235 36.5334 21.936 36.5334 20.0666 37.8748C18.1972 39.1043 18.747 40.4457 18.747 40.4457L19.9566 43.6873L16.9875 42.0106C14.2384 40.5575 5.44116 35.4156 5.44116 31.2798C5.44116 29.715 5.88102 28.5226 6.76075 27.7029C7.97037 26.6969 9.50989 26.6969 9.94975 26.8087C10.3896 26.8087 13.2487 26.8088 17.5374 27.8148C17.2075 23.7907 16.5477 14.5132 17.7573 11.048C19.2968 6.35336 22.7058 4.78846 26.3346 3.78246C28.5339 3.11179 35.4618 3 37.5511 3C42.2796 3 48.5477 3.11179 50.527 3.78246C54.4858 4.90024 57.3449 7.58293 57.7848 10.7127C58.2246 13.1718 58.0047 23.0083 57.8947 26.9205C58.4079 26.846 58.8111 26.8087 59.1044 26.8087C61.5236 26.4734 64.8226 26.4734 66.582 28.0383C67.3518 28.709 67.7916 29.715 67.7916 30.8328ZM55.3655 27.3676C55.3655 26.6969 55.4022 25.9518 55.4755 25.1321C52.1765 26.2498 44.5889 28.2618 33.9222 28.2618C26.6645 28.2618 22.2659 26.8087 19.8467 25.6909C19.92 26.7342 19.9933 27.6285 20.0666 28.3736C25.125 29.715 29.8535 30.8327 36.1216 30.4974C40.5202 30.1621 47.6679 28.8208 52.8363 27.8148C53.716 27.6657 54.5591 27.5167 55.3655 27.3676ZM19.7367 22.6729C20.9463 23.4554 25.125 25.8028 33.9222 25.8028C45.3587 25.8028 53.1662 23.2319 55.4755 22.4494C55.5855 17.8665 55.5855 12.6129 55.3655 11.1598C55.0356 9.036 52.8363 7.024 49.8673 6.12977C48.5477 5.79444 43.2693 5.4591 37.5511 5.57088C32.4927 5.57088 28.204 5.79444 26.9944 6.12977C23.5855 7.13578 21.1662 8.47715 20.0666 11.8305C19.4068 13.7307 19.5168 18.4254 19.7367 22.6729ZM65.2624 30.8328C65.2624 30.3857 65.1525 30.1621 64.9325 29.9385C64.1628 29.1561 62.0734 28.9325 59.4343 29.2679C58.2246 29.3796 55.9154 29.8267 53.2762 30.3856C47.9978 31.2799 40.8501 32.6212 36.2315 32.9565C29.5236 33.4036 24.5752 32.1741 19.4068 30.8328L18.637 30.6092C13.3587 29.2679 9.83979 29.2679 9.83979 29.2679H9.61985C9.61985 29.2679 8.85009 29.1561 8.41023 29.6032C8.04368 29.9013 7.8604 30.4601 7.8604 31.2798C7.8604 32.8447 12.0391 36.1981 16.3278 38.769C16.6577 37.763 17.3174 36.6452 18.637 35.751C20.7264 34.2979 23.5855 34.0743 27.7642 34.0743C28.7172 34.0743 29.7069 34.0743 30.7332 34.0743C31.9795 34.1488 33.3358 34.1861 34.802 34.1861C42.6095 34.1861 51.8466 34.9685 54.4858 36.6452C55.6954 37.4276 56.3552 38.4337 56.5751 39.3279C57.2349 38.9926 58.2246 38.3219 59.5442 37.5395C63.2831 35.1921 65.2624 32.8448 65.2624 30.8328Z" fill="#EEEC0B"/>
<mask id="path-4-outside-1_1180_1704" maskUnits="userSpaceOnUse" x="0" y="39.6873" width="71" height="67" fill="black">
<rect fill="white" y="39.6873" width="71" height="67"/>
<path d="M67.78 51.055V48.0859L65.6911 50.1753C64.7015 51.1649 61.6231 53.8041 58.9844 54.3539C56.6756 54.9038 54.6965 54.6839 53.0473 54.244C53.817 53.9141 54.6965 53.5842 55.4661 53.0344C57.0054 52.0447 57.6651 49.6254 57.775 49.0756L58.4347 46.6563L56.0159 47.6461C54.5866 48.3059 51.838 49.4055 50.6286 49.4055C50.1888 49.4055 49.0893 48.9657 48.0998 48.6358L48.0997 48.6357C45.7908 47.866 42.8224 46.8763 40.7335 47.6461C38.3147 48.4158 36.6655 50.3952 35.8959 51.2749C35.1263 49.7354 33.2572 47.4261 28.9693 47.0962C25.2312 46.7663 23.0323 47.646 21.493 48.3058C20.6135 48.6357 19.9538 48.9657 19.4041 48.9657C17.7549 48.9657 16.7654 47.6461 16.7654 47.6461L14.9966 46.4364L14.5665 48.0859C14.4565 48.1959 13.9068 51.1649 16.3256 52.9244C16.5455 53.071 16.7287 53.2177 16.8753 53.3643C15.7759 53.6942 14.5665 53.9141 13.467 53.9141C10.9383 53.9141 10.4985 53.6942 9.17916 53.0344L8.62943 52.7044C7.52998 52.1546 6.65041 50.3952 6.54047 49.7354L4.54983 43.6873L4.01172 50.0653C4.01172 50.2852 3.57195 56.2234 8.07971 60.1822C10.4985 62.2715 13.1372 63.701 16.2157 64.4708C15.7759 65.3505 15.556 66.5601 15.556 68.2096C15.556 71.3986 17.2052 73.488 18.5245 75.0275C18.9643 75.6873 19.4041 76.2371 19.624 76.677C20.5035 78.4364 20.5035 80.0859 20.5035 80.0859V83.8248L23.9118 79.4261C24.3516 81.8454 25.3411 85.2543 27.65 88.7732C30.5086 93.0619 36.7754 97.0206 36.9953 97.1306L40.0738 99L38.8644 95.591C38.7545 95.3711 36.3357 88.7732 42.2727 85.1443C44.9114 83.6048 46.7805 81.2955 47.9899 79.3161L48.8694 85.3642L50.6286 82.835C51.1783 82.0653 55.796 75.4674 55.796 71.1787C55.796 68.5395 55.1363 66.7801 54.4766 65.5704C60.3037 64.1409 63.6021 62.0515 65.801 58.0928C67.78 54.5739 67.78 51.1649 67.78 51.055Z"/>
</mask>
<path d="M67.78 51.055V48.0859L65.6911 50.1753C64.7015 51.1649 61.6231 53.8041 58.9844 54.3539C56.6756 54.9038 54.6965 54.6839 53.0473 54.244C53.817 53.9141 54.6965 53.5842 55.4661 53.0344C57.0054 52.0447 57.6651 49.6254 57.775 49.0756L58.4347 46.6563L56.0159 47.6461C54.5866 48.3059 51.838 49.4055 50.6286 49.4055C50.1888 49.4055 49.0893 48.9657 48.0998 48.6358L48.0997 48.6357C45.7908 47.866 42.8224 46.8763 40.7335 47.6461C38.3147 48.4158 36.6655 50.3952 35.8959 51.2749C35.1263 49.7354 33.2572 47.4261 28.9693 47.0962C25.2312 46.7663 23.0323 47.646 21.493 48.3058C20.6135 48.6357 19.9538 48.9657 19.4041 48.9657C17.7549 48.9657 16.7654 47.6461 16.7654 47.6461L14.9966 46.4364L14.5665 48.0859C14.4565 48.1959 13.9068 51.1649 16.3256 52.9244C16.5455 53.071 16.7287 53.2177 16.8753 53.3643C15.7759 53.6942 14.5665 53.9141 13.467 53.9141C10.9383 53.9141 10.4985 53.6942 9.17916 53.0344L8.62943 52.7044C7.52998 52.1546 6.65041 50.3952 6.54047 49.7354L4.54983 43.6873L4.01172 50.0653C4.01172 50.2852 3.57195 56.2234 8.07971 60.1822C10.4985 62.2715 13.1372 63.701 16.2157 64.4708C15.7759 65.3505 15.556 66.5601 15.556 68.2096C15.556 71.3986 17.2052 73.488 18.5245 75.0275C18.9643 75.6873 19.4041 76.2371 19.624 76.677C20.5035 78.4364 20.5035 80.0859 20.5035 80.0859V83.8248L23.9118 79.4261C24.3516 81.8454 25.3411 85.2543 27.65 88.7732C30.5086 93.0619 36.7754 97.0206 36.9953 97.1306L40.0738 99L38.8644 95.591C38.7545 95.3711 36.3357 88.7732 42.2727 85.1443C44.9114 83.6048 46.7805 81.2955 47.9899 79.3161L48.8694 85.3642L50.6286 82.835C51.1783 82.0653 55.796 75.4674 55.796 71.1787C55.796 68.5395 55.1363 66.7801 54.4766 65.5704C60.3037 64.1409 63.6021 62.0515 65.801 58.0928C67.78 54.5739 67.78 51.1649 67.78 51.055Z" fill="#323232"/>
<path d="M67.78 48.0859H70.78V40.8425L65.6585 45.9648L67.78 48.0859ZM65.801 58.0928L63.1862 56.6222L63.1823 56.6291L63.1784 56.6361L65.801 58.0928ZM54.4766 65.5704L53.7619 62.6568L49.977 63.5854L51.8428 67.0068L54.4766 65.5704ZM50.6286 82.835L48.1872 81.0915L48.1764 81.1067L48.1657 81.1221L50.6286 82.835ZM48.8694 85.3642L45.9007 85.796L46.9941 93.3145L51.3323 87.0772L48.8694 85.3642ZM47.9899 79.3161L50.9586 78.8844L49.7627 70.6607L45.4299 77.752L47.9899 79.3161ZM42.2727 85.1443L40.7609 82.5531L40.7344 82.5686L40.7081 82.5846L42.2727 85.1443ZM38.8644 95.591L41.6917 94.588L41.6302 94.4144L41.5478 94.2496L38.8644 95.591ZM40.0738 99L38.5166 101.564L45.7182 105.937L42.9011 97.9969L40.0738 99ZM36.9953 97.1306L38.5525 94.5663L38.4473 94.5024L38.3372 94.4474L36.9953 97.1306ZM27.65 88.7732L25.1417 90.419L25.1477 90.4281L25.1537 90.4371L27.65 88.7732ZM23.9118 79.4261L26.8635 78.8896L25.6604 72.2715L21.5404 77.5886L23.9118 79.4261ZM20.5035 83.8248H17.5035V92.5944L22.8749 85.6623L20.5035 83.8248ZM20.5035 80.0859L17.5035 80.0859V80.0859H20.5035ZM19.624 76.677L22.3073 75.3356L22.3073 75.3355L19.624 76.677ZM18.5245 75.0275L21.0208 73.3636L20.9203 73.2129L20.8025 73.0753L18.5245 75.0275ZM16.2157 64.4708L18.899 65.8122L20.5711 62.4675L16.9434 61.5604L16.2157 64.4708ZM8.07971 60.1822L6.1001 62.4363L6.10933 62.4444L6.11864 62.4524L8.07971 60.1822ZM4.01172 50.0653L1.02234 49.8131L1.01172 49.939V50.0653H4.01172ZM4.54983 43.6873L7.39945 42.7494C6.95367 41.3949 5.61611 40.5414 4.19993 40.7077C2.78376 40.874 1.68032 42.0142 1.56045 43.435L4.54983 43.6873ZM6.54047 49.7354L9.49966 49.2423L9.46191 49.0157L9.39009 48.7975L6.54047 49.7354ZM8.62943 52.7044L10.1733 50.1322L10.0744 50.0729L9.97127 50.0213L8.62943 52.7044ZM9.17916 53.0344L7.63528 55.6066L7.73417 55.666L7.83732 55.7176L9.17916 53.0344ZM16.8753 53.3643L17.7375 56.2377L22.5475 54.7945L18.9968 51.2432L16.8753 53.3643ZM16.3256 52.9244L14.5609 55.3504L14.6104 55.3864L14.6613 55.4204L16.3256 52.9244ZM14.5665 48.0859L16.688 50.2071L17.2639 49.631L17.4694 48.8428L14.5665 48.0859ZM14.9966 46.4364L16.69 43.9601L13.1696 41.5525L12.0936 45.6795L14.9966 46.4364ZM16.7654 47.6461L19.1655 45.8463L18.8681 45.4496L18.4589 45.1698L16.7654 47.6461ZM21.493 48.3058L22.5466 51.1147L22.6114 51.0904L22.675 51.0632L21.493 48.3058ZM28.9693 47.0962L28.7056 50.0846L28.7224 50.0861L28.7392 50.0874L28.9693 47.0962ZM35.8959 51.2749L33.2125 52.6164L35.211 56.614L38.1538 53.2502L35.8959 51.2749ZM40.7335 47.6461L41.6432 50.5048L41.7075 50.4843L41.7708 50.461L40.7335 47.6461ZM48.0997 48.6357L49.0677 45.7962L49.0581 45.7929L49.0485 45.7897L48.0997 48.6357ZM48.0998 48.6358L47.1318 51.4753L47.1414 51.4786L47.151 51.4818L48.0998 48.6358ZM56.0159 47.6461L54.8798 44.8695L54.8186 44.8945L54.7585 44.9223L56.0159 47.6461ZM58.4347 46.6563L61.329 47.4456L62.9296 41.5757L57.2986 43.8798L58.4347 46.6563ZM57.775 49.0756L54.8807 48.2864L54.8535 48.386L54.8332 48.4873L57.775 49.0756ZM55.4661 53.0344L53.8437 50.511L53.7819 50.5507L53.7222 50.5933L55.4661 53.0344ZM53.0473 54.244L51.8654 51.4866L43.8883 54.906L52.2742 57.1427L53.0473 54.244ZM58.9844 54.3539L58.3724 51.417L58.3308 51.4257L58.2894 51.4355L58.9844 54.3539ZM65.6911 50.1753L63.5696 48.0541L63.5695 48.0541L65.6911 50.1753ZM64.78 48.0859V51.055H70.78V48.0859H64.78ZM64.78 51.055C64.78 51.0559 64.78 51.0555 64.78 51.0563C64.78 51.0576 64.78 51.0615 64.7799 51.068C64.7797 51.081 64.7792 51.1052 64.778 51.1398C64.7756 51.2093 64.7702 51.321 64.7585 51.4691C64.7349 51.7661 64.6861 52.2041 64.5851 52.7371C64.3814 53.8125 63.9767 55.2166 63.1862 56.6222L68.4159 59.5634C70.7686 55.3799 70.78 51.3577 70.78 51.055H64.78ZM63.1784 56.6361C61.5263 59.6104 59.1121 61.3443 53.7619 62.6568L55.1914 68.484C61.4954 66.9375 65.6779 64.4927 68.4236 59.5495L63.1784 56.6361ZM51.8428 67.0068C52.2881 67.8232 52.796 69.0928 52.796 71.1787H58.796C58.796 67.9863 57.9845 65.7369 57.1104 64.1341L51.8428 67.0068ZM52.796 71.1787C52.796 72.5047 51.9907 74.6399 50.7743 76.9091C49.637 79.0308 48.427 80.7557 48.1872 81.0915L53.0699 84.5785C53.3798 84.1446 54.7535 82.1857 56.0625 79.7438C57.2924 77.4494 58.796 74.1414 58.796 71.1787H52.796ZM48.1657 81.1221L46.4066 83.6512L51.3323 87.0772L53.0914 84.548L48.1657 81.1221ZM51.8382 84.9325L50.9586 78.8844L45.0211 79.7479L45.9007 85.796L51.8382 84.9325ZM45.4299 77.752C44.3736 79.4808 42.824 81.3494 40.7609 82.5531L43.7845 87.7355C46.9988 85.8602 49.1874 83.1102 50.5498 80.8803L45.4299 77.752ZM40.7081 82.5846C36.7229 85.0204 35.4734 88.588 35.306 91.4721C35.2249 92.8685 35.3912 94.102 35.5807 94.9974C35.7512 95.8033 35.9867 96.5437 36.181 96.9325L41.5478 94.2496C41.6872 94.5284 41.579 94.3616 41.4507 93.7551C41.3413 93.2382 41.2533 92.5541 41.2959 91.8199C41.3758 90.4429 41.8854 88.897 43.8373 87.704L40.7081 82.5846ZM36.0371 96.5941L37.2465 100.003L42.9011 97.9969L41.6917 94.588L36.0371 96.5941ZM41.6309 96.4358L38.5525 94.5663L35.4382 99.6948L38.5166 101.564L41.6309 96.4358ZM38.3372 94.4474C38.4888 94.5232 38.5279 94.5577 38.269 94.3915C38.0964 94.2807 37.8466 94.1164 37.5381 93.9053C36.9203 93.4827 36.0832 92.8838 35.1702 92.1636C33.2882 90.6789 31.308 88.8523 30.1463 87.1093L25.1537 90.4371C26.8505 92.9828 29.433 95.2799 31.4541 96.8742C32.4927 97.6935 33.4422 98.373 34.1505 98.8575C34.5052 99.1001 34.8034 99.2966 35.0268 99.4401C35.1639 99.5281 35.4469 99.7104 35.6535 99.8137L38.3372 94.4474ZM30.1583 87.1275C28.1232 84.0258 27.2509 81.0211 26.8635 78.8896L20.9602 79.9627C21.4523 82.6696 22.559 86.4828 25.1417 90.419L30.1583 87.1275ZM21.5404 77.5886L18.1321 81.9873L22.8749 85.6623L26.2832 81.2636L21.5404 77.5886ZM23.5035 83.8248V80.0859H17.5035V83.8248H23.5035ZM20.5035 80.0859C23.5035 80.0859 23.5035 80.0851 23.5035 80.0843C23.5035 80.0841 23.5035 80.0833 23.5035 80.0827C23.5035 80.0816 23.5035 80.0805 23.5035 80.0793C23.5035 80.077 23.5035 80.0746 23.5035 80.0721C23.5035 80.0671 23.5034 80.0616 23.5034 80.0558C23.5033 80.044 23.5031 80.0306 23.5029 80.0155C23.5024 79.9853 23.5015 79.9485 23.4999 79.9055C23.4969 79.8195 23.4913 79.7083 23.4813 79.575C23.4612 79.3092 23.4229 78.9509 23.3492 78.5273C23.2036 77.6899 22.9104 76.542 22.3073 75.3356L16.9406 78.0184C17.2171 78.5715 17.3637 79.128 17.4379 79.5552C17.4742 79.7639 17.4909 79.9279 17.4983 80.0264C17.502 80.0752 17.5033 80.1066 17.5037 80.1177C17.5039 80.1232 17.5038 80.1236 17.5038 80.1184C17.5037 80.1158 17.5037 80.1119 17.5036 80.1065C17.5036 80.1038 17.5036 80.1007 17.5035 80.0973C17.5035 80.0956 17.5035 80.0938 17.5035 80.0919C17.5035 80.0909 17.5035 80.0899 17.5035 80.089C17.5035 80.0885 17.5035 80.0877 17.5035 80.0874C17.5035 80.0867 17.5035 80.0859 20.5035 80.0859ZM22.3073 75.3355C22.0874 74.8955 21.8039 74.4852 21.6145 74.2146C21.3812 73.8811 21.2164 73.6571 21.0208 73.3636L16.0282 76.6914C16.2724 77.0578 16.5474 77.4385 16.6989 77.6549C16.8943 77.9341 16.9407 78.0186 16.9406 78.0184L22.3073 75.3355ZM20.8025 73.0753C19.5482 71.6117 18.556 70.2436 18.556 68.2096H12.556C12.556 72.5537 14.8622 75.3643 16.2466 76.9797L20.8025 73.0753ZM18.556 68.2096C18.556 66.7691 18.758 66.0944 18.899 65.8122L13.5323 63.1293C12.7938 64.6066 12.556 66.3512 12.556 68.2096H18.556ZM16.9434 61.5604C14.3563 60.9135 12.1333 59.7194 10.0408 57.9119L6.11864 62.4524C8.8637 64.8236 11.918 66.4885 15.4879 67.3812L16.9434 61.5604ZM10.0593 57.928C6.7153 54.9913 7.01172 50.5053 7.01172 50.0653H1.01172C1.01172 50.0652 0.428589 57.4555 6.1001 62.4363L10.0593 57.928ZM7.0011 50.3175L7.53921 43.9395L1.56045 43.435L1.02234 49.8131L7.0011 50.3175ZM1.70021 44.6252L3.69085 50.6733L9.39009 48.7975L7.39945 42.7494L1.70021 44.6252ZM3.58127 50.2285C3.72828 51.1108 4.19979 52.1024 4.6731 52.8563C5.14471 53.6075 6.0009 54.7442 7.28759 55.3876L9.97127 50.0213C10.1058 50.0886 10.1192 50.1298 10.0346 50.0404C9.9597 49.9611 9.86024 49.8342 9.75467 49.6661C9.65072 49.5005 9.56723 49.3369 9.51246 49.2102C9.48556 49.148 9.4721 49.1096 9.4682 49.0977C9.46119 49.0763 9.48092 49.1299 9.49966 49.2423L3.58127 50.2285ZM7.08555 55.2767L7.63528 55.6066L10.723 50.4622L10.1733 50.1322L7.08555 55.2767ZM7.83732 55.7176C8.45555 56.0268 9.2011 56.4137 10.1899 56.6437C11.134 56.8633 12.1647 56.9141 13.467 56.9141V50.9141C12.2406 50.9141 11.787 50.855 11.5492 50.7997C11.3561 50.7548 11.2221 50.7018 10.521 50.3512L7.83732 55.7176ZM13.467 56.9141C14.9318 56.9141 16.4386 56.6275 17.7375 56.2377L16.0131 50.4908C15.1132 50.7609 14.2011 50.9141 13.467 50.9141V56.9141ZM18.9968 51.2432C18.6787 50.925 18.3319 50.6564 17.9899 50.4284L14.6613 55.4204C14.7078 55.4514 14.7375 55.4738 14.7536 55.4867C14.7698 55.4997 14.7681 55.4997 14.7538 55.4854L18.9968 51.2432ZM18.0903 50.4983C17.6903 50.2073 17.5262 49.8394 17.4624 49.4274C17.4291 49.2121 17.4324 49.0234 17.4425 48.9125C17.4477 48.8556 17.4519 48.8493 17.4419 48.8948C17.438 48.9124 17.4217 48.9862 17.3855 49.0941C17.3683 49.1452 17.3311 49.251 17.2689 49.3829C17.2374 49.4499 17.1858 49.5528 17.1113 49.6731C17.0454 49.7794 16.9087 49.9863 16.688 50.2071L12.445 45.9648C12.058 46.3519 11.8753 46.7533 11.841 46.8261C11.7705 46.9758 11.7243 47.1047 11.6976 47.1841C11.6424 47.3483 11.6054 47.499 11.5807 47.6117C11.5291 47.8475 11.4912 48.1049 11.4671 48.3694C11.4188 48.901 11.4153 49.5852 11.5331 50.3458C11.7717 51.8857 12.5421 53.882 14.5609 55.3504L18.0903 50.4983ZM17.4694 48.8428L17.8995 47.1933L12.0936 45.6795L11.6635 47.3291L17.4694 48.8428ZM13.3031 48.9127L15.0719 50.1224L18.4589 45.1698L16.69 43.9601L13.3031 48.9127ZM16.7654 47.6461C14.3652 49.4458 14.3659 49.4468 14.3666 49.4477C14.3669 49.4481 14.3676 49.449 14.3681 49.4497C14.3691 49.4509 14.3701 49.4523 14.3711 49.4536C14.3731 49.4563 14.3752 49.4591 14.3774 49.4619C14.3817 49.4676 14.3864 49.4737 14.3913 49.4801C14.4012 49.493 14.4123 49.5072 14.4246 49.5228C14.4492 49.5538 14.4787 49.5902 14.513 49.6312C14.5815 49.7128 14.6705 49.8139 14.7796 49.9278C14.9953 50.1529 15.3034 50.4423 15.7015 50.7319C16.4864 51.3028 17.7527 51.9657 19.4041 51.9657V45.9657C19.3991 45.9657 19.3897 45.9658 19.3642 45.9561C19.3329 45.9442 19.2867 45.9203 19.231 45.8798C19.1757 45.8396 19.1333 45.7991 19.1119 45.7767C19.1025 45.7669 19.1013 45.7649 19.1092 45.7744C19.1133 45.7792 19.1199 45.7873 19.1292 45.799C19.1339 45.8049 19.1392 45.8117 19.1452 45.8195C19.1483 45.8235 19.1515 45.8277 19.1549 45.8321C19.1565 45.8343 19.1583 45.8366 19.1601 45.839C19.161 45.8402 19.1619 45.8414 19.1628 45.8426C19.1632 45.8432 19.1639 45.8441 19.1642 45.8444C19.1648 45.8453 19.1655 45.8463 16.7654 47.6461ZM19.4041 51.9657C20.2243 51.9657 20.9348 51.7284 21.3413 51.582C21.5929 51.4914 22.3992 51.17 22.5466 51.1147L20.4395 45.4969C20.1856 45.5921 19.9495 45.6867 19.7627 45.7611C19.5625 45.8408 19.4258 45.8946 19.3085 45.9369C19.1925 45.9786 19.1489 45.9893 19.1496 45.9892C19.1515 45.9887 19.2464 45.9657 19.4041 45.9657V51.9657ZM22.675 51.0632C23.9863 50.5011 25.6597 49.8158 28.7056 50.0846L29.2331 44.1078C24.8027 43.7169 22.0782 44.791 20.3111 45.5485L22.675 51.0632ZM28.7392 50.0874C31.7845 50.3217 32.8212 51.8336 33.2125 52.6164L38.5793 49.9335C37.4313 47.6371 34.7299 44.5306 29.1995 44.1051L28.7392 50.0874ZM38.1538 53.2502C39.0114 52.2699 40.145 50.9816 41.6432 50.5048L39.8237 44.7873C36.4843 45.8501 34.3196 48.5205 33.638 49.2996L38.1538 53.2502ZM41.7708 50.461C42.0472 50.3592 42.6606 50.2976 43.7698 50.51C44.8328 50.7136 45.9627 51.0856 47.1508 51.4817L49.0485 45.7897C47.9278 45.4161 46.4191 44.9084 44.8984 44.6171C43.424 44.3347 41.5087 44.1632 39.6962 44.8311L41.7708 50.461ZM47.1317 51.4753L47.1318 51.4753L49.0678 45.7962L49.0677 45.7962L47.1317 51.4753ZM47.151 51.4818C47.3712 51.5552 47.6025 51.6364 47.855 51.7252C48.0977 51.8106 48.3667 51.9054 48.6216 51.9904C48.872 52.0739 49.1587 52.1648 49.4399 52.2371C49.6652 52.295 50.1213 52.4055 50.6286 52.4055V46.4055C50.8035 46.4055 50.9196 46.4254 50.9399 46.4289C50.9708 46.4342 50.9721 46.4359 50.9342 46.4261C50.8546 46.4057 50.7222 46.366 50.5191 46.2983C50.3204 46.2321 50.1015 46.1551 49.846 46.0652C49.6003 45.9788 49.3232 45.8813 49.0486 45.7898L47.151 51.4818ZM50.6286 52.4055C51.8155 52.4055 53.2635 51.9447 54.2344 51.6035C55.3551 51.2097 56.4879 50.7324 57.2732 50.3698L54.7585 44.9223C54.1145 45.2196 53.1584 45.6219 52.2451 45.9429C51.7886 46.1033 51.3791 46.2305 51.0466 46.3143C50.6695 46.4093 50.5567 46.4055 50.6286 46.4055V52.4055ZM57.152 50.4226L59.5708 49.4329L57.2986 43.8798L54.8798 44.8695L57.152 50.4226ZM55.5404 45.8671L54.8807 48.2864L60.6693 49.8648L61.329 47.4456L55.5404 45.8671ZM54.8332 48.4873C54.8336 48.4856 54.8316 48.4956 54.8265 48.5176C54.8215 48.5389 54.8144 48.5679 54.805 48.6039C54.786 48.6764 54.7594 48.7705 54.7247 48.88C54.6541 49.1025 54.5578 49.364 54.4367 49.6242C54.3137 49.8884 54.1838 50.1111 54.058 50.2794C53.997 50.361 53.945 50.4189 53.905 50.4581C53.8855 50.4772 53.8701 50.4905 53.8595 50.4991C53.8489 50.5077 53.8435 50.5111 53.8437 50.511L57.0886 55.5578C58.5655 54.6082 59.4158 53.1456 59.8764 52.1559C60.3634 51.1095 60.6227 50.1342 60.7168 49.6638L54.8332 48.4873ZM53.7222 50.5933C53.2891 50.9028 52.8161 51.0791 51.8654 51.4866L54.2293 57.0013C54.8178 56.7491 56.1039 56.2657 57.2101 55.4754L53.7222 50.5933ZM52.2742 57.1427C54.2849 57.6789 56.7802 57.9627 59.6794 57.2723L58.2894 51.4355C56.5709 51.8448 55.1082 51.6888 53.8205 51.3453L52.2742 57.1427ZM59.5964 57.2908C61.5155 56.8909 63.3456 55.8146 64.6712 54.891C66.0499 53.9303 67.2019 52.9072 67.8126 52.2964L63.5695 48.0541C63.1908 48.433 62.3087 49.2243 61.2412 49.9681C60.1205 50.7489 59.092 51.2671 58.3724 51.417L59.5964 57.2908ZM67.8125 52.2964L69.9015 50.2071L65.6585 45.9648L63.5696 48.0541L67.8125 52.2964Z" fill="#323232" mask="url(#path-4-outside-1_1180_1704)"/>
<path fill-rule="evenodd" clip-rule="evenodd" d="M67.7918 47.756V50.725C67.7918 50.835 67.7918 54.2439 65.8124 57.7628C63.6131 61.7216 60.3141 63.8109 54.4859 65.2405C55.1457 66.4501 55.8055 68.2096 55.8055 70.8488C55.8055 75.1374 51.187 81.7353 50.6371 82.5051L48.8777 85.0343L47.998 78.9862C46.7883 80.9656 44.9189 83.2748 42.2797 84.8143C36.3416 88.4432 38.7609 95.0411 38.8708 95.2611L40.0804 98.67L37.0014 96.8006C36.7815 96.6906 30.5134 92.7319 27.6543 88.4433C25.345 84.9244 24.3554 81.5154 23.9155 79.0962L20.5066 83.4948V79.756C20.5066 79.756 20.5066 78.1065 19.6268 76.347C19.4069 75.9072 18.967 75.3574 18.5272 74.6976C17.2076 73.158 15.5581 71.0687 15.5581 67.8797C15.5581 66.2302 15.778 65.0206 16.2179 64.1408C13.1389 63.3711 10.4997 61.9416 8.08046 59.8522C3.57187 55.8934 4.01172 49.9553 4.01172 49.7354L4.56155 43.6873L6.54094 49.4055C6.6509 50.0653 7.53063 51.8247 8.63028 52.3745L9.18011 52.7044C10.4997 53.3642 10.9396 53.5842 13.4688 53.5842C14.5684 53.5842 15.778 53.3642 16.8777 53.0343C16.7311 52.8877 16.5478 52.7411 16.3279 52.5944C13.9086 50.835 14.4585 47.866 14.5684 47.756L15.1182 45.0069L16.7677 47.3161C16.7677 47.3161 17.7574 48.6357 19.4069 48.6357C19.9567 48.6357 20.6165 48.3058 21.4963 47.9759C23.0358 47.3161 25.2351 46.4364 28.9739 46.7663C33.2626 47.0962 35.132 49.4054 35.9017 50.945C36.6715 50.0652 38.321 48.0859 40.7402 47.3161C42.8296 46.5463 45.7986 47.5361 48.1079 48.3058C49.0976 48.6357 50.1973 49.0755 50.6371 49.0755C51.8468 49.0755 54.5959 47.9759 56.0254 47.3161L58.4447 46.3264L57.7849 48.7456C57.6749 49.2955 57.0151 51.7148 55.4756 52.7044C54.7058 53.2543 53.8261 53.5841 53.0564 53.914C54.7059 54.3539 56.6852 54.5738 58.9945 54.024C61.6337 53.4742 64.7127 50.835 65.7024 49.8453L67.7918 47.756ZM9.72994 57.9828C13.7987 61.6116 18.967 63.0412 25.0151 62.2714C31.2832 61.3917 34.4722 57.323 34.4722 55.7835C34.4722 53.9141 34.1423 53.1443 34.1423 53.1443L34.0323 52.9243C33.9224 52.7044 33.1526 49.6254 28.754 49.2955C25.565 49.0755 23.9155 49.7353 22.376 50.3951C21.3863 50.725 20.3966 51.1649 19.2969 51.1649C18.9304 51.1649 18.6005 51.1283 18.3072 51.055C19.4069 51.7148 20.1767 51.8247 20.2866 51.8247L25.1251 52.0446L20.8365 54.134C20.6165 54.244 16.8777 56.1134 13.4688 56.1134C10.4997 56.1134 9.61997 55.7835 7.97048 54.9038L7.42066 54.5738C7.42066 54.5738 7.384 54.5738 7.31069 54.5738C7.75055 55.7834 8.52032 56.9931 9.72994 57.9828ZM53.2763 70.8488C53.2763 67.7697 51.9567 66.1202 51.7368 65.9003C50.5272 66.0103 49.3175 66.1202 48.1079 66.1202C44.1492 66.1202 40.6303 65.1306 38.1011 63.1512C36.6715 62.0515 35.9017 60.7319 35.3519 59.4123C33.4825 61.8316 30.0736 64.1408 25.345 64.6907C24.1721 64.8373 23.0358 64.9106 21.9361 64.9106C20.8365 64.9106 19.7735 64.8373 18.7471 64.6907C18.5272 65.0206 17.9774 65.7903 17.9774 67.8797C17.9774 70.2989 19.187 71.7284 20.3966 73.268C20.9464 73.9277 21.4963 74.5876 21.8262 75.3573C22.1194 75.8705 22.3393 76.347 22.4859 76.7869L25.8949 72.1683V75.9072C25.8949 75.9072 26.0048 81.6254 29.7437 87.1237C31.1732 89.4329 33.8124 91.5222 35.7918 93.0618C35.5718 89.7628 36.5615 85.4742 40.9602 82.725C45.4687 80.0859 47.4481 74.5876 47.4481 74.4776L49.0976 69.5292L50.3072 78.3264C51.7368 76.0171 53.2763 72.8281 53.2763 70.8488ZM64.7127 53.914C63.2832 55.0137 61.4138 56.1134 59.5443 56.5532C53.1663 57.9828 48.5478 54.5738 48.3279 54.4639L45.3588 52.1546L49.0976 52.2646C49.2076 52.2646 51.2969 52.2646 53.3863 51.055C52.3966 51.3849 51.4069 51.6048 50.6371 51.6048C49.7574 51.6048 48.6578 51.1649 47.2282 50.725C45.3588 50.0652 42.8296 49.2955 41.51 49.7354C39.5306 50.3952 38.1011 52.2646 37.6612 52.7044C37.4413 53.6941 36.1217 58.4226 39.6406 61.1717C42.6096 63.591 47.4481 64.2508 52.6165 63.1512C58.5547 61.9416 61.6337 60.0721 63.6131 56.5532C64.1629 55.6735 64.4928 54.6838 64.7127 53.914Z" fill="#EEEC0B"/>
<path d="M95.4854 25.8182V28.5792H87.087V44H83.7933V25.8182H95.4854ZM96.7128 49.1136V30.3636H99.8733V32.6186H100.06C100.225 32.2872 100.459 31.935 100.761 31.5621C101.063 31.1834 101.471 30.8608 101.986 30.5945C102.501 30.3222 103.158 30.1861 103.957 30.1861C105.011 30.1861 105.961 30.4554 106.807 30.994C107.659 31.5266 108.334 32.3168 108.831 33.3643C109.334 34.406 109.586 35.6844 109.586 37.1996C109.586 38.697 109.34 39.9695 108.849 41.017C108.358 42.0646 107.689 42.8636 106.842 43.4141C105.996 43.9645 105.037 44.2397 103.966 44.2397C103.185 44.2397 102.537 44.1095 102.022 43.8491C101.507 43.5887 101.093 43.275 100.779 42.908C100.471 42.5352 100.231 42.183 100.06 41.8516H99.9266V49.1136H96.7128ZM99.8644 37.1818C99.8644 38.0637 99.9887 38.8361 100.237 39.4989C100.492 40.1618 100.856 40.6797 101.329 41.0526C101.809 41.4195 102.389 41.603 103.069 41.603C103.78 41.603 104.374 41.4136 104.854 41.0348C105.333 40.6501 105.694 40.1263 105.937 39.4634C106.185 38.7946 106.31 38.0341 106.31 37.1818C106.31 36.3355 106.188 35.5838 105.946 34.9268C105.703 34.2699 105.342 33.755 104.863 33.3821C104.383 33.0092 103.785 32.8228 103.069 32.8228C102.383 32.8228 101.8 33.0033 101.32 33.3643C100.841 33.7254 100.477 34.2314 100.228 34.8825C99.9858 35.5335 99.8644 36.3 99.8644 37.1818ZM116.262 44.2752C115.398 44.2752 114.619 44.1213 113.927 43.8136C113.24 43.4999 112.696 43.0382 112.293 42.4286C111.897 41.819 111.699 41.0674 111.699 40.1737C111.699 39.4042 111.841 38.768 112.125 38.2649C112.409 37.7618 112.796 37.3594 113.288 37.0575C113.779 36.7557 114.332 36.5278 114.948 36.3739C115.569 36.2141 116.211 36.0987 116.874 36.0277C117.673 35.9448 118.321 35.8709 118.819 35.8058C119.316 35.7347 119.677 35.6282 119.902 35.4862C120.133 35.3382 120.248 35.1103 120.248 34.8026V34.7493C120.248 34.0805 120.05 33.5626 119.653 33.1957C119.257 32.8287 118.685 32.6452 117.94 32.6452C117.153 32.6452 116.528 32.8169 116.066 33.1602C115.611 33.5034 115.303 33.9089 115.143 34.3764L112.142 33.9503C112.379 33.1217 112.77 32.4292 113.314 31.8729C113.859 31.3106 114.525 30.8904 115.312 30.6122C116.099 30.3281 116.969 30.1861 117.922 30.1861C118.579 30.1861 119.233 30.263 119.884 30.4169C120.535 30.5708 121.13 30.8253 121.668 31.1804C122.207 31.5296 122.639 32.006 122.965 32.6097C123.296 33.2134 123.462 33.968 123.462 34.8736V44H120.372V42.1268H120.266C120.07 42.5056 119.795 42.8607 119.44 43.1921C119.091 43.5176 118.65 43.781 118.117 43.9822C117.591 44.1776 116.972 44.2752 116.262 44.2752ZM117.096 41.9137C117.741 41.9137 118.301 41.7865 118.774 41.532C119.248 41.2715 119.612 40.9283 119.866 40.5021C120.127 40.076 120.257 39.6114 120.257 39.1083V37.5014C120.156 37.5843 119.985 37.6612 119.742 37.7322C119.505 37.8033 119.239 37.8654 118.943 37.9187C118.647 37.9719 118.354 38.0193 118.064 38.0607C117.774 38.1022 117.522 38.1377 117.309 38.1673C116.83 38.2324 116.401 38.3389 116.022 38.4869C115.643 38.6348 115.344 38.842 115.125 39.1083C114.906 39.3687 114.797 39.7061 114.797 40.1204C114.797 40.7122 115.013 41.1591 115.445 41.4609C115.877 41.7628 116.428 41.9137 117.096 41.9137ZM125.486 47.9595V41.3544H126.569C126.859 41.1295 127.102 40.8247 127.297 40.44C127.492 40.0494 127.652 39.5907 127.776 39.0639C127.907 38.5312 128.013 37.9364 128.096 37.2795C128.179 36.6166 128.253 35.9034 128.318 35.1399L128.709 30.3636H138.563V41.3544H140.676V47.9595H137.569V44H128.646V47.9595H125.486ZM129.872 41.3544H135.491V32.956H131.496L131.283 35.1399C131.165 36.584 131.008 37.821 130.813 38.8509C130.617 39.8807 130.304 40.7152 129.872 41.3544ZM145.073 49.1136C144.635 49.1136 144.229 49.0781 143.856 49.0071C143.489 48.942 143.196 48.8651 142.977 48.7763L143.723 46.2727C144.191 46.4089 144.608 46.474 144.975 46.468C145.342 46.4621 145.664 46.3467 145.943 46.1218C146.227 45.9028 146.466 45.5359 146.662 45.021L146.937 44.2841L141.992 30.3636H145.401L148.544 40.6619H148.686L151.838 30.3636H155.256L149.796 45.6513C149.541 46.3733 149.204 46.9918 148.784 47.5067C148.363 48.0276 147.848 48.4241 147.239 48.6964C146.635 48.9746 145.913 49.1136 145.073 49.1136ZM162.964 44.2663C161.602 44.2663 160.434 43.9674 159.457 43.3697C158.486 42.7719 157.738 41.9463 157.211 40.8928C156.69 39.8333 156.43 38.6141 156.43 37.2351C156.43 35.8501 156.696 34.628 157.229 33.5685C157.761 32.5032 158.513 31.6746 159.484 31.0827C160.46 30.485 161.614 30.1861 162.946 30.1861C164.053 30.1861 165.032 30.3903 165.884 30.7987C166.743 31.2011 167.426 31.7723 167.935 32.5121C168.444 33.246 168.734 34.1042 168.805 35.0866H165.734C165.609 34.4297 165.313 33.8822 164.846 33.4442C164.384 33.0004 163.766 32.7784 162.99 32.7784C162.333 32.7784 161.756 32.956 161.259 33.3111C160.762 33.6603 160.374 34.1634 160.096 34.8203C159.824 35.4773 159.688 36.2644 159.688 37.1818C159.688 38.111 159.824 38.91 160.096 39.5788C160.368 40.2417 160.75 40.7537 161.241 41.1147C161.739 41.4698 162.322 41.6474 162.99 41.6474C163.464 41.6474 163.887 41.5586 164.26 41.381C164.639 41.1976 164.955 40.9342 165.21 40.5909C165.464 40.2476 165.639 39.8304 165.734 39.3391H168.805C168.728 40.3039 168.444 41.1591 167.953 41.9048C167.462 42.6446 166.793 43.2247 165.947 43.6449C165.1 44.0592 164.106 44.2663 162.964 44.2663ZM86.5455 57.8182L90.5494 64.4766H90.6914L94.7131 57.8182H98.4684L92.8665 66.9091L98.5572 76H94.7397L90.6914 69.386H90.5494L86.5011 76H82.7013L88.4453 66.9091L82.7724 57.8182H86.5455ZM104.836 76.2752C103.972 76.2752 103.194 76.1213 102.501 75.8136C101.815 75.4999 101.27 75.0382 100.868 74.4286C100.471 73.819 100.273 73.0674 100.273 72.1737C100.273 71.4042 100.415 70.768 100.699 70.2649C100.983 69.7618 101.371 69.3594 101.862 69.0575C102.353 68.7557 102.907 68.5278 103.522 68.3739C104.144 68.2141 104.786 68.0987 105.449 68.0277C106.248 67.9448 106.896 67.8709 107.393 67.8058C107.89 67.7347 108.251 67.6282 108.476 67.4862C108.707 67.3382 108.822 67.1103 108.822 66.8026V66.7493C108.822 66.0805 108.624 65.5626 108.227 65.1957C107.831 64.8287 107.26 64.6452 106.514 64.6452C105.727 64.6452 105.102 64.8169 104.641 65.1602C104.185 65.5034 103.877 65.9089 103.717 66.3764L100.717 65.9503C100.953 65.1217 101.344 64.4292 101.889 63.8729C102.433 63.3106 103.099 62.8904 103.886 62.6122C104.673 62.3281 105.543 62.1861 106.496 62.1861C107.153 62.1861 107.807 62.263 108.458 62.4169C109.109 62.5708 109.704 62.8253 110.243 63.1804C110.781 63.5296 111.213 64.006 111.539 64.6097C111.87 65.2134 112.036 65.968 112.036 66.8736V76H108.946V74.1268H108.84C108.645 74.5056 108.369 74.8607 108.014 75.1921C107.665 75.5176 107.224 75.781 106.691 75.9822C106.165 76.1776 105.546 76.2752 104.836 76.2752ZM105.671 73.9137C106.316 73.9137 106.875 73.7865 107.348 73.532C107.822 73.2715 108.186 72.9283 108.44 72.5021C108.701 72.076 108.831 71.6114 108.831 71.1083V69.5014C108.73 69.5843 108.559 69.6612 108.316 69.7322C108.079 69.8033 107.813 69.8654 107.517 69.9187C107.221 69.9719 106.928 70.0193 106.638 70.0607C106.348 70.1022 106.097 70.1377 105.884 70.1673C105.404 70.2324 104.975 70.3389 104.596 70.4869C104.218 70.6348 103.919 70.842 103.7 71.1083C103.481 71.3687 103.371 71.7061 103.371 72.1204C103.371 72.7122 103.587 73.1591 104.019 73.4609C104.451 73.7628 105.002 73.9137 105.671 73.9137ZM116.777 81.1136C116.339 81.1136 115.933 81.0781 115.56 81.0071C115.194 80.942 114.901 80.8651 114.682 80.7763L115.427 78.2727C115.895 78.4089 116.312 78.474 116.679 78.468C117.046 78.4621 117.369 78.3467 117.647 78.1218C117.931 77.9028 118.171 77.5359 118.366 77.021L118.641 76.2841L113.696 62.3636H117.105L120.248 72.6619H120.39L123.542 62.3636H126.96L121.5 77.6513C121.245 78.3733 120.908 78.9918 120.488 79.5067C120.067 80.0276 119.553 80.4241 118.943 80.6964C118.339 80.9746 117.617 81.1136 116.777 81.1136ZM134.668 76.2663C133.307 76.2663 132.138 75.9674 131.161 75.3697C130.19 74.7719 129.442 73.9463 128.915 72.8928C128.394 71.8333 128.134 70.6141 128.134 69.2351C128.134 67.8501 128.4 66.628 128.933 65.5685C129.465 64.5032 130.217 63.6746 131.188 63.0827C132.164 62.485 133.318 62.1861 134.65 62.1861C135.757 62.1861 136.736 62.3903 137.589 62.7987C138.447 63.2011 139.13 63.7723 139.639 64.5121C140.148 65.246 140.438 66.1042 140.509 67.0866H137.438C137.313 66.4297 137.017 65.8822 136.55 65.4442C136.088 65.0004 135.47 64.7784 134.694 64.7784C134.037 64.7784 133.46 64.956 132.963 65.3111C132.466 65.6603 132.078 66.1634 131.8 66.8203C131.528 67.4773 131.392 68.2644 131.392 69.1818C131.392 70.111 131.528 70.91 131.8 71.5788C132.073 72.2417 132.454 72.7537 132.945 73.1147C133.443 73.4698 134.026 73.6474 134.694 73.6474C135.168 73.6474 135.591 73.5586 135.964 73.381C136.343 73.1976 136.659 72.9342 136.914 72.5909C137.168 72.2476 137.343 71.8304 137.438 71.3391H140.509C140.432 72.3039 140.148 73.1591 139.657 73.9048C139.166 74.6446 138.497 75.2247 137.651 75.6449C136.804 76.0592 135.81 76.2663 134.668 76.2663Z" fill="#323232"/>
<circle cx="143.5" cy="59.5" r="2" stroke="#323232"/>
</svg>
