<svg width="43" height="42" viewBox="0 0 43 42" fill="none" xmlns="http://www.w3.org/2000/svg">
<circle cx="21.5" cy="21" r="20.5" fill="#EEEC0B" stroke="#EEEC0B"/>
<path d="M21.5 32C19.3783 32 17.3434 31.1571 15.8431 29.6568C14.3429 28.1566 13.5 26.1217 13.5 24C13.5159 21.8405 14.2632 19.7501 15.62 18.07C17.2017 16.0223 18.0943 13.5263 18.17 10.94C18.1793 10.777 18.2283 10.6188 18.3128 10.4791C18.3973 10.3394 18.5147 10.2226 18.6548 10.1387C18.7948 10.0549 18.9533 10.0066 19.1163 9.99812C19.2794 9.98962 19.442 10.0212 19.59 10.09C21.2679 10.8122 22.722 11.9701 23.8016 13.4435C24.8812 14.917 25.547 16.6525 25.73 18.47C25.961 18.1581 26.1587 17.823 26.32 17.47C26.3818 17.2992 26.4889 17.1485 26.6298 17.034C26.7707 16.9195 26.9402 16.8455 27.12 16.82C27.3007 16.7952 27.4847 16.8203 27.6521 16.8926C27.8196 16.9648 27.9641 17.0815 28.07 17.23C28.22 17.41 29.5 19.33 29.5 24C29.5121 25.0539 29.3134 26.0996 28.9156 27.0757C28.5178 28.0517 27.929 28.9384 27.1837 29.6837C26.4384 30.429 25.5517 31.0178 24.5757 31.4156C23.5996 31.8134 22.5539 32.0121 21.5 32ZM20.01 12.6C19.6763 14.9964 18.7367 17.2681 17.28 19.2C16.1435 20.5426 15.5137 22.2411 15.5 24C15.5 25.5913 16.1321 27.1174 17.2574 28.2426C18.3826 29.3678 19.9087 30 21.5 30C22.2928 30.0177 23.081 29.8747 23.8169 29.5795C24.5529 29.2842 25.2215 28.8429 25.7822 28.2822C26.3429 27.7214 26.7842 27.0529 27.0795 26.3169C27.3747 25.581 27.5178 24.7928 27.5 24C27.5208 22.6535 27.373 21.3097 27.06 20C26.5346 20.6622 25.9066 21.2361 25.2 21.7C25.0375 21.805 24.8481 21.8607 24.6546 21.8602C24.4611 21.8597 24.2719 21.8031 24.11 21.6973C23.948 21.5914 23.8203 21.4409 23.7422 21.2638C23.6641 21.0868 23.639 20.891 23.67 20.7C23.9631 19.1375 23.7692 17.5227 23.1146 16.0741C22.46 14.6254 21.3763 13.4127 20.01 12.6Z" fill="#323232"/>
</svg>
