<svg width="25" height="25" viewBox="0 0 25 25" fill="none" xmlns="http://www.w3.org/2000/svg">
<path d="M24.9903 6.03C24.9905 5.95887 24.9696 5.88928 24.9303 5.83L21.4903 0.24C21.4447 0.166948 21.3813 0.106628 21.3062 0.0646622C21.231 0.0226962 21.1464 0.000450886 21.0603 0H3.92027C3.83416 0.000450886 3.74957 0.0226962 3.67438 0.0646622C3.59919 0.106628 3.53585 0.166948 3.49027 0.24L0.0602671 5.78C0.0211683 5.83564 0.000212889 5.902 0.000267124 5.97V8.3C-0.00512177 8.61797 0.0711051 8.93201 0.221667 9.21212C0.372228 9.49224 0.592095 9.72907 0.860267 9.9V24.5C0.860267 24.6326 0.912946 24.7598 1.00671 24.8536C1.10048 24.9473 1.22766 25 1.36027 25H23.6303C23.7629 25 23.8901 24.9473 23.9838 24.8536C24.0776 24.7598 24.1303 24.6326 24.1303 24.5V9.96C24.3976 9.79067 24.6171 9.55557 24.7677 9.27719C24.9183 8.99881 24.9949 8.68646 24.9903 8.37V6.04V6.03ZM4.20027 1H20.7803L23.5903 5.5H1.39027L4.20027 1ZM20.5603 6.5V8.33C20.5799 8.53655 20.5175 8.74253 20.3865 8.90345C20.2555 9.06436 20.0665 9.16729 19.8603 9.19H18.8603C18.4503 9.19 18.2903 9.07 18.2203 8.97C18.17 8.76059 18.1498 8.5451 18.1603 8.33V6.5H20.5603ZM17.1303 6.5V8.33C17.1499 8.53655 17.0875 8.74253 16.9565 8.90345C16.8255 9.06436 16.6365 9.16729 16.4303 9.19H15.4303C14.8903 9.19 14.8303 8.97 14.7703 8.76V8.69C14.7703 8.58 14.7703 8.45 14.7703 8.33V6.5H17.1303ZM13.7003 6.5V8.33C13.7199 8.53655 13.6575 8.74253 13.5265 8.90345C13.3955 9.06436 13.2065 9.16729 13.0003 9.19H12.0003C11.794 9.16729 11.605 9.06436 11.474 8.90345C11.3431 8.74253 11.2806 8.53655 11.3003 8.33V6.5H13.7003ZM10.2803 6.5V8.33C10.2973 8.53602 10.2339 8.74063 10.1034 8.90095C9.97294 9.06128 9.78545 9.16486 9.58027 9.19H8.58027C8.37403 9.16729 8.18501 9.06436 8.05403 8.90345C7.92305 8.74253 7.86064 8.53655 7.88027 8.33V6.5H10.2803ZM6.85027 7.3V8.3C6.85157 8.43544 6.82262 8.56947 6.76553 8.6923C6.70844 8.81514 6.62465 8.92367 6.52027 9.01C6.40827 9.08436 6.28243 9.13538 6.15027 9.16H5.15027C4.94403 9.13729 4.75501 9.03436 4.62403 8.87345C4.49305 8.71253 4.43064 8.50655 4.45027 8.3V6.5H6.88027L6.85027 7.3ZM1.63027 9.21C1.43976 9.17161 1.26975 9.06518 1.15198 8.9106C1.0342 8.75602 0.97672 8.56386 0.990267 8.37V6.5H3.42027V8.33C3.42344 8.4633 3.39629 8.59557 3.34085 8.71684C3.28542 8.83811 3.20315 8.94519 3.10027 9.03C2.81741 9.15463 2.50875 9.20951 2.20027 9.19H1.74027L1.63027 9.21ZM10.2003 24H5.28027V14.85H10.2803L10.2003 24ZM23.1303 24H11.2003L11.2803 14.35C11.2759 14.2157 11.2226 14.0876 11.1303 13.99C11.0363 13.8995 10.9107 13.8492 10.7803 13.85H4.78027C4.64766 13.85 4.52048 13.9027 4.42671 13.9964C4.33295 14.0902 4.28027 14.2174 4.28027 14.35V24H1.85027V10.23H2.72027C3.08856 10.219 3.44178 10.0813 3.72027 9.84C3.75912 9.8203 3.79596 9.79685 3.83027 9.77C3.99601 9.93115 4.19394 10.0554 4.41109 10.1347C4.62824 10.214 4.85969 10.2465 5.09027 10.23H6.09027C6.4583 10.2269 6.81305 10.0921 7.09027 9.85C7.14049 9.82594 7.18752 9.7957 7.23027 9.76C7.57337 10.0677 8.01944 10.2354 8.48027 10.23H9.48027C9.61587 10.2304 9.75074 10.2101 9.88027 10.17C10.1689 10.1297 10.4434 10.0199 10.6803 9.85C10.9124 10.0216 11.1841 10.1317 11.4703 10.17C11.603 10.211 11.7413 10.2312 11.8803 10.23H12.8803C13.0155 10.2254 13.1497 10.2053 13.2803 10.17C13.5514 10.1324 13.8072 10.0218 14.0203 9.85C14.3751 10.1279 14.8208 10.2634 15.2703 10.23H16.2703C16.6919 10.2506 17.108 10.1272 17.4503 9.88C17.6857 10.0591 17.966 10.1698 18.2603 10.2C18.3967 10.211 18.5338 10.211 18.6703 10.2H19.8903H20.2203C20.5381 10.1722 20.844 10.0657 21.1103 9.89C21.2632 9.97981 21.4282 10.0472 21.6003 10.09C21.8058 10.19 22.0317 10.2413 22.2603 10.24H23.1303V24ZM23.9903 8.37C24.0034 8.56529 23.9446 8.75863 23.8248 8.91343C23.705 9.06823 23.5326 9.17374 23.3403 9.21C23.2903 9.21 23.2403 9.21 23.2903 9.21H22.7503C22.4881 9.21255 22.2265 9.18571 21.9703 9.13C21.8401 9.04676 21.7338 8.93107 21.662 8.7943C21.5901 8.65754 21.555 8.50442 21.5603 8.35V6.5H23.9903V8.37Z" fill="#54AD2A"/>
</svg>
