<svg width="13" height="11" viewBox="0 0 13 11" fill="none" xmlns="http://www.w3.org/2000/svg">
<path d="M4.75001 10.5C4.63889 10.4996 4.52902 10.4759 4.42725 10.4302C4.32547 10.3844 4.23396 10.3178 4.15839 10.2343L0.219678 5.94166C0.072444 5.78091 -0.00642895 5.56682 0.000410417 5.34648C0.00379693 5.23739 0.0281245 5.13004 0.0720041 5.03058C0.115884 4.93111 0.178456 4.84148 0.256148 4.76679C0.33384 4.6921 0.425131 4.63382 0.524808 4.59527C0.624486 4.55673 0.730597 4.53867 0.837084 4.54214C1.05214 4.54915 1.25568 4.6434 1.40291 4.80415L4.74191 8.44916L11.5577 0.810412C11.6268 0.72217 11.7129 0.649346 11.8105 0.596414C11.9082 0.543481 12.0153 0.511557 12.1254 0.502603C12.2356 0.493649 12.3463 0.507853 12.4509 0.544344C12.5554 0.580834 12.6516 0.63884 12.7335 0.7148C12.8154 0.790759 12.8813 0.883067 12.9271 0.986056C12.9729 1.08904 12.9976 1.20054 12.9998 1.31369C13.002 1.42684 12.9817 1.53926 12.9399 1.64404C12.8982 1.74882 12.836 1.84376 12.7571 1.92301L5.34973 10.226C5.27488 10.311 5.18369 10.3792 5.08187 10.4263C4.98006 10.4735 4.86984 10.4986 4.75811 10.5H4.75001Z" fill="#EEEC0B"/>
</svg>
