<svg width="85" height="30" viewBox="0 0 85 30" fill="none" xmlns="http://www.w3.org/2000/svg">
<path d="M0 25V5C0 2.23858 2.23857 0 5 0H69.6148C71.6594 0 73.4979 1.24475 74.2572 3.14305L82.2572 23.143C83.5709 26.4274 81.1522 30 77.6148 30H5C2.23858 30 0 27.7614 0 25Z" fill="#323232"/>
<path d="M13.017 20H10.3807L14.3977 8.36364H17.5682L21.5795 20H18.9432L16.0284 11.0227H15.9375L13.017 20ZM12.8523 15.4261H19.0795V17.3466H12.8523V15.4261ZM22.9347 20V11.2727H25.3551V14.6591H26.0369L28.4119 11.2727H31.2528L28.1676 15.6023L31.2869 20H28.4119L26.2585 16.9034H25.3551V20H22.9347ZM39.9403 11.2727V18.3295H41.3324V22.8068H38.9801V20H32.3097V11.2727H34.6222V18.0966H37.6562V11.2727H39.9403ZM45.1378 16.8068L48.2798 11.2727H50.6662V20H48.3594V14.4489L45.2287 20H42.8253V11.2727H45.1378V16.8068ZM57.7202 20V13.1705H56.0838C55.6406 13.1705 55.3035 13.2727 55.0724 13.4773C54.8414 13.6818 54.7277 13.9242 54.7315 14.2045C54.7277 14.4886 54.8376 14.7292 55.0611 14.9261C55.2884 15.1193 55.6217 15.2159 56.0611 15.2159H58.527V16.8523H56.0611C55.3149 16.8523 54.669 16.7386 54.1236 16.5114C53.5781 16.2841 53.1577 15.9678 52.8622 15.5625C52.5668 15.1534 52.4209 14.678 52.4247 14.1364C52.4209 13.5682 52.5668 13.0701 52.8622 12.642C53.1577 12.2102 53.58 11.875 54.1293 11.6364C54.6823 11.3939 55.3338 11.2727 56.0838 11.2727H59.9759V20H57.7202ZM52.1747 20L54.6009 15.4545H56.9134L54.4929 20H52.1747Z" fill="#EEEC0B"/>
</svg>
