<svg width="60" height="60" viewBox="0 0 60 60" fill="none" xmlns="http://www.w3.org/2000/svg">
<circle cx="30" cy="30" r="30" fill="white"/>
<path d="M30 0C13.4311 0 0 13.4311 0 30C0 46.5689 13.4311 60 30 60C46.5689 60 60 46.5689 60 30C60 13.4311 46.5689 0 30 0ZM46.1231 41.3845C44.8427 42.1852 39.6402 42.4237 38.3806 41.5087C37.6898 41.0069 37.0581 40.3791 36.4582 39.7812C36.0383 39.3633 35.562 39.1605 35.2013 38.7069C34.9068 38.3358 34.7047 37.8977 34.3947 37.5312C33.8715 36.9164 33.0663 36.3932 32.4294 37.1445C31.4701 38.2747 32.5802 40.4941 31.3011 41.3384C30.8722 41.6217 30.4393 41.7036 29.9032 41.6633L28.7158 41.7173C28.0184 41.7309 26.9136 41.7374 26.12 41.5944C25.2348 41.4346 24.5037 40.951 23.703 40.5962C22.1835 39.9222 20.7361 39.0039 19.6345 37.732C16.6365 34.268 12.6096 29.5041 11.0453 25.149C10.7236 24.2541 9.87348 22.4818 10.6794 21.7143C11.7751 20.9181 17.1532 20.6939 17.9922 21.9248C18.3328 22.4253 18.5479 23.1571 18.789 23.7244C19.0893 24.4315 19.2517 25.0977 19.721 25.7236C20.1363 26.2786 20.4424 26.8369 20.7634 27.4452C21.1241 28.1282 21.4647 28.7834 21.9034 29.4118C22.201 29.8395 22.9881 30.6902 23.4853 30.7532C24.6993 30.9086 24.6239 27.9586 24.5336 27.2385C24.4471 26.5444 24.425 25.8081 24.4478 25.1042C24.4673 24.5037 24.5212 23.6575 24.1657 23.1675C23.586 22.3681 22.2946 22.966 22.1939 21.8917C22.4071 21.5869 22.3622 21.3165 23.7862 20.8473C24.9079 20.4788 25.6326 20.4905 26.3722 20.5496C27.88 20.6705 29.4788 20.2623 30.9346 20.7511C32.3254 21.2197 32.1103 23.1961 32.0635 24.3802C32.0004 25.9965 32.068 27.5745 32.0635 29.2156C32.0615 29.9623 32.0316 30.6896 32.9428 30.6285C33.7968 30.5719 33.8839 29.8531 34.2914 29.2604C34.8581 28.4337 35.3787 27.5953 35.9558 26.7719C36.7337 25.6586 36.969 24.4075 37.7015 23.2669C37.9634 22.8594 38.1889 21.9911 38.5925 21.6688C38.898 21.4237 39.4783 21.5518 39.8481 21.5518H40.7275C41.4001 21.5518 42.0864 21.5466 42.778 21.5706C43.7736 21.6051 44.8889 21.3763 45.8761 21.516C50.1363 22.1172 40.5214 31.2244 41.0219 32.8505C41.3676 33.9736 43.5611 35.2285 44.3527 36.1482C45.4036 37.3733 48.6389 39.8085 46.1231 41.3845Z" fill="#4C75A3"/>
</svg>
